<?xml version="1.0" standalone="no"?><!DOCTYPE svg PUBLIC "-//W3C//DTD SVG 1.1//EN" "http://www.w3.org/Graphics/SVG/1.1/DTD/svg11.dtd"><svg t="1700462628610" class="icon" viewBox="0 0 1024 1024" version="1.1" xmlns="http://www.w3.org/2000/svg" p-id="12593" xmlns:xlink="http://www.w3.org/1999/xlink" width="200" height="200"><path d="M584.156 83.34a35.396 35.396 0 0 0-29.824-23.408 458.62 458.62 0 0 0-84.656 0.052 35.344 35.344 0 0 0-29.784 23.372 818.576 818.576 0 0 0-18.724 60.412 35.384 35.384 0 0 1-23.26 24.576 355.056 355.056 0 0 0-48.256 19.936 35.344 35.344 0 0 1-33.776-0.932 874.168 874.168 0 0 0-55.964-29.48 35.396 35.396 0 0 0-37.644 4.54 458.712 458.712 0 0 0-59.82 59.896 35.336 35.336 0 0 0-4.532 37.588 818.32 818.32 0 0 0 29.476 55.956 35.392 35.392 0 0 1 0.932 33.828 355.12 355.12 0 0 0-20.028 48.216 35.332 35.332 0 0 1-24.54 23.224 874.368 874.368 0 0 0-60.416 18.728 35.396 35.396 0 0 0-23.408 29.824c-2.584 28.16-2.584 56.504 0.052 84.656a35.344 35.344 0 0 0 23.372 29.784 818.576 818.576 0 0 0 60.412 18.724 35.384 35.384 0 0 1 24.576 23.26 355.056 355.056 0 0 0 19.936 48.256 35.344 35.344 0 0 1-0.932 33.776 874.168 874.168 0 0 0-29.48 55.964 35.396 35.396 0 0 0 4.54 37.644 458.712 458.712 0 0 0 59.896 59.82 35.336 35.336 0 0 0 37.588 4.532 818.32 818.32 0 0 0 55.956-29.476 35.392 35.392 0 0 1 33.828-0.932 355.12 355.12 0 0 0 48.216 20.028 35.332 35.332 0 0 1 23.224 24.54 874.368 874.368 0 0 0 18.728 60.416 35.396 35.396 0 0 0 29.824 23.408c28.16 2.584 56.504 2.584 84.656-0.052a35.344 35.344 0 0 0 29.784-23.372 818.576 818.576 0 0 0 18.724-60.412 35.384 35.384 0 0 1 23.26-24.576 355.056 355.056 0 0 0 48.256-19.936 35.344 35.344 0 0 1 33.776 0.932 874.168 874.168 0 0 0 55.964 29.48 35.396 35.396 0 0 0 37.644-4.54 458.712 458.712 0 0 0 59.82-59.896 35.336 35.336 0 0 0 4.532-37.588 818.32 818.32 0 0 0-29.476-55.956 35.392 35.392 0 0 1-0.932-33.828 355.12 355.12 0 0 0 20.028-48.216 35.332 35.332 0 0 1 24.54-23.224 874.368 874.368 0 0 0 60.416-18.728 35.396 35.396 0 0 0 23.408-29.824c2.584-28.16 2.584-56.504-0.052-84.656a35.344 35.344 0 0 0-23.372-29.784 818.576 818.576 0 0 0-60.412-18.724 35.384 35.384 0 0 1-24.576-23.26 355.056 355.056 0 0 0-19.936-48.256 35.344 35.344 0 0 1 0.932-33.776 874.168 874.168 0 0 0 29.48-55.964 35.396 35.396 0 0 0-4.54-37.644 458.712 458.712 0 0 0-59.896-59.82 35.336 35.336 0 0 0-37.588-4.532 818.32 818.32 0 0 0-55.956 29.476 35.392 35.392 0 0 1-33.828 0.932 355.12 355.12 0 0 0-48.216-20.028 35.332 35.332 0 0 1-23.224-24.54 874.368 874.368 0 0 0-18.728-60.416zM512 285.24c125.152 0 226.76 101.608 226.76 226.76 0 125.152-101.608 226.76-226.76 226.76-125.152 0-226.76-101.608-226.76-226.76 0-125.152 101.608-226.76 226.76-226.76z" fill="#AFBCCB" p-id="12594"></path><path d="M837.2 195.196l-159.3 162.28C636.492 313.044 577.468 285.24 512 285.24c-125.152 0-226.76 101.608-226.76 226.76 0 66.976 29.1 127.212 75.336 168.736l-159.292 162.276a460.184 460.184 0 0 1-38.876-41.28 35.396 35.396 0 0 1-4.54-37.644 874.168 874.168 0 0 1 29.48-55.964 35.344 35.344 0 0 0 0.932-33.776 355.056 355.056 0 0 1-19.936-48.256 35.384 35.384 0 0 0-24.576-23.26 818.576 818.576 0 0 1-60.412-18.724 35.344 35.344 0 0 1-23.372-29.784 458.62 458.62 0 0 1-0.052-84.656 35.396 35.396 0 0 1 23.408-29.824 874.368 874.368 0 0 1 60.416-18.728 35.332 35.332 0 0 0 24.54-23.224 355.12 355.12 0 0 1 20.028-48.216 35.392 35.392 0 0 0-0.932-33.828 818.32 818.32 0 0 1-29.476-55.956 35.336 35.336 0 0 1 4.532-37.588 458.712 458.712 0 0 1 59.82-59.896 35.396 35.396 0 0 1 37.644-4.54 874.168 874.168 0 0 1 55.964 29.48 35.344 35.344 0 0 0 33.776 0.932 355.056 355.056 0 0 1 48.256-19.936 35.384 35.384 0 0 0 23.26-24.576 818.576 818.576 0 0 1 18.724-60.412 35.344 35.344 0 0 1 29.784-23.372 458.62 458.62 0 0 1 84.656-0.052 35.396 35.396 0 0 1 29.824 23.408 874.368 874.368 0 0 1 18.728 60.416 35.332 35.332 0 0 0 23.224 24.54 355.12 355.12 0 0 1 48.216 20.028 35.392 35.392 0 0 0 33.828-0.932 818.32 818.32 0 0 1 55.956-29.476 35.336 35.336 0 0 1 37.588 4.532 456.856 456.856 0 0 1 35.504 32.748z" fill="#CCD2DB" p-id="12595"></path><path d="M512 512m-280 0a280 280 0 1 0 560 0 280 280 0 1 0-560 0Z" fill="#9CA9BC" p-id="12596"></path><path d="M512 512m-216 0a216 216 0 1 0 432 0 216 216 0 1 0-432 0Z" fill="#53627B" p-id="12597"></path><path d="M512 512m-184 0a184 184 0 1 0 368 0 184 184 0 1 0-368 0Z" fill="#606F8E" p-id="12598"></path><path d="M329.304 490.012c5.216-43.736 25.8-82.784 56.196-111.58 26.96 41.272 73.568 68.564 126.5 68.564s99.54-27.292 126.5-68.564c30.472 28.872 51.084 68.044 56.236 111.916-78.56 5.284-140.736 70.764-140.736 150.656 0 16.832 2.76 33.024 7.852 48.152A183.856 183.856 0 0 1 512 696a184.36 184.36 0 0 1-41.588-4.728 150.54 150.54 0 0 0 8.584-50.268c0-82.904-66.956-150.292-149.692-150.992z" fill="#8292A7" p-id="12599"></path><path d="M461.98 571.344c-25.008-47.956-75.008-80.844-132.676-81.332 5.216-43.736 25.8-82.784 56.196-111.58 26.96 41.272 73.568 68.564 126.5 68.564s99.54-27.292 126.5-68.564a182.54 182.54 0 0 1 7.94 7.996l-184.46 184.916z" fill="#9AA9BE" p-id="12600"></path><path d="M512.02 515.992m-38 0a38 38 0 1 0 76 0 38 38 0 1 0-76 0Z" fill="#54647E" p-id="12601"></path></svg>