<?xml version="1.0" standalone="no"?><!DOCTYPE svg PUBLIC "-//W3C//DTD SVG 1.1//EN" "http://www.w3.org/Graphics/SVG/1.1/DTD/svg11.dtd"><svg class="icon" width="200px" height="200.00px" viewBox="0 0 1024 1024" version="1.1" xmlns="http://www.w3.org/2000/svg"><path d="M512 162v699.9H182c-4.6 0-9.2-0.4-13.7-1.1-1.1-0.2-2.3-0.4-3.4-0.6-0.1 0-0.2 0-0.3-0.1h-0.1c-0.3-0.1-0.7-0.2-1-0.2-0.1 0-0.2-0.1-0.4-0.1-0.1 0-0.1 0-0.2-0.1-0.1 0-0.2 0-0.3-0.1-0.2 0-0.4-0.1-0.5-0.1h-0.1c-0.6-0.2-1.2-0.3-1.9-0.5-0.4-0.1-0.8-0.2-1.1-0.3-0.1 0-0.3-0.1-0.4-0.1H158.3h-0.2c-0.7-0.2-1.3-0.4-2-0.6-0.7-0.2-1.4-0.5-2.1-0.7-0.7-0.2-1.3-0.5-2-0.7-0.1 0-0.2 0-0.2-0.1-25.6-9.8-46-31.6-54.9-59-1.6-4.8-2.8-9.8-3.6-14.9-0.3-1.7-0.5-3.5-0.7-5.2-0.2-1.6-0.3-3.2-0.4-4.9 0-0.4 0-0.8-0.1-1.2v-0.3-0.8-0.6V768.7v-0.4-510.6c0-52.6 40.5-95.7 90-95.7H512z" fill="#F4EFE9" /><path d="M64.9 863.8c4.4-0.3 8.9-0.7 13.5-1.1v14.6l-13.5-13.5z" fill="#FCF6F6" /><path d="M512 488.3v373.6H182c-4.6 0-9.2-0.4-13.7-1.1-1.1-0.2-2.3-0.4-3.4-0.6-0.1 0-0.2 0-0.3-0.1h-0.1c-0.6-0.1-1.1-0.3-1.7-0.4-1.3-0.3-2.6-0.6-3.9-1-0.2 0-0.4-0.1-0.6-0.2h-0.1-0.2c-0.7-0.2-1.3-0.4-2-0.6-0.7-0.2-1.4-0.5-2.1-0.7-0.7-0.2-1.3-0.5-2-0.7-0.1 0-0.2 0-0.2-0.1-25.6-9.8-46-31.6-54.9-59-1.6-4.8-2.8-9.8-3.6-14.9-0.3-1.7-0.5-3.5-0.7-5.2-0.2-1.6-0.3-3.2-0.4-4.9 0-0.4 0-0.8-0.1-1.2v-0.3-0.8-0.6V768.6v-0.4-158.1c19.2-9.6 58.5-27.8 118-48.3 0.1 0 0.1-0.1 0.2-0.1 71.6-24.7 172.3-52.8 301.8-73.4z" fill="#ED9507" /><path d="M512 600.2v216.2c-122.7 17.2-256.1 30.8-360 40h-0.2c-25.6-9.8-46-31.6-54.9-59-1.6-4.9-2.8-9.9-3.6-15-0.3-1.7-0.5-3.5-0.7-5.2-0.2-1.6-0.3-3.2-0.4-4.9 0-0.4 0-0.8-0.1-1.2v-0.3-0.8-0.6V768.5v-0.4-217.6c30.2 2.6 70.9 6.4 118 11.3h0.2c87.7 9 197.6 21.9 301.7 38.4z" fill="#F0E203" /><path d="M512 703.4v158.5H182c-4.6 0-9.2-0.4-13.7-1.1-1.1-0.2-2.3-0.4-3.4-0.6-0.1 0-0.2 0-0.3-0.1h-0.1c-0.3-0.1-0.7-0.2-1-0.2-0.1 0-0.2-0.1-0.4-0.1-0.1 0-0.1 0-0.2-0.1H162.6c-0.2 0-0.4-0.1-0.5-0.1h-0.1c-0.6-0.2-1.2-0.3-1.9-0.5-0.4-0.1-0.8-0.2-1.1-0.3-0.1 0-0.3-0.1-0.4-0.1H158.3h-0.2c-0.7-0.2-1.3-0.4-2-0.6-0.7-0.2-1.4-0.5-2.1-0.7-0.7-0.2-1.3-0.5-2-0.7-0.1 0-0.2 0-0.2-0.1-25.6-9.8-46-31.6-54.9-59-1.6-4.8-2.8-9.8-3.6-14.9-0.3-1.7-0.5-3.5-0.7-5.2-0.2-1.6-0.3-3.2-0.4-4.9 0-0.4 0-0.8-0.1-1.2v-0.3-0.8-0.6V768.8v-0.4-4.4c135.8-25.9 295.8-43.7 419.9-60.6z" fill="#FFFF78" /><path d="M300.5 328.5m-79.8 0a79.8 79.8 0 1 0 159.6 0 79.8 79.8 0 1 0-159.6 0Z" fill="#E73F5F" /><path d="M932 257.7v201.7c-163.3-1.9-303.3 10.5-420 28.9V162h330c49.5 0 90 43.1 90 95.7z" fill="#E0D6CD" /><path d="M932 459.4v138.1c-36.3 20.8-99.7 41-166.4 57.9-0.1 0-0.1 0-0.2 0.1-23.8-7.9-51.3-15.4-81.4-22.5-51.6-12.2-110.8-23.1-172-32.8V488.3c116.7-18.4 256.7-30.8 420-28.9z" fill="#EA650A" /><path d="M765.4 655.5C707.9 670 648 682.2 600.5 690.2c-26.4 4.4-56.2 8.8-88.5 13.2V600.2c61.2 9.7 120.4 20.7 172 32.8 30 7.1 57.6 14.6 81.4 22.5z" fill="#EFB206" /><path d="M932 597.5v168.7c0 52.6-40.5 95.7-90 95.7H512V703.4c32.3-4.4 62.1-8.8 88.5-13.2 47.5-8 107.4-20.2 164.9-34.7 0.1 0 0.2 0 0.2-0.1 66.7-16.9 130.1-37.1 166.4-57.9z" fill="#F0E203" /></svg>