<?xml version="1.0" standalone="no"?><!DOCTYPE svg PUBLIC "-//W3C//DTD SVG 1.1//EN" "http://www.w3.org/Graphics/SVG/1.1/DTD/svg11.dtd"><svg class="icon" width="200px" height="200.00px" viewBox="0 0 1024 1024" version="1.1" xmlns="http://www.w3.org/2000/svg"><path d="M288.3 425.9m-53.2 0a53.2 53.2 0 1 0 106.4 0 53.2 53.2 0 1 0-106.4 0Z" fill="#F0E203" /><path d="M152.5 279.8m-53.2 0a53.2 53.2 0 1 0 106.4 0 53.2 53.2 0 1 0-106.4 0Z" fill="#F0E203" /><path d="M792.7 183.5m-53.2 0a53.2 53.2 0 1 0 106.4 0 53.2 53.2 0 1 0-106.4 0Z" fill="#3F1E01" /><path d="M500.7 893.5m-53.2 0a53.2 53.2 0 1 0 106.4 0 53.2 53.2 0 1 0-106.4 0Z" fill="#F0E203" /><path d="M152.5 794m-53.2 0a53.2 53.2 0 1 0 106.4 0 53.2 53.2 0 1 0-106.4 0Z" fill="#F0E203" /><path d="M753 711c0 29.3-23.9 53.2-53.2 53.2s-53.2-23.9-53.2-53.2 23.9-53.2 53.2-53.2h0.1c29.3 0.2 53.1 24 53.1 53.2z" fill="#3F1E01" /><path d="M824.003175 929.417702a53.2 53.2 0 1 0 17.046187-105.025652 53.2 53.2 0 1 0-17.046187 105.025652Z" fill="#3F1E01" /><path d="M553.9 130.5c0 29.3-23.9 53.2-53.2 53.2s-53.2-23.9-53.2-53.2 23.9-53.2 53.2-53.2h0.1c29.3 0.2 53.1 24 53.1 53.2z" fill="#F0E203" /><path d="M952 594.9c0 29.3-23.9 53.2-53.2 53.2s-53.2-23.9-53.2-53.2c0-29.3 23.9-53.2 53.2-53.2h0.1c29.3 0.2 53.1 24 53.1 53.2z" fill="#3F1E01" /><path d="M875.2 466.1c-4.2 4.9-70.1 81.4-199.1 145.5-55.4 27.5-114.1 48.6-175.4 62.9-23.2 5.4-46.8 9.9-70.7 13.4-42.6 6.1-86.1 9.2-130.5 9.2-68.7 0-139.5-7.4-211.5-22.3-10.8-2.2-17.8-12.8-15.5-23.6 2.2-10.8 12.8-17.8 23.6-15.5 113.5 23.4 223.4 27.7 326.8 12.8 26.4-3.8 52.3-8.8 77.8-15.1C555 620 607.2 601 656.5 576.6c123.7-61 187.6-135.7 188.2-136.4 0.1-0.1 0.1-0.2 0.2-0.2 28.8-33.1 25.3-83.4-7.8-112.2-33.1-28.8-83.4-25.3-112.2 7.8-15.1 17.3-21.9 40.4-18.7 63.3 1.6 10.9-6.1 21.1-17 22.6-10.9 1.6-21.1-6.1-22.6-17-4.9-34.4 5.4-69.1 28.1-95.2 43.2-49.7 118.9-55 168.6-11.7 49.7 43.2 55 118.8 11.9 168.5z" fill="#F0E203" /><path d="M602.4 446.1c-8.1 30.2-27.3 55.5-54 71.5-5.1 4.2-20.1 15.2-47.7 26.8-40.2 17-107.4 35.2-210.3 35.2-49.5 0-107.2-4.2-174.2-14.8-10.9-1.7-18.4-12-16.6-22.9 1.7-10.9 12-18.4 22.9-16.6C279.1 550 380 538 437 523.5c28.9-7.3 49.8-16 63.7-23.1 14.8-7.6 21.8-13.4 22.6-14.1 1.1-1.1 2.1-1.7 3.5-2.5 18.4-10.6 31.5-27.7 37-48.2s2.7-42-7.9-60.4c-10.6-18.4-27.7-31.5-48.2-37-2.3-0.6-4.7-1.1-7-1.5-18.3-3.2-37.1 0-53.4 9.4-19.9 11.4-33.8 30.9-38.3 53.5-2.2 10.8-12.7 17.9-23.5 15.7s-17.9-12.7-15.7-23.5c6.7-33.9 27.7-63.2 57.5-80.3 22.5-13 48-18.2 73.4-15.2 5.8 0.7 11.6 1.8 17.3 3.3 30.8 8.3 56.6 28.1 72.5 55.7 16 27.6 20.2 59.9 11.9 90.8z" fill="#F0E203" /><path d="M553.9 893.5c0 29.3-23.9 53.2-53.2 53.2V840.3c29.3 0 53.2 23.9 53.2 53.2zM500.7 183.7V77.3h0.1c29.3 0.2 53.1 24 53.1 53.2 0 29.3-23.9 53.2-53.2 53.2zM602.4 446.1c-8.1 30.2-27.3 55.5-54 71.5-5.1 4.2-20.1 15.2-47.7 26.8v-44.1c14.8-7.6 21.8-13.4 22.6-14.1 1.1-1.1 2.1-1.7 3.5-2.5 18.4-10.6 31.5-27.7 37-48.2s2.7-42-7.9-60.4c-10.6-18.4-27.7-31.5-48.2-37-2.3-0.6-4.7-1.1-7-1.5v-40.4c5.8 0.7 11.6 1.8 17.3 3.3 30.8 8.3 56.6 28.1 72.5 55.7 16 27.7 20.2 60 11.9 90.9zM753 711c0 29.3-23.9 53.2-53.2 53.2s-53.2-23.9-53.2-53.2 23.9-53.2 53.2-53.2h0.1c29.3 0.2 53.1 24 53.1 53.2z" fill="#ED9507" /><path d="M792.7 183.5m-53.2 0a53.2 53.2 0 1 0 106.4 0 53.2 53.2 0 1 0-106.4 0Z" fill="#ED9507" /><path d="M824.003175 929.417702a53.2 53.2 0 1 0 17.046187-105.025652 53.2 53.2 0 1 0-17.046187 105.025652Z" fill="#ED9507" /><path d="M676.1 611.6c-55.4 27.5-114.1 48.6-175.4 62.9v-41.1C555 620 607.2 601 656.5 576.6c123.7-61 187.6-135.7 188.2-136.4 0.1-0.1 0.1-0.2 0.2-0.2 28.8-33.1 25.3-83.4-7.8-112.2-33.1-28.8-83.4-25.3-112.2 7.8-15.1 17.3-21.9 40.4-18.7 63.3 1.6 10.9-6.1 21.1-17 22.6-10.9 1.6-21.1-6.1-22.6-17-4.9-34.4 5.4-69.1 28.1-95.2 43.2-49.7 118.9-55 168.6-11.7 49.7 43.2 55 118.8 11.9 168.5-4.2 4.9-70.1 81.4-199.1 145.5zM952 594.9c0 29.3-23.9 53.2-53.2 53.2s-53.2-23.9-53.2-53.2c0-29.3 23.9-53.2 53.2-53.2h0.1c29.3 0.2 53.1 24 53.1 53.2z" fill="#ED9507" /></svg>