<?xml version="1.0" standalone="no"?><!DOCTYPE svg PUBLIC "-//W3C//DTD SVG 1.1//EN" "http://www.w3.org/Graphics/SVG/1.1/DTD/svg11.dtd"><svg class="icon" width="200px" height="200.00px" viewBox="0 0 1024 1024" version="1.1" xmlns="http://www.w3.org/2000/svg"><path d="M769.7 512c0 68.8-26.8 133.5-75.5 182.2S580.8 769.7 512 769.7s-133.5-26.8-182.2-75.5-75.5-113.4-75.5-182.2 26.8-133.5 75.5-182.2 113.4-75.5 182.2-75.5 133.5 26.8 182.2 75.5 75.5 113.4 75.5 182.2zM409.2 205.6c2.4 8.9 10.5 14.8 19.3 14.8 1.7 0 3.5-0.2 5.2-0.7 10.6-2.9 17-13.8 14.1-24.5l-26.4-98.4c-2.9-10.6-13.8-17-24.5-14.1-10.6 2.9-17 13.8-14.1 24.5l26.4 98.4zM269.8 298c3.9 3.9 9 5.9 14.1 5.9s10.2-2 14.2-5.9c7.8-7.8 7.8-20.5 0-28.3l-72-72c-7.8-7.8-20.5-7.8-28.3 0-7.8 7.8-7.8 20.5 0 28.3l72 72zM96.8 421.4l98.4 26.4c1.7 0.5 3.5 0.7 5.2 0.7 8.8 0 16.9-5.9 19.3-14.8 2.9-10.7-3.4-21.6-14.1-24.5l-98.4-26.4c-10.7-2.9-21.6 3.4-24.5 14.1-2.9 10.7 3.4 21.6 14.1 24.5zM219.7 590.3c-2.9-10.6-13.8-17-24.5-14.1l-98.4 26.4c-10.6 2.9-17 13.8-14.1 24.5 2.4 8.9 10.5 14.8 19.3 14.8 1.7 0 3.4-0.3 5.2-0.7l98.4-26.4c10.6-2.9 17-13.8 14.1-24.5zM269.8 725.9l-72 72c-7.8 7.8-7.8 20.5 0 28.3 3.9 3.9 9 5.9 14.1 5.9s10.2-1.9 14.2-5.9l72-72c7.8-7.8 7.8-20.5 0-28.3s-20.5-7.8-28.3 0zM433.8 804.3c-10.7-2.9-21.6 3.4-24.5 14.1l-26.4 98.4c-2.9 10.7 3.4 21.6 14.1 24.5 1.7 0.5 3.5 0.7 5.2 0.7 8.8 0 16.9-5.9 19.3-14.8l26.4-98.4c2.9-10.7-3.4-21.6-14.1-24.5z" fill="#F0E203" /><path d="M641.1 916.8c2.9 10.7-3.5 21.6-14.1 24.5-1.7 0.5-3.4 0.7-5.2 0.7-8.8 0-16.9-5.9-19.3-14.8l-26.4-98.4c-2.9-10.7 3.5-21.6 14.1-24.5 10.7-2.9 21.6 3.5 24.5 14.1l26.4 98.4zM576.2 195.2l26.4-98.4c2.9-10.7 13.8-17 24.5-14.1 10.7 2.9 17 13.8 14.1 24.5l-26.4 98.4c-2.4 8.9-10.5 14.8-19.3 14.8-1.7 0-3.5-0.2-5.2-0.7-10.7-2.9-17-13.8-14.1-24.5zM769.7 512c0 68.8-26.8 133.5-75.5 182.2S580.8 769.7 512 769.7V254.3c68.8 0 133.5 26.8 182.2 75.5s75.5 113.4 75.5 182.2zM826.3 797.9c7.8 7.8 7.8 20.5 0 28.3-3.9 4-9 5.9-14.2 5.9-5.1 0-10.2-2-14.1-5.9l-72-72c-7.8-7.8-7.8-20.5 0-28.3 7.8-7.8 20.5-7.8 28.3 0l72 72zM726 298c-7.8-7.8-7.8-20.5 0-28.3l72-72c7.8-7.8 20.5-7.8 28.3 0s7.8 20.5 0 28.3l-72 72c-4 3.9-9.1 5.9-14.2 5.9s-10.2-2-14.1-5.9zM941.3 627.1c-2.4 8.9-10.5 14.8-19.3 14.8-1.7 0-3.5-0.2-5.2-0.7l-98.4-26.4c-10.7-2.9-17-13.8-14.1-24.5 2.9-10.7 13.8-17 24.5-14.1l98.4 26.4c10.7 2.9 17 13.8 14.1 24.5zM818.4 409.2l98.4-26.4c10.7-2.9 21.6 3.5 24.5 14.1 2.9 10.6-3.5 21.6-14.1 24.5l-98.4 26.4c-1.8 0.5-3.5 0.7-5.2 0.7-8.8 0-16.9-5.9-19.3-14.8-2.9-10.7 3.5-21.6 14.1-24.5z" fill="#ED9507" /></svg>