<?xml version="1.0" standalone="no"?><!DOCTYPE svg PUBLIC "-//W3C//DTD SVG 1.1//EN" "http://www.w3.org/Graphics/SVG/1.1/DTD/svg11.dtd"><svg class="icon" width="200px" height="200.00px" viewBox="0 0 1024 1024" version="1.1" xmlns="http://www.w3.org/2000/svg"><path d="M213.2 693.5c-0.6 0-1.3 0-2-0.1-0.6-0.1-1.3-0.2-1.9-0.3-0.6-0.1-1.3-0.3-1.9-0.5-0.6-0.2-1.2-0.4-1.8-0.7s-1.2-0.5-1.8-0.8-1.1-0.6-1.7-1c-0.5-0.4-1.1-0.8-1.6-1.2s-1-0.9-1.5-1.3c-0.5-0.5-0.9-1-1.3-1.5s-0.8-1-1.2-1.6c-0.4-0.5-0.7-1.1-1-1.7-0.3-0.6-0.6-1.2-0.8-1.8s-0.5-1.2-0.7-1.8-0.4-1.3-0.5-1.9c-0.1-0.6-0.2-1.3-0.3-1.9-0.1-0.7-0.1-1.3-0.1-2s0-1.3 0.1-2c0.1-0.6 0.2-1.3 0.3-1.9s0.3-1.3 0.5-1.9c0.2-0.6 0.4-1.2 0.7-1.8 0.2-0.6 0.5-1.2 0.8-1.8s0.6-1.1 1-1.7c0.4-0.5 0.8-1.1 1.2-1.6s0.9-1 1.3-1.5c0.5-0.5 0.9-0.9 1.5-1.3 0.5-0.4 1-0.8 1.6-1.2 0.5-0.4 1.1-0.7 1.7-1 0.6-0.3 1.2-0.6 1.8-0.8s1.2-0.5 1.8-0.7 1.3-0.4 1.9-0.5c0.6-0.1 1.3-0.2 1.9-0.3 1.3-0.1 2.6-0.1 3.9 0 0.6 0.1 1.3 0.2 1.9 0.3s1.3 0.3 1.9 0.5c0.6 0.2 1.2 0.4 1.8 0.7 0.6 0.2 1.2 0.5 1.8 0.8s1.1 0.6 1.7 1c0.5 0.4 1.1 0.8 1.6 1.2s1 0.9 1.5 1.3 0.9 1 1.3 1.5 0.8 1 1.2 1.6c0.4 0.5 0.7 1.1 1 1.7 0.3 0.6 0.6 1.2 0.8 1.8s0.5 1.2 0.7 1.8 0.4 1.3 0.5 1.9c0.1 0.6 0.2 1.3 0.3 1.9 0.1 0.7 0.1 1.3 0.1 2 0 0.6 0 1.3-0.1 2-0.1 0.6-0.2 1.3-0.3 1.9-0.1 0.6-0.3 1.3-0.5 1.9-0.2 0.6-0.4 1.2-0.7 1.8-0.2 0.6-0.5 1.2-0.8 1.8s-0.6 1.1-1 1.7c-0.4 0.5-0.8 1.1-1.2 1.6s-0.9 1-1.3 1.5-1 0.9-1.5 1.3-1 0.8-1.6 1.2c-0.5 0.4-1.1 0.7-1.7 1-0.6 0.3-1.2 0.6-1.8 0.8s-1.2 0.5-1.8 0.7-1.3 0.3-1.9 0.5c-0.6 0.1-1.3 0.2-1.9 0.3s-1.3 0.1-1.9 0.1zM523.9 673.4c0 0.6 0 1.3-0.1 2-0.1 0.6-0.2 1.3-0.3 1.9-0.1 0.6-0.3 1.3-0.5 1.9-0.2 0.6-0.4 1.2-0.7 1.8-0.2 0.6-0.5 1.2-0.8 1.8-0.3 0.6-0.6 1.1-1 1.7-0.4 0.5-0.8 1.1-1.2 1.6-0.4 0.5-0.9 1-1.3 1.5s-1 0.9-1.5 1.3-1 0.8-1.6 1.2c-0.5 0.4-1.1 0.7-1.7 1-0.6 0.3-1.2 0.6-1.8 0.8-0.6 0.2-1.2 0.5-1.8 0.7-0.6 0.2-1.3 0.3-1.9 0.5-0.6 0.1-1.3 0.2-1.9 0.3-0.6 0.1-1.3 0.1-1.9 0.1h-0.1c-0.6 0-1.3 0-1.9-0.1-0.6-0.1-1.3-0.2-1.9-0.3-0.6-0.1-1.3-0.3-1.9-0.5-0.6-0.2-1.2-0.4-1.8-0.7-0.6-0.2-1.2-0.5-1.8-0.8-0.6-0.3-1.1-0.6-1.7-1-0.5-0.4-1.1-0.8-1.6-1.2-0.5-0.4-1-0.9-1.5-1.3s-0.9-1-1.3-1.5-0.8-1-1.2-1.6c-0.4-0.5-0.7-1.1-1-1.7-0.3-0.6-0.6-1.2-0.8-1.8-0.2-0.6-0.5-1.2-0.7-1.8-0.2-0.6-0.4-1.3-0.5-1.9-0.1-0.6-0.2-1.3-0.3-1.9-0.1-0.7-0.1-1.3-0.1-2s0-1.3 0.1-2c0.1-0.6 0.2-1.3 0.3-1.9 0.1-0.6 0.3-1.3 0.5-1.9 0.2-0.6 0.4-1.2 0.7-1.8 0.2-0.6 0.5-1.2 0.8-1.8s0.6-1.1 1-1.7c0.4-0.5 0.8-1.1 1.2-1.6 0.4-0.5 0.9-1 1.3-1.5s1-0.9 1.5-1.3 1-0.8 1.6-1.2c0.5-0.4 1.1-0.7 1.7-1s1.2-0.6 1.8-0.8c0.6-0.2 1.2-0.5 1.8-0.7 0.6-0.2 1.3-0.4 1.9-0.5 0.6-0.1 1.3-0.2 1.9-0.3 0.6-0.1 1.3-0.1 1.9-0.1 0.7 0 1.3 0 2 0.1s1.3 0.2 1.9 0.3c0.6 0.1 1.3 0.3 1.9 0.5 0.6 0.2 1.2 0.4 1.8 0.7 0.6 0.2 1.2 0.5 1.8 0.8 0.6 0.3 1.1 0.6 1.7 1 0.5 0.4 1.1 0.8 1.6 1.2 0.5 0.4 1 0.9 1.5 1.3s0.9 1 1.3 1.5 0.8 1 1.2 1.6c0.4 0.5 0.7 1.1 1 1.7s0.6 1.2 0.8 1.8c0.2 0.6 0.5 1.2 0.7 1.8 0.2 0.6 0.3 1.3 0.5 1.9s0.2 1.3 0.3 1.9c0.1 0.7 0.1 1.3 0.1 2z" fill="#07DBFF" /><path d="M794.7 693.5c-0.7 0-1.3 0-2-0.1-0.6-0.1-1.3-0.2-1.9-0.3-0.6-0.1-1.3-0.3-1.9-0.5-0.6-0.2-1.2-0.4-1.8-0.7s-1.2-0.5-1.8-0.8-1.1-0.6-1.7-1c-0.5-0.4-1.1-0.8-1.6-1.2s-1-0.9-1.5-1.3-0.9-1-1.3-1.5-0.8-1-1.2-1.6c-0.4-0.5-0.7-1.1-1-1.7-0.3-0.6-0.6-1.2-0.8-1.8s-0.5-1.2-0.7-1.8-0.3-1.3-0.5-1.9c-0.1-0.6-0.2-1.3-0.3-1.9-0.1-0.7-0.1-1.3-0.1-2s0-1.3 0.1-2c0.1-0.6 0.2-1.3 0.3-1.9 0.1-0.6 0.3-1.3 0.5-1.9 0.2-0.6 0.4-1.2 0.7-1.8 0.2-0.6 0.5-1.2 0.8-1.8s0.6-1.1 1-1.7c0.4-0.5 0.8-1.1 1.2-1.6s0.9-1 1.3-1.5 1-0.9 1.5-1.3 1-0.8 1.6-1.2c0.5-0.4 1.1-0.7 1.7-1 0.6-0.3 1.2-0.6 1.8-0.8s1.2-0.5 1.8-0.7 1.3-0.4 1.9-0.5c0.6-0.1 1.3-0.2 1.9-0.3 1.3-0.1 2.6-0.1 3.9 0 0.6 0.1 1.3 0.2 1.9 0.3 0.6 0.1 1.3 0.3 1.9 0.5 0.6 0.2 1.2 0.4 1.8 0.7 0.6 0.2 1.2 0.5 1.8 0.8s1.1 0.6 1.7 1c0.5 0.4 1.1 0.8 1.6 1.2s1 0.9 1.5 1.3 0.9 1 1.3 1.5 0.8 1 1.2 1.6c0.4 0.5 0.7 1.1 1 1.7 0.3 0.6 0.6 1.2 0.8 1.8s0.5 1.2 0.7 1.8 0.3 1.3 0.5 1.9c0.1 0.6 0.2 1.3 0.3 1.9 0.1 0.7 0.1 1.3 0.1 2 0 0.6 0 1.3-0.1 2-0.1 0.6-0.2 1.3-0.3 1.9-0.1 0.6-0.3 1.3-0.5 1.9-0.2 0.6-0.4 1.2-0.7 1.8-0.2 0.6-0.5 1.2-0.8 1.8s-0.6 1.1-1 1.7c-0.4 0.5-0.8 1.1-1.2 1.6s-0.9 1-1.3 1.5-1 0.9-1.5 1.3-1 0.8-1.6 1.2c-0.5 0.4-1.1 0.7-1.7 1-0.6 0.3-1.2 0.6-1.8 0.8s-1.2 0.5-1.8 0.7-1.3 0.3-1.9 0.5c-0.6 0.1-1.3 0.2-1.9 0.3s-1.3 0.1-1.9 0.1z" fill="#0BA8FF" /><path d="M213.2 952c-0.6 0-1.3 0-2-0.1-0.6-0.1-1.3-0.2-1.9-0.3-0.6-0.1-1.3-0.3-1.9-0.5-0.6-0.2-1.2-0.4-1.8-0.7s-1.2-0.5-1.8-0.8-1.1-0.6-1.7-1c-0.5-0.4-1.1-0.8-1.6-1.2s-1-0.9-1.5-1.3c-0.5-0.5-0.9-1-1.3-1.5s-0.8-1-1.2-1.6c-0.4-0.5-0.7-1.1-1-1.7-0.3-0.6-0.6-1.2-0.8-1.8s-0.5-1.2-0.7-1.8-0.4-1.3-0.5-1.9c-0.1-0.6-0.2-1.3-0.3-1.9-0.1-0.7-0.1-1.3-0.1-2s0-1.3 0.1-2c0.1-0.6 0.2-1.3 0.3-1.9 0.1-0.6 0.3-1.3 0.5-1.9 0.2-0.6 0.4-1.2 0.7-1.8 0.2-0.6 0.5-1.2 0.8-1.8s0.6-1.1 1-1.7c0.4-0.5 0.8-1.1 1.2-1.6s0.9-1 1.3-1.5c0.5-0.5 0.9-0.9 1.5-1.3 0.5-0.4 1-0.8 1.6-1.2 0.5-0.4 1.1-0.7 1.7-1 0.6-0.3 1.2-0.6 1.8-0.8s1.2-0.5 1.8-0.7 1.3-0.4 1.9-0.5c0.6-0.1 1.3-0.2 1.9-0.3 1.3-0.1 2.6-0.1 3.9 0 0.6 0.1 1.3 0.2 1.9 0.3s1.3 0.3 1.9 0.5c0.6 0.2 1.2 0.4 1.8 0.7 0.6 0.2 1.2 0.5 1.8 0.8s1.1 0.6 1.7 1c0.5 0.4 1.1 0.8 1.6 1.2s1 0.8 1.5 1.3 0.9 1 1.3 1.5 0.8 1 1.2 1.6c0.4 0.5 0.7 1.1 1 1.7 0.3 0.6 0.6 1.2 0.8 1.8s0.5 1.2 0.7 1.8 0.4 1.3 0.5 1.9c0.1 0.6 0.2 1.3 0.3 1.9 0.1 0.7 0.1 1.3 0.1 2 0 0.6 0 1.3-0.1 2-0.1 0.6-0.2 1.3-0.3 1.9-0.1 0.6-0.3 1.3-0.5 1.9-0.2 0.6-0.4 1.2-0.7 1.8-0.2 0.6-0.5 1.2-0.8 1.8s-0.6 1.1-1 1.7c-0.4 0.5-0.8 1.1-1.2 1.6s-0.9 1-1.3 1.5-1 0.9-1.5 1.3-1 0.8-1.6 1.2c-0.5 0.4-1.1 0.7-1.7 1-0.6 0.3-1.2 0.6-1.8 0.8s-1.2 0.5-1.8 0.7-1.3 0.3-1.9 0.5c-0.6 0.1-1.3 0.2-1.9 0.3s-1.3 0.1-1.9 0.1zM523.9 931.9c0 0.6 0 1.3-0.1 2-0.1 0.6-0.2 1.3-0.3 1.9-0.1 0.6-0.3 1.3-0.5 1.9-0.2 0.6-0.4 1.2-0.7 1.8-0.2 0.6-0.5 1.2-0.8 1.8-0.3 0.6-0.6 1.1-1 1.7-0.4 0.5-0.8 1.1-1.2 1.6-0.4 0.5-0.9 1-1.3 1.5s-1 0.9-1.5 1.3-1 0.8-1.6 1.2c-0.5 0.4-1.1 0.7-1.7 1-0.6 0.3-1.2 0.6-1.8 0.8-0.6 0.2-1.2 0.5-1.8 0.7-0.6 0.2-1.3 0.3-1.9 0.5-0.6 0.1-1.3 0.2-1.9 0.3-0.6 0.1-1.3 0.1-1.9 0.1h-0.1c-0.6 0-1.3 0-1.9-0.1-0.6-0.1-1.3-0.2-1.9-0.3-0.6-0.1-1.3-0.3-1.9-0.5-0.6-0.2-1.2-0.4-1.8-0.7-0.6-0.2-1.2-0.5-1.8-0.8-0.6-0.3-1.1-0.6-1.7-1-0.5-0.4-1.1-0.8-1.6-1.2-0.5-0.4-1-0.9-1.5-1.3s-0.9-1-1.3-1.5-0.8-1-1.2-1.6c-0.4-0.5-0.7-1.1-1-1.7-0.3-0.6-0.6-1.2-0.8-1.8-0.2-0.6-0.5-1.2-0.7-1.8-0.2-0.6-0.4-1.3-0.5-1.9-0.1-0.6-0.2-1.3-0.3-1.9-0.1-0.7-0.1-1.3-0.1-2s0-1.3 0.1-2c0.1-0.6 0.2-1.3 0.3-1.9 0.1-0.6 0.3-1.3 0.5-1.9 0.2-0.6 0.4-1.2 0.7-1.8 0.2-0.6 0.5-1.2 0.8-1.8s0.6-1.1 1-1.7c0.4-0.5 0.8-1.1 1.2-1.6 0.4-0.5 0.9-1 1.3-1.5 0.5-0.5 1-0.9 1.5-1.3s1-0.8 1.6-1.2c0.5-0.4 1.1-0.7 1.7-1s1.2-0.6 1.8-0.8c0.6-0.2 1.2-0.5 1.8-0.7 0.6-0.2 1.3-0.4 1.9-0.5 0.6-0.1 1.3-0.2 1.9-0.3 0.6-0.1 1.3-0.1 1.9-0.1 0.7 0 1.3 0 2 0.1 0.6 0.1 1.3 0.2 1.9 0.3 0.6 0.1 1.3 0.3 1.9 0.5 0.6 0.2 1.2 0.4 1.8 0.7 0.6 0.2 1.2 0.5 1.8 0.8 0.6 0.3 1.1 0.6 1.7 1 0.5 0.4 1.1 0.8 1.6 1.2 0.5 0.4 1 0.8 1.5 1.3s0.9 1 1.3 1.5 0.8 1 1.2 1.6c0.4 0.5 0.7 1.1 1 1.7s0.6 1.2 0.8 1.8c0.2 0.6 0.5 1.2 0.7 1.8 0.2 0.6 0.3 1.3 0.5 1.9 0.1 0.6 0.2 1.3 0.3 1.9 0.1 0.7 0.1 1.3 0.1 2z" fill="#07DBFF" /><path d="M794.7 952c-0.7 0-1.3 0-2-0.1-0.6-0.1-1.3-0.2-1.9-0.3-0.6-0.1-1.3-0.3-1.9-0.5-0.6-0.2-1.2-0.4-1.8-0.7s-1.2-0.5-1.8-0.8-1.1-0.6-1.7-1c-0.5-0.4-1.1-0.8-1.6-1.2s-1-0.9-1.5-1.3-0.9-1-1.3-1.5-0.8-1-1.2-1.6c-0.4-0.5-0.7-1.1-1-1.7-0.3-0.6-0.6-1.2-0.8-1.8s-0.5-1.2-0.7-1.8-0.3-1.3-0.5-1.9c-0.1-0.6-0.2-1.3-0.3-1.9-0.1-0.7-0.1-1.3-0.1-2s0-1.3 0.1-2c0.1-0.6 0.2-1.3 0.3-1.9 0.1-0.6 0.3-1.3 0.5-1.9 0.2-0.6 0.4-1.2 0.7-1.8 0.2-0.6 0.5-1.2 0.8-1.8s0.6-1.1 1-1.7c0.4-0.5 0.8-1.1 1.2-1.6s0.9-1 1.3-1.5c0.5-0.5 1-0.9 1.5-1.3s1-0.8 1.6-1.2c0.5-0.4 1.1-0.7 1.7-1 0.6-0.3 1.2-0.6 1.8-0.8s1.2-0.5 1.8-0.7 1.3-0.4 1.9-0.5c0.6-0.1 1.3-0.2 1.9-0.3 1.3-0.1 2.6-0.1 3.9 0 0.6 0.1 1.3 0.2 1.9 0.3 0.6 0.1 1.3 0.3 1.9 0.5 0.6 0.2 1.2 0.4 1.8 0.7 0.6 0.2 1.2 0.5 1.8 0.8s1.1 0.6 1.7 1c0.5 0.4 1.1 0.8 1.6 1.2s1 0.8 1.5 1.3 0.9 1 1.3 1.5 0.8 1 1.2 1.6c0.4 0.5 0.7 1.1 1 1.7 0.3 0.6 0.6 1.2 0.8 1.8s0.5 1.2 0.7 1.8 0.3 1.3 0.5 1.9c0.1 0.6 0.2 1.3 0.3 1.9 0.1 0.7 0.1 1.3 0.1 2 0 0.6 0 1.3-0.1 2-0.1 0.6-0.2 1.3-0.3 1.9-0.1 0.6-0.3 1.3-0.5 1.9-0.2 0.6-0.4 1.2-0.7 1.8-0.2 0.6-0.5 1.2-0.8 1.8s-0.6 1.1-1 1.7c-0.4 0.5-0.8 1.1-1.2 1.6s-0.9 1-1.3 1.5-1 0.9-1.5 1.3-1 0.8-1.6 1.2c-0.5 0.4-1.1 0.7-1.7 1-0.6 0.3-1.2 0.6-1.8 0.8s-1.2 0.5-1.8 0.7-1.3 0.3-1.9 0.5c-0.6 0.1-1.3 0.2-1.9 0.3s-1.3 0.1-1.9 0.1z" fill="#0BA8FF" /><path d="M459 802.7c3-1.1 5.5-3.5 6.4-6.9 1.4-5.3-1.7-10.8-7.1-12.2l-31.9-8.5 17.9-10.4c4.8-2.8 6.4-8.9 3.6-13.7s-8.9-6.4-13.7-3.6l-17.8 10.3L425 726c1.4-5.3-1.7-10.8-7.1-12.2-3.4-0.9-6.8 0-9.2 2.2 0.6-3.2-0.3-6.6-2.7-9.1-3.9-3.9-10.2-3.9-14.1 0l-23.3 23.3v-20.7c0-5.5-4.5-10-10-10s-10 4.5-10 10v20.6l-23.2-23.2c-3.9-3.9-10.2-3.9-14.1 0-2.5 2.5-3.4 5.9-2.7 9.1-2.4-2.1-5.8-3-9.2-2.2-5.3 1.4-8.5 6.9-7.1 12.2l8.5 31.8-17.8-10.3c-4.8-2.8-10.9-1.1-13.7 3.6-2.8 4.8-1.1 10.9 3.6 13.7l17.9 10.4-31.9 8.5c-5.3 1.4-8.5 6.9-7.1 12.2 0.9 3.3 3.4 5.8 6.4 6.9-3 1-5.5 3.5-6.4 6.8-1.4 5.3 1.7 10.8 7 12.3l31.8 8.6-17.8 10.3c-4.8 2.8-6.4 8.9-3.6 13.7 1.9 3.2 5.2 5 8.7 5 1.7 0 3.4-0.4 5-1.3l17.8-10.3-8.5 31.9c-1.4 5.3 1.7 10.8 7.1 12.2 0.9 0.2 1.7 0.3 2.6 0.3 2.4 0 4.8-0.9 6.6-2.5-0.6 3.1 0.3 6.5 2.8 8.9 2 2 4.5 2.9 7.1 2.9s5.1-1 7.1-2.9l23.2-23.2V896c0 5.5 4.5 10 10 10s10-4.5 10-10v-20.7l23.3 23.3c2 2 4.5 2.9 7.1 2.9s5.1-1 7.1-2.9c2.4-2.4 3.3-5.8 2.8-8.9 1.8 1.6 4.1 2.5 6.6 2.5 0.9 0 1.7-0.1 2.6-0.3 5.3-1.4 8.5-6.9 7.1-12.2l-8.5-31.9 17.8 10.3c1.6 0.9 3.3 1.3 5 1.3 3.5 0 6.8-1.8 8.7-5 2.8-4.8 1.1-10.9-3.6-13.7l-17.8-10.3 31.8-8.6c5.3-1.4 8.5-6.9 7.1-12.3-1.3-3.2-3.8-5.7-6.8-6.8z m-55 14.8l-25.5-14.7 25.4-14.7c1.3 1.4 3 2.5 5 3.1l43.4 11.6-43.4 11.7c-2 0.5-3.6 1.5-4.9 3z m-91 0c-1.3-1.4-2.9-2.5-4.9-3l-43.3-11.7 43.3-11.6c2-0.5 3.7-1.7 5-3.1l25.5 14.7-25.6 14.7z m60.7-64.2l31.8-31.8-11.6 43.4c-0.5 2-0.4 4 0.2 5.8l-25.5 14.7V756c1.8-0.3 3.6-1.3 5.1-2.7z m-30.3 0c1.4 1.4 3.2 2.3 5.1 2.7v29.4l-25.4-14.7c0.6-1.8 0.7-3.8 0.2-5.8l-11.6-43.4 31.7 31.8z m0 98.9L311.7 884l11.6-43.4c0.5-2 0.4-4-0.2-5.8l25.4-14.7v29.4c-1.9 0.4-3.6 1.3-5.1 2.7z m30.3 0c-1.5-1.5-3.3-2.4-5.2-2.7V820l25.5 14.7c-0.6 1.8-0.7 3.8-0.2 5.8l11.6 43.4-31.7-31.7z" fill="#07DBFF" /><path d="M756.1 809.6c-0.9-3.3-3.4-5.8-6.4-6.8 3-1.1 5.5-3.5 6.4-6.9 1.4-5.3-1.7-10.8-7.1-12.2l-31.8-8.5 17.9-10.4c4.8-2.8 6.4-8.9 3.6-13.7-2.8-4.8-8.9-6.4-13.7-3.6l-18 10.4 8.5-31.9c1.4-5.3-1.7-10.8-7.1-12.2-3.3-0.9-6.6 0-9.1 2 0.6-3.1-0.3-6.5-2.7-9-3.9-3.9-10.2-3.9-14.1 0l-23.3 23.3v-20.7c0-5.5-4.5-10-10-10s-10 4.5-10 10v20.7L616 706.8c-3.9-3.9-10.2-3.9-14.1 0-2.4 2.4-3.4 5.8-2.7 9-2.4-2.1-5.8-2.9-9.1-2-5.3 1.4-8.5 6.9-7.1 12.2l8.5 31.9-18-10.4c-4.8-2.8-10.9-1.1-13.7 3.6-2.8 4.8-1.1 10.9 3.6 13.7l17.9 10.4-31.8 8.5c-5.3 1.4-8.5 6.9-7.1 12.2 0.9 3.3 3.4 5.8 6.4 6.9-3 1-5.5 3.5-6.4 6.8-1.4 5.3 1.7 10.8 7 12.3l31.7 8.6-17.8 10.3c-4.8 2.8-6.4 8.9-3.6 13.7 1.9 3.2 5.2 5 8.7 5 1.7 0 3.4-0.4 5-1.3l18-10.4-8.5 32c-1.4 5.3 1.7 10.8 7.1 12.2 0.9 0.2 1.7 0.3 2.6 0.3 2.4 0 4.7-0.9 6.5-2.4-0.6 3.1 0.4 6.4 2.8 8.8 2 2 4.5 2.9 7.1 2.9s5.1-1 7.1-2.9l23.3-23.3V896c0 5.5 4.5 10 10 10s10-4.5 10-10v-20.7l23.3 23.3c2 2 4.5 2.9 7.1 2.9s5.1-1 7.1-2.9c2.4-2.4 3.3-5.7 2.8-8.8 1.8 1.5 4.1 2.4 6.5 2.4 0.9 0 1.7-0.1 2.6-0.3 5.3-1.4 8.5-6.9 7.1-12.2l-8.5-32 18 10.4c1.6 0.9 3.3 1.3 5 1.3 3.5 0 6.8-1.8 8.7-5 2.8-4.8 1.1-10.9-3.6-13.7l-17.8-10.3 31.7-8.6c4.9-1.4 8.1-6.9 6.7-12.2z m-61.3 7.9l-25.5-14.7 25.4-14.7c1.3 1.4 3 2.6 5 3.1l43.3 11.6-43.3 11.7c-2 0.5-3.6 1.6-4.9 3z m-91 0c-1.3-1.4-2.9-2.5-4.9-3l-43.3-11.7 43.3-11.6c2-0.5 3.7-1.6 5-3.1l25.4 14.7-25.5 14.7z m60.7-64.2l31.7-31.7-11.6 43.3c-0.5 2-0.4 4 0.2 5.8l-25.4 14.7V756c1.8-0.3 3.6-1.3 5.1-2.7z m-30.4 0c1.5 1.5 3.3 2.4 5.2 2.7v29.4l-25.4-14.7c0.6-1.8 0.7-3.8 0.2-5.8l-11.6-43.3 31.6 31.7z m0 98.9l-31.6 31.6 11.6-43.3c0.5-2 0.4-4-0.2-5.8l25.4-14.7v29.4c-1.9 0.4-3.7 1.4-5.2 2.8z m30.4 0c-1.5-1.5-3.3-2.4-5.2-2.7v-29.4l25.4 14.7c-0.6 1.8-0.7 3.8-0.2 5.8l11.6 43.3-31.6-31.7zM523.8 929.9c0.1 0.7 0.1 1.3 0.1 2 0 0.6 0 1.3-0.1 2-0.1 0.6-0.2 1.3-0.3 1.9-0.1 0.6-0.3 1.3-0.5 1.9-0.2 0.6-0.4 1.2-0.7 1.8-0.2 0.6-0.5 1.2-0.8 1.8-0.3 0.6-0.6 1.1-1 1.7-0.4 0.5-0.8 1.1-1.2 1.6-0.4 0.5-0.9 1-1.3 1.5s-1 0.9-1.5 1.3-1 0.8-1.6 1.2c-0.5 0.4-1.1 0.7-1.7 1-0.6 0.3-1.2 0.6-1.8 0.8-0.6 0.2-1.2 0.5-1.8 0.7-0.6 0.2-1.3 0.3-1.9 0.5-0.6 0.1-1.3 0.2-1.9 0.3-0.6 0.1-1.3 0.1-1.9 0.1h-0.1v-40.2c0.7 0 1.3 0 2 0.1 0.6 0.1 1.3 0.2 1.9 0.3 0.6 0.1 1.3 0.3 1.9 0.5 0.6 0.2 1.2 0.4 1.8 0.7 0.6 0.2 1.2 0.5 1.8 0.8 0.6 0.3 1.1 0.6 1.7 1 0.5 0.4 1.1 0.8 1.6 1.2 0.5 0.4 1 0.8 1.5 1.3s0.9 1 1.3 1.5 0.8 1 1.2 1.6c0.4 0.5 0.7 1.1 1 1.7s0.6 1.2 0.8 1.8c0.2 0.6 0.5 1.2 0.7 1.8 0.2 0.6 0.3 1.3 0.5 1.9 0.1 0.6 0.2 1.3 0.3 1.9zM503.9 693.5l-0.1-40.2c0.7 0 1.3 0 2 0.1s1.3 0.2 1.9 0.3c0.6 0.1 1.3 0.3 1.9 0.5 0.6 0.2 1.2 0.4 1.8 0.7 0.6 0.2 1.2 0.5 1.8 0.8 0.6 0.3 1.1 0.6 1.7 1 0.5 0.4 1.1 0.8 1.6 1.2 0.5 0.4 1 0.9 1.5 1.3s0.9 1 1.3 1.5 0.8 1 1.2 1.6c0.4 0.5 0.7 1.1 1 1.7s0.6 1.2 0.8 1.8c0.2 0.6 0.5 1.2 0.7 1.8 0.2 0.6 0.3 1.3 0.5 1.9s0.2 1.3 0.3 1.9c0.1 0.7 0.1 1.3 0.1 2 0 0.6 0 1.3-0.1 2-0.1 0.6-0.2 1.3-0.3 1.9-0.1 0.6-0.3 1.3-0.5 1.9-0.2 0.6-0.4 1.2-0.7 1.8-0.2 0.6-0.5 1.2-0.8 1.8-0.3 0.6-0.6 1.1-1 1.7-0.4 0.5-0.8 1.1-1.2 1.6-0.4 0.5-0.9 1-1.3 1.5s-1 0.9-1.5 1.3-1 0.8-1.6 1.2c-0.5 0.4-1.1 0.7-1.7 1-0.6 0.3-1.2 0.6-1.8 0.8-0.6 0.2-1.2 0.5-1.8 0.7-0.6 0.2-1.3 0.3-1.9 0.5-0.6 0.1-1.3 0.2-1.9 0.3-0.6 0.1-1.3 0.1-1.9 0.1z" fill="#0BA8FF" /><path d="M927.8 423.2c0 50.7-19.7 98.3-55.5 134.1s-83.4 55.5-134.1 55.5c-1.9 0-3.7-0.1-5.3-0.2-0.9 0.1-1.9 0.2-2.8 0.2H261.7c-1 0-1.9-0.1-2.8-0.2-1.6 0.1-3.4 0.2-5.3 0.2-42.1 0-81.6-16.4-111.3-46-29.7-29.6-46-69.2-46-111.3 0-82.7 64.2-150.7 145.5-156.9 0-1.6-0.1-3.1-0.1-4.6 0-59.3 23.1-115 65-156.9 41.9-41.9 97.6-65 156.9-65 13.7 0 27.2 1.2 40.2 3.7 86 15.8 155.5 81.3 175.6 167.2 19-6.3 38.7-9.4 58.8-9.4 104.5 0 189.6 85.1 189.6 189.6z" fill="#97EBFF" /><path d="M927.8 423.2c0 50.7-19.7 98.3-55.5 134.1s-83.4 55.5-134.1 55.5c-1.9 0-3.7-0.1-5.3-0.2-0.9 0.1-1.9 0.2-2.8 0.2H503.8v-537c86 15.8 155.5 81.3 175.6 167.2 19-6.3 38.7-9.4 58.8-9.4 104.5 0 189.6 85.1 189.6 189.6z" fill="#07DBFF" /></svg>