<?xml version="1.0" standalone="no"?><!DOCTYPE svg PUBLIC "-//W3C//DTD SVG 1.1//EN" "http://www.w3.org/Graphics/SVG/1.1/DTD/svg11.dtd"><svg class="icon" width="200px" height="200.00px" viewBox="0 0 1024 1024" version="1.1" xmlns="http://www.w3.org/2000/svg"><path d="M263.4 823.4c-11 0-20-9-20-20v-68.5c0-11 9-20 20-20s20 9 20 20v68.5c0 11-9 20-20 20z" fill="#07DBFF" /><path d="M743.4 823.4c-11 0-20-9-20-20v-68.5c0-11 9-20 20-20s20 9 20 20v68.5c0 11-9 20-20 20z" fill="#0BA8FF" /><path d="M383.4 960.6c-11 0-20-9-20-20V872c0-11 9-20 20-20s20 9 20 20v68.6c0 11-9 20-20 20z" fill="#07DBFF" /><path d="M623.4 960.6c-11 0-20-9-20-20V872c0-11 9-20 20-20s20 9 20 20v68.6c0 11-9 20-20 20z" fill="#0BA8FF" /><path d="M952 434.8c0 110.3-89.7 200-200 200-2.1 0-4-0.1-5.7-0.2-1 0.1-1.9 0.2-2.9 0.2H246.3c-1 0-2-0.1-2.9-0.2-1.7 0.1-3.6 0.2-5.7 0.2-91.4 0-165.7-74.3-165.7-165.7 0-87.5 68.3-159.4 154.4-165.3-0.1-2-0.1-4.1-0.1-6.1 0-62.6 24.4-121.4 68.7-165.7 44.2-44.2 103-68.6 165.6-68.6 17.6 0 34.8 2 51.4 5.7 87.1 19.5 156.6 87.7 176.8 176.2 20.4-6.9 41.5-10.3 63.2-10.3 53.4 0 103.6 20.8 141.4 58.5 37.8 37.7 58.6 87.9 58.6 141.3z" fill="#97EBFF" /><path d="M641.2 642.8L512 820.8l-45.7 63c-3.9 5.3-9.9 8.2-16.2 8.2-2.5 0-5.1-0.5-7.5-1.5-8.5-3.4-13.6-12.3-12.3-21.4l23.1-162.3h-53.8c-7.5 0-14.4-4.2-17.8-10.9-3.4-6.7-2.8-14.8 1.6-20.8L512 497.9l46.2-63.7c5.4-7.4 15.2-10.2 23.7-6.8 8.5 3.4 13.6 12.2 12.3 21.3L571.1 611H625c7.5 0 14.4 4.2 17.8 10.9 3.4 6.8 2.8 14.9-1.6 20.9z" fill="#F0E203" /><path d="M952 434.8c0 110.3-89.7 200-200 200-2.1 0-4-0.1-5.7-0.2-1 0.1-1.9 0.2-2.9 0.2H512V69.1c87.1 19.5 156.6 87.7 176.8 176.2 20.4-6.9 41.5-10.3 63.2-10.3 53.4 0 103.6 20.8 141.4 58.5 37.8 37.7 58.6 87.9 58.6 141.3z" fill="#07DBFF" /><path d="M641.2 642.8L512 820.8V497.9l46.2-63.7c5.4-7.4 15.2-10.2 23.7-6.8 8.5 3.4 13.6 12.2 12.3 21.3L571.1 611H625c7.5 0 14.4 4.2 17.8 10.9 3.4 6.8 2.8 14.9-1.6 20.9z" fill="#ED9507" /></svg>