<?xml version="1.0" standalone="no"?><!DOCTYPE svg PUBLIC "-//W3C//DTD SVG 1.1//EN" "http://www.w3.org/Graphics/SVG/1.1/DTD/svg11.dtd"><svg class="icon" width="200px" height="200.00px" viewBox="0 0 1024 1024" version="1.1" xmlns="http://www.w3.org/2000/svg"><path d="M182 162h330v699.9H182c-10.5 0-20.6-2-30-5.5-0.1 0-0.2 0-0.2-0.1-25.6-9.8-46-31.6-54.9-59-0.3-0.8-0.5-1.6-0.8-2.4l-0.6-2.1c-0.2-0.7-0.3-1.3-0.5-2-0.1-0.4-0.2-0.7-0.3-1.1-0.4-1.8-0.8-3.6-1.1-5.4-0.1-0.4-0.2-0.9-0.2-1.3-0.1-0.3-0.1-0.7-0.2-1 0-0.2-0.1-0.5-0.1-0.7v-0.3-0.2c0-0.1 0-0.2-0.1-0.3 0-0.2-0.1-0.4-0.1-0.6 0-0.2 0-0.4-0.1-0.5v-0.5c-0.1-0.5-0.1-1-0.2-1.6 0-0.5-0.1-1.1-0.2-1.6-0.1-1.1-0.2-2.2-0.2-3.3 0-0.4 0-0.8-0.1-1.2v-0.3-0.8-0.6V768.6v-0.4-510.5C92 205.1 132.5 162 182 162z" fill="#E9F2E9" /><path d="M931 780.6c-0.1 0.6-0.2 1.3-0.3 1.9v0.2l0.3-2.1z" fill="#F4EFE9" /><path d="M917 818.9c0.1-0.1 0.2-0.3 0.3-0.4 0 0.1-0.1 0.2-0.1 0.2-0.1 0.1-0.2 0.1-0.2 0.2z" fill="#28D198" /><path d="M916.2 820.2c0.3-0.4 0.5-0.8 0.8-1.3-16.1 25.9-43.8 43.1-75 43.1H182c-10.6 0-20.7-2-30.2-5.6-25.6-9.8-46-31.6-54.9-59-0.3-1-0.7-2.1-1-3.1l-0.3-1.2c-0.5-1.7-0.9-3.4-1.3-5.1-0.1-0.6-0.3-1.3-0.4-1.9-0.2-0.9-0.3-1.7-0.5-2.6v-0.3-0.3c-0.1-0.3-0.1-0.7-0.2-1 0-0.2-0.1-0.5-0.1-0.8v-0.3-0.2c0-0.1 0-0.2-0.1-0.3 0-0.3-0.1-0.6-0.1-0.8v-0.3c0-0.2 0-0.3-0.1-0.4-0.1-0.5-0.1-1.1-0.2-1.6 0-0.5-0.1-1.1-0.2-1.6-0.1-1.1-0.2-2.2-0.2-3.3 0-0.4 0-0.8-0.1-1.2v-0.3-0.8-0.6V768.5v-0.4-187.9c6.9-3.4 108-12.3 236.2-30 57.8-8 121.1-17.7 183.8-29.6v341.3h330c2.2 0 4.3-0.1 6.5-0.2 0.5 0 1.1-0.1 1.6-0.1 0.4 0 0.7-0.1 1.1-0.1 0.6-0.1 1.3-0.1 1.9-0.2l1.8-0.3c0.7-0.1 1.4-0.2 2-0.3 0.7-0.1 1.3-0.2 2-0.4 0.4-0.1 0.9-0.2 1.3-0.3 0.4-0.1 0.8-0.2 1.2-0.2 0.3-0.1 0.6-0.1 0.9-0.2 0.5-0.1 1-0.2 1.5-0.4 0.6-0.2 1.2-0.3 1.8-0.5 0.6-0.2 1.2-0.3 1.7-0.5l1.8-0.6c0.6-0.2 1.2-0.4 1.7-0.6 0.2-0.1 0.4-0.1 0.5-0.2 0.5-0.2 0.9-0.3 1.3-0.5 0.2-0.1 0.3-0.1 0.5-0.2l1.3-0.5c0.5-0.2 0.9-0.4 1.4-0.6 0.5-0.2 1.1-0.5 1.6-0.7 0.5-0.2 1-0.5 1.6-0.7l1.2-0.6c0.5-0.2 1-0.5 1.5-0.8 0.5-0.2 1-0.5 1.4-0.8 0.3-0.2 0.6-0.3 0.9-0.5l1.5-0.9c0.5-0.3 1-0.6 1.4-0.9 0.4-0.2 0.8-0.5 1.1-0.7 0.5-0.3 1-0.6 1.4-0.9 4.6-3.1 8.9-6.6 12.9-10.4l1.5-1.5c1.6-1.6 3.1-3.2 4.5-4.9 0.4-0.5 0.9-1 1.3-1.5 0.8-1 1.7-2 2.5-3.1l0.9-1.2 2.1-3c0.4-0.8 0.7-1.2 1-1.7zM919.5 814.8c-0.7 1.3-1.4 2.5-2.2 3.7 0.2-0.3 0.4-0.7 0.6-1 0.3-0.5 0.6-1.1 0.9-1.6 0.2-0.4 0.4-0.8 0.7-1.1zM931 780.6c-0.1 0.6-0.2 1.3-0.3 1.9v0.2l0.3-2.1z" fill="#28D198" /><path d="M512 580.7v235.7c-122.7 17.2-256.1 30.8-360 40h-0.2c-25.6-9.8-46-31.6-54.9-59-0.3-1-0.7-2.1-1-3.1l-0.3-1.2c-0.5-1.7-0.9-3.4-1.3-5.1-0.1-0.6-0.3-1.3-0.4-1.9-0.2-0.9-0.3-1.7-0.5-2.6v-0.3c-0.1-0.4-0.1-0.9-0.2-1.3 0-0.2-0.1-0.5-0.1-0.8v-0.3-0.2c0-0.1 0-0.2-0.1-0.3 0-0.2-0.1-0.4-0.1-0.6 0-0.2 0-0.4-0.1-0.5 0-0.2 0-0.3-0.1-0.4-0.1-0.5-0.1-1.1-0.2-1.6 0-0.5-0.1-1.1-0.2-1.6-0.1-1.1-0.2-2.2-0.2-3.3 0-0.4 0-0.8-0.1-1.2v-0.3-0.8-0.6V768.5v-0.4-257.6c22.1 1.9 134.8 21.7 236.2 39.7 37.4 6.6 73.2 13 102.4 18.1 27.4 4.8 54.6 8.9 81.4 12.4z" fill="#75EAA7" /><path d="M512 667.3v194.6H182c-10.5 0-20.6-2-30-5.5-0.1 0-0.2 0-0.2-0.1-25.6-9.8-46-31.6-54.9-59-0.3-0.8-0.5-1.6-0.8-2.4l-0.6-2.1c-0.2-0.7-0.3-1.3-0.5-2-0.1-0.4-0.2-0.7-0.3-1.1-0.4-1.8-0.8-3.6-1.1-5.4-0.1-0.4-0.2-0.9-0.2-1.3-0.1-0.3-0.1-0.7-0.2-1 0-0.2-0.1-0.5-0.1-0.7v-0.3-0.2c0-0.1 0-0.2-0.1-0.3 0-0.3-0.1-0.6-0.1-0.8 0-0.3-0.1-0.5-0.1-0.8-0.1-0.5-0.1-1-0.2-1.6 0-0.5-0.1-1.1-0.2-1.6-0.1-1.1-0.2-2.2-0.2-3.3 0-0.4 0-0.8-0.1-1.2v-0.3-0.8-0.6V768.6v-0.4V684c82.7-0.6 256.8 3.9 419.9-16.7z" fill="#B7F7BD" /><path d="M64.9 863.8c4.4-0.3 8.9-0.7 13.5-1.1v14.6l-13.5-13.5z" fill="#FCF6F6" /><path d="M350.6 374.3c-33.3 33.3-72.5 26.1-93.3 18.6-9.1-3.3-14.6-6.6-14.6-6.6s-0.9-1.5-2.3-4.3c-7.1-14.6-25.9-63.3 14.3-103.5 10.7-10.7 22.3-17.5 33.8-21.6 6.2-2.2 12.4-3.7 18.5-4.5 19.8-2.8 38 0.6 49.4 3.9 7.7 2.2 12.3 4.3 12.3 4.3s1.6 3.5 3.5 9.6c6.1 19.8 15.2 67.3-21.6 104.1z" fill="#75EAA7" /><path d="M366 324.6c-4.6-3-10.8-1.7-13.8 3-0.5 0.8-5.9 7.8-37.5 10.3-8.5 0.7-16.7 0.8-23 0.8 18.8-23.1 44.8-47.6 80.4-68.8-1.9-6-3.5-9.6-3.5-9.6s-4.6-2.1-12.3-4.3c-21 13-38.7 27.1-53.6 41.3-2.4-7.4-3.8-19.6 5-33.8 2.2-3.7 1.8-8.2-0.7-11.4l-18.5 4.5c-12.6 23.5-7.1 45-0.9 56.1-20.4 22.3-34.4 44.2-43.7 62.2-1.2 2.3-2.3 4.6-3.4 6.8-16.9 34.6-20.5 60.2-20.6 61.3-0.7 5.5 3.1 10.5 8.6 11.2 0.5 0.1 0.9 0.1 1.4 0.1 4.9 0 9.2-3.6 9.9-8.6 0-0.2 3.3-22.6 17.7-53.1 1.4-3 3-6.2 4.7-9.4 4.1-7.7 9-16.3 15.1-25.2 0.5 0.1 1 0.2 1.5 0.2 0.4 0 5.7 0.3 13.5 0.3 6.6 0 15.1-0.2 23.9-0.9 42.6-3.4 50.4-15.5 52.9-19.5 2.9-4.3 1.6-10.5-3.1-13.5z" fill="#28D198" /><path d="M932 257.7v139.7c-62.3 26-218.9 83.2-392.6 117.9-9.1 1.8-18.2 3.6-27.4 5.3V162h330c49.5 0 90 43.1 90 95.7z" fill="#CCDDCE" /><path d="M932 397.4v160.1c-9.9 5.7-53.8 23.2-121.4 43.8-70.8-2-180.2-5.3-298.6-20.6v-60.1c9.2-1.7 18.3-3.5 27.4-5.3 173.7-34.7 330.3-91.9 392.6-117.9z" fill="#15AF87" /><path d="M810.6 601.3c-57.9 17.6-133 37.3-218.9 53.6-26 4.9-52.7 9-79.7 12.4v-86.6c118.4 15.3 227.8 18.6 298.6 20.6z" fill="#28D198" /><path d="M932 557.5v208.7c0 1.6 0 3.3-0.1 4.9-0.1 1.6-0.2 3.1-0.3 4.7-0.1 0.8-0.1 1.5-0.2 2.3-0.1 0.8-0.2 1.7-0.3 2.5l-0.3 2.1-0.6 3c0 0.1-0.1 0.3-0.1 0.4-0.1 0.4-0.2 0.8-0.2 1.1-0.1 0.4-0.2 0.8-0.2 1.1 0 0.2-0.1 0.3-0.1 0.5s-0.1 0.3-0.1 0.5v0.2c-0.1 0.5-0.2 1-0.4 1.5v0.1c-0.1 0.5-0.2 0.9-0.4 1.4 0 0.1-0.1 0.3-0.1 0.4 0 0.1-0.1 0.2-0.1 0.3-0.3 1-0.6 2.1-0.9 3.1-0.1 0.4-0.2 0.7-0.4 1.1-0.3 1-0.6 1.9-1 2.9-0.2 0.6-0.4 1.1-0.6 1.7-0.3 0.7-0.5 1.4-0.8 2-0.1 0.3-0.3 0.6-0.4 0.9-0.1 0.3-0.3 0.7-0.4 1-0.1 0.1-0.1 0.2-0.2 0.4-0.4 1-0.8 1.9-1.3 2.8-0.2 0.5-0.4 0.9-0.7 1.4-0.2 0.5-0.5 1-0.7 1.4-0.5 0.9-0.9 1.8-1.4 2.6-0.2 0.4-0.4 0.8-0.6 1.1-0.3 0.5-0.6 1.1-0.9 1.6-0.2 0.4-0.5 0.8-0.8 1.2-0.3 0.5-0.6 1-0.9 1.4-0.3 0.5-0.6 1-1 1.5l-2.1 3-0.9 1.2c-0.8 1-1.6 2.1-2.5 3.1-0.4 0.5-0.8 1-1.3 1.5-1.4 1.7-2.9 3.3-4.5 4.9l-1.5 1.5c-4 3.9-8.3 7.4-12.9 10.4-0.5 0.3-1 0.6-1.4 0.9-0.4 0.2-0.8 0.5-1.1 0.7-0.5 0.3-1 0.6-1.4 0.9l-1.5 0.9c-0.3 0.2-0.6 0.3-0.9 0.5-0.5 0.3-1 0.5-1.4 0.8-0.5 0.3-1 0.5-1.5 0.8l-1.2 0.6c-0.5 0.3-1 0.5-1.6 0.7-0.5 0.2-1.1 0.5-1.6 0.7-0.5 0.2-0.9 0.4-1.4 0.6l-1.3 0.5c-0.2 0.1-0.4 0.1-0.5 0.2-0.4 0.2-0.9 0.3-1.3 0.5-0.2 0.1-0.4 0.1-0.5 0.2-0.6 0.2-1.1 0.4-1.7 0.6l-1.8 0.6c-0.6 0.2-1.2 0.4-1.7 0.5-0.6 0.2-1.2 0.4-1.8 0.5-0.5 0.1-1 0.3-1.5 0.4-0.3 0.1-0.6 0.1-0.9 0.2-0.4 0.1-0.8 0.2-1.2 0.2-0.4 0.1-0.9 0.2-1.3 0.3-0.7 0.1-1.3 0.3-2 0.4-0.7 0.1-1.3 0.2-2 0.3l-1.8 0.3c-0.6 0.1-1.3 0.2-1.9 0.2-0.4 0-0.7 0.1-1.1 0.1-0.5 0-1.1 0.1-1.6 0.1-2.1 0.2-4.3 0.2-6.5 0.2H512v-194c27-3.4 53.8-7.5 79.7-12.4 85.8-16.3 161-36 218.9-53.6 67.6-20.6 111.5-38.1 121.4-43.8z" fill="#75EAA7" /><path d="M917 818.9c0.1-0.1 0.2-0.3 0.3-0.4 0 0.1-0.1 0.2-0.1 0.2-0.1 0.1-0.2 0.1-0.2 0.2zM916.2 820.2c0.3-0.4 0.5-0.8 0.8-1.3-16.1 25.9-43.8 43.1-75 43.1H512v-0.1h330c2.2 0 4.3-0.1 6.5-0.2 0.5 0 1.1-0.1 1.6-0.1 0.4 0 0.7-0.1 1.1-0.1 0.6-0.1 1.3-0.1 1.9-0.2l1.8-0.3c0.7-0.1 1.4-0.2 2-0.3 0.7-0.1 1.3-0.2 2-0.4 0.4-0.1 0.9-0.2 1.3-0.3 0.4-0.1 0.8-0.2 1.2-0.2 0.3-0.1 0.6-0.1 0.9-0.2 0.5-0.1 1-0.2 1.5-0.4 0.6-0.2 1.2-0.3 1.8-0.5 0.6-0.2 1.2-0.3 1.7-0.5l1.8-0.6c0.6-0.2 1.2-0.4 1.7-0.6 0.2-0.1 0.4-0.1 0.5-0.2 0.5-0.2 0.9-0.3 1.3-0.5 0.2-0.1 0.3-0.1 0.5-0.2l1.3-0.5c0.5-0.2 0.9-0.4 1.4-0.6 0.5-0.2 1.1-0.5 1.6-0.7 0.5-0.2 1-0.5 1.6-0.7l1.2-0.6c0.5-0.2 1-0.5 1.5-0.8 0.5-0.2 1-0.5 1.4-0.8 0.3-0.2 0.6-0.3 0.9-0.5l1.5-0.9c0.5-0.3 1-0.6 1.4-0.9 0.4-0.2 0.8-0.5 1.1-0.7 0.5-0.3 1-0.6 1.4-0.9 4.6-3.1 8.9-6.6 12.9-10.4l1.5-1.5c1.6-1.6 3.1-3.2 4.5-4.9 0.4-0.5 0.9-1 1.3-1.5 0.8-1 1.7-2 2.5-3.1l0.9-1.2 2.1-3c0.5-0.8 0.8-1.2 1.1-1.7zM919.5 814.8c-0.7 1.3-1.4 2.5-2.2 3.7 0.2-0.3 0.4-0.7 0.6-1 0.3-0.5 0.6-1.1 0.9-1.6 0.2-0.4 0.4-0.8 0.7-1.1zM931 780.6c-0.1 0.6-0.2 1.3-0.3 1.9v0.2l0.3-2.1z" fill="#F4EFE9" /></svg>