<?xml version="1.0" standalone="no"?><!DOCTYPE svg PUBLIC "-//W3C//DTD SVG 1.1//EN" "http://www.w3.org/Graphics/SVG/1.1/DTD/svg11.dtd"><svg class="icon" width="200px" height="200.00px" viewBox="0 0 1024 1024" version="1.1" xmlns="http://www.w3.org/2000/svg"><path d="M277.8 693.5c-0.6 0-1.3 0-2-0.1-0.6-0.1-1.3-0.2-1.9-0.3-0.6-0.1-1.3-0.3-1.9-0.5-0.6-0.2-1.2-0.4-1.8-0.7s-1.2-0.5-1.8-0.8c-0.6-0.3-1.1-0.6-1.7-1-0.5-0.4-1.1-0.8-1.6-1.2-0.5-0.4-1-0.9-1.5-1.3s-0.9-1-1.3-1.5-0.8-1-1.2-1.6c-0.4-0.5-0.7-1.1-1-1.7-0.3-0.6-0.6-1.2-0.8-1.8-0.2-0.6-0.5-1.2-0.7-1.8-0.2-0.6-0.4-1.3-0.5-1.9-0.1-0.6-0.2-1.3-0.3-1.9-0.1-0.7-0.1-1.3-0.1-2s0-1.3 0.1-2c0.1-0.6 0.2-1.3 0.3-1.9s0.3-1.3 0.5-1.9c0.2-0.6 0.4-1.2 0.7-1.8 0.2-0.6 0.5-1.2 0.8-1.8 0.3-0.6 0.6-1.1 1-1.7 0.4-0.5 0.8-1.1 1.2-1.6 0.4-0.5 0.9-1 1.3-1.5s1-0.9 1.5-1.3 1-0.8 1.6-1.2c0.5-0.4 1.1-0.7 1.7-1 0.6-0.3 1.2-0.6 1.8-0.8s1.2-0.5 1.8-0.7c0.6-0.2 1.3-0.4 1.9-0.5 0.6-0.1 1.3-0.2 1.9-0.3 1.3-0.1 2.6-0.1 3.9 0 0.6 0.1 1.3 0.2 1.9 0.3 0.6 0.1 1.3 0.3 1.9 0.5 0.6 0.2 1.2 0.4 1.8 0.7s1.2 0.5 1.8 0.8c0.6 0.3 1.1 0.6 1.7 1 0.5 0.4 1.1 0.8 1.6 1.2 0.5 0.4 1 0.9 1.5 1.3s0.9 1 1.3 1.5 0.8 1 1.2 1.6c0.4 0.5 0.7 1.1 1 1.7 0.3 0.6 0.6 1.2 0.8 1.8 0.2 0.6 0.5 1.2 0.7 1.8 0.2 0.6 0.4 1.3 0.5 1.9 0.1 0.6 0.2 1.3 0.3 1.9 0.1 0.7 0.1 1.3 0.1 2 0 0.6 0 1.3-0.1 2-0.1 0.6-0.2 1.3-0.3 1.9-0.1 0.6-0.3 1.3-0.5 1.9-0.2 0.6-0.4 1.2-0.7 1.8-0.2 0.6-0.5 1.2-0.8 1.8-0.3 0.6-0.6 1.1-1 1.7-0.4 0.5-0.8 1.1-1.2 1.6-0.4 0.5-0.9 1-1.3 1.5s-1 0.9-1.5 1.3-1 0.8-1.6 1.2c-0.5 0.4-1.1 0.7-1.7 1-0.6 0.3-1.2 0.6-1.8 0.8s-1.2 0.5-1.8 0.7c-0.6 0.2-1.3 0.3-1.9 0.5-0.6 0.1-1.3 0.2-1.9 0.3-0.6 0.1-1.3 0.1-1.9 0.1zM523.9 673.5c0 0.7 0 1.3-0.1 2-0.1 0.6-0.2 1.3-0.3 1.9-0.1 0.6-0.3 1.3-0.5 1.9-0.2 0.6-0.4 1.2-0.7 1.8-0.2 0.6-0.5 1.2-0.8 1.8-0.3 0.6-0.6 1.1-1 1.7-0.4 0.6-0.8 1.1-1.2 1.6-0.4 0.5-0.9 1-1.3 1.5-0.5 0.5-0.9 0.9-1.5 1.3-0.5 0.4-1 0.8-1.6 1.2-0.5 0.4-1.1 0.7-1.7 1-0.6 0.3-1.2 0.6-1.8 0.8-0.6 0.2-1.2 0.5-1.8 0.7-0.6 0.2-1.3 0.3-1.9 0.5s-1.3 0.2-1.9 0.3c-0.7 0.1-1.3 0.1-2 0.1s-1.3 0-2-0.1c-0.6-0.1-1.3-0.2-1.9-0.3-0.6-0.1-1.3-0.3-1.9-0.5-0.6-0.2-1.2-0.4-1.8-0.7s-1.2-0.5-1.8-0.8c-0.6-0.3-1.1-0.6-1.7-1-0.5-0.4-1.1-0.8-1.6-1.2-0.5-0.4-1-0.9-1.5-1.3-0.5-0.5-0.9-1-1.3-1.5s-0.8-1-1.2-1.6c-0.4-0.5-0.7-1.1-1-1.7-0.3-0.6-0.6-1.2-0.8-1.8-0.2-0.6-0.5-1.2-0.7-1.8-0.2-0.6-0.4-1.3-0.5-1.9-0.1-0.6-0.2-1.3-0.3-1.9-0.1-0.7-0.1-1.3-0.1-2s0-1.3 0.1-2c0.1-0.6 0.2-1.3 0.3-1.9 0.1-0.6 0.3-1.3 0.5-1.9 0.2-0.6 0.4-1.2 0.7-1.8 0.2-0.6 0.5-1.2 0.8-1.8 0.3-0.6 0.6-1.1 1-1.7 0.4-0.6 0.8-1.1 1.2-1.6 0.4-0.5 0.9-1 1.3-1.5 0.5-0.5 1-0.9 1.5-1.3s1-0.8 1.6-1.2c0.5-0.4 1.1-0.7 1.7-1 0.6-0.3 1.2-0.6 1.8-0.8s1.2-0.5 1.8-0.7c0.6-0.2 1.3-0.3 1.9-0.5s1.3-0.2 1.9-0.3c0.7-0.1 1.3-0.1 2-0.1s1.3 0 2 0.1 1.3 0.2 1.9 0.3 1.3 0.3 1.9 0.5c0.6 0.2 1.2 0.4 1.8 0.7 0.6 0.2 1.2 0.5 1.8 0.8 0.6 0.3 1.1 0.6 1.7 1 0.5 0.4 1.1 0.8 1.6 1.2 0.5 0.4 1 0.9 1.5 1.3 0.5 0.5 0.9 1 1.3 1.5s0.8 1 1.2 1.6c0.4 0.5 0.7 1.1 1 1.7 0.3 0.6 0.6 1.2 0.8 1.8 0.2 0.6 0.5 1.2 0.7 1.8 0.2 0.6 0.3 1.3 0.5 1.9 0.1 0.6 0.2 1.3 0.3 1.9 0.1 0.7 0.1 1.3 0.1 2zM277.8 952c-0.6 0-1.3 0-2-0.1-0.6-0.1-1.3-0.2-1.9-0.3-0.6-0.1-1.3-0.3-1.9-0.5-0.6-0.2-1.2-0.4-1.8-0.7s-1.2-0.5-1.8-0.8c-0.6-0.3-1.1-0.6-1.7-1-0.5-0.4-1.1-0.8-1.6-1.2-0.5-0.4-1-0.9-1.5-1.3s-0.9-1-1.3-1.5-0.8-1-1.2-1.6c-0.4-0.5-0.7-1.1-1-1.7s-0.6-1.2-0.8-1.8c-0.2-0.6-0.5-1.2-0.7-1.8-0.2-0.6-0.4-1.3-0.5-1.9-0.1-0.6-0.2-1.3-0.3-1.9-0.1-0.7-0.1-1.3-0.1-2s0-1.3 0.1-2c0.1-0.6 0.2-1.3 0.3-1.9 0.1-0.6 0.3-1.3 0.5-1.9 0.2-0.6 0.4-1.2 0.7-1.8 0.2-0.6 0.5-1.2 0.8-1.8 0.3-0.6 0.6-1.1 1-1.7 0.4-0.5 0.8-1.1 1.2-1.6 0.4-0.5 0.9-1 1.3-1.5 0.5-0.5 1-0.9 1.5-1.3s1-0.8 1.6-1.2c0.5-0.4 1.1-0.7 1.7-1 0.6-0.3 1.2-0.6 1.8-0.8s1.2-0.5 1.8-0.7c0.6-0.2 1.3-0.4 1.9-0.5 0.6-0.1 1.3-0.2 1.9-0.3 1.3-0.1 2.6-0.1 3.9 0 0.6 0.1 1.3 0.2 1.9 0.3 0.6 0.1 1.3 0.3 1.9 0.5 0.6 0.2 1.2 0.4 1.8 0.7s1.2 0.5 1.8 0.8c0.6 0.3 1.1 0.6 1.7 1 0.5 0.4 1.1 0.8 1.6 1.2 0.5 0.4 1 0.8 1.5 1.3s0.9 1 1.3 1.5 0.8 1 1.2 1.6c0.4 0.5 0.7 1.1 1 1.7 0.3 0.6 0.6 1.2 0.8 1.8 0.2 0.6 0.5 1.2 0.7 1.8 0.2 0.6 0.4 1.3 0.5 1.9 0.1 0.6 0.2 1.3 0.3 1.9 0.1 0.7 0.1 1.3 0.1 2 0 5.3-2.1 10.4-5.9 14.1-0.5 0.5-1 0.9-1.5 1.3s-1 0.8-1.6 1.2c-0.5 0.4-1.1 0.7-1.7 1-0.6 0.3-1.2 0.6-1.8 0.8s-1.2 0.5-1.8 0.7c-0.6 0.2-1.3 0.3-1.9 0.5-0.6 0.1-1.3 0.2-1.9 0.3-0.6 0.2-1.3 0.2-1.9 0.2zM523.9 932c0 0.7 0 1.3-0.1 2-0.1 0.6-0.2 1.3-0.3 1.9-0.1 0.6-0.3 1.3-0.5 1.9-0.2 0.6-0.4 1.2-0.7 1.8-0.2 0.6-0.5 1.2-0.8 1.8-0.3 0.6-0.6 1.1-1 1.7-0.4 0.6-0.8 1.1-1.2 1.6-0.4 0.5-0.9 1-1.3 1.5-0.5 0.5-0.9 0.9-1.5 1.3-0.5 0.4-1 0.8-1.6 1.2-0.5 0.4-1.1 0.7-1.7 1-0.6 0.3-1.2 0.6-1.8 0.8-0.6 0.2-1.2 0.5-1.8 0.7-0.6 0.2-1.3 0.3-1.9 0.5-0.6 0.1-1.3 0.2-1.9 0.3-0.7 0.1-1.3 0.1-2 0.1s-1.3 0-2-0.1c-0.6-0.1-1.3-0.2-1.9-0.3-0.6-0.1-1.3-0.3-1.9-0.5-0.6-0.2-1.2-0.4-1.8-0.7s-1.2-0.5-1.8-0.8-1.1-0.6-1.7-1c-0.5-0.4-1.1-0.8-1.6-1.2-0.5-0.4-1-0.9-1.5-1.3-0.5-0.5-0.9-1-1.3-1.5s-0.8-1-1.2-1.6c-0.4-0.5-0.7-1.1-1-1.7-0.3-0.6-0.6-1.2-0.8-1.8-0.2-0.6-0.5-1.2-0.7-1.8-0.2-0.6-0.4-1.3-0.5-1.9-0.1-0.6-0.2-1.3-0.3-1.9-0.1-0.7-0.1-1.3-0.1-2s0-1.3 0.1-2c0.1-0.6 0.2-1.3 0.3-1.9 0.1-0.6 0.3-1.3 0.5-1.9 0.2-0.6 0.4-1.2 0.7-1.8 0.2-0.6 0.5-1.2 0.8-1.8 0.3-0.6 0.6-1.1 1-1.7 0.4-0.6 0.8-1.1 1.2-1.6 0.4-0.5 0.9-1 1.3-1.5 0.5-0.5 1-0.9 1.5-1.3s1-0.8 1.6-1.2c0.5-0.4 1.1-0.7 1.7-1 0.6-0.3 1.2-0.6 1.8-0.8s1.2-0.5 1.8-0.7c0.6-0.2 1.3-0.3 1.9-0.5 0.6-0.1 1.3-0.2 1.9-0.3 0.7-0.1 1.3-0.1 2-0.1s1.3 0 2 0.1c0.6 0.1 1.3 0.2 1.9 0.3 0.6 0.1 1.3 0.3 1.9 0.5 0.6 0.2 1.2 0.4 1.8 0.7 0.6 0.2 1.2 0.5 1.8 0.8 0.6 0.3 1.1 0.6 1.7 1 0.5 0.4 1.1 0.8 1.6 1.2 0.5 0.4 1 0.9 1.5 1.3 0.5 0.5 0.9 1 1.3 1.5s0.8 1 1.2 1.6c0.4 0.5 0.7 1.1 1 1.7 0.3 0.6 0.6 1.2 0.8 1.8 0.2 0.6 0.5 1.2 0.7 1.8 0.2 0.6 0.3 1.3 0.5 1.9 0.1 0.6 0.2 1.3 0.3 1.9 0.1 0.7 0.1 1.3 0.1 2zM390.8 774.3c-11 0-20-9-20-20v-16.1c0-11 9-20 20-20s20 9 20 20v16.1c0 11-9 20-20 20zM348.9 798.5c-3.4 0-6.8-0.9-9.9-2.6l-14-8c-9.6-5.5-12.9-17.7-7.4-27.3 5.5-9.6 17.7-12.9 27.3-7.4l14 8c9.6 5.5 12.9 17.7 7.4 27.3-3.7 6.4-10.5 10-17.4 10zM334.9 855.1c-6.9 0-13.6-3.6-17.3-10-5.5-9.6-2.3-21.8 7.3-27.3l14-8.1c9.6-5.5 21.8-2.3 27.3 7.3s2.3 21.8-7.3 27.3l-14 8.1c-3.1 1.8-6.6 2.7-10 2.7zM390.8 887.4c-11 0-20-9-20-20v-16.2c0-11 9-20 20-20s20 9 20 20v16.2c0 11-9 20-20 20zM446.8 855.1c-3.4 0-6.8-0.9-10-2.7l-14-8.1c-9.6-5.5-12.8-17.8-7.3-27.3 5.5-9.6 17.8-12.8 27.3-7.3l14 8.1c9.6 5.5 12.8 17.8 7.3 27.3-3.7 6.4-10.4 10-17.3 10zM432.8 798.5c-6.9 0-13.7-3.6-17.4-10.1-5.5-9.6-2.1-21.8 7.4-27.3l14-8c9.6-5.5 21.8-2.1 27.3 7.4 5.5 9.6 2.1 21.8-7.4 27.3l-14 8c-3.1 1.9-6.5 2.7-9.9 2.7zM390.8 822.8c-0.6 0-1.3 0-2-0.1-0.6-0.1-1.3-0.2-1.9-0.3-0.6-0.1-1.3-0.3-1.9-0.5-0.6-0.2-1.2-0.4-1.8-0.7s-1.2-0.5-1.8-0.8c-0.6-0.3-1.1-0.6-1.7-1-0.5-0.4-1.1-0.8-1.6-1.2-0.5-0.4-1-0.9-1.5-1.3s-0.9-0.9-1.3-1.5c-0.4-0.5-0.8-1-1.2-1.6-0.4-0.5-0.7-1.1-1-1.7s-0.6-1.2-0.8-1.8c-0.2-0.6-0.5-1.2-0.7-1.8-0.2-0.6-0.4-1.3-0.5-1.9-0.1-0.6-0.2-1.3-0.3-1.9-0.1-0.7-0.1-1.3-0.1-2s0-1.3 0.1-2c0.1-0.6 0.2-1.3 0.3-1.9 0.1-0.6 0.3-1.3 0.5-1.9 0.2-0.6 0.4-1.2 0.7-1.8 0.2-0.6 0.5-1.2 0.8-1.8 0.3-0.6 0.6-1.1 1-1.7 0.4-0.6 0.8-1.1 1.2-1.6 0.4-0.5 0.9-1 1.3-1.5 0.5-0.5 1-0.9 1.5-1.3s1-0.8 1.6-1.2c0.5-0.4 1.1-0.7 1.7-1 0.6-0.3 1.2-0.6 1.8-0.8s1.2-0.5 1.8-0.7c0.6-0.2 1.3-0.4 1.9-0.5 0.6-0.1 1.3-0.2 1.9-0.3 1.3-0.1 2.6-0.1 3.9 0 0.6 0.1 1.3 0.2 1.9 0.3 0.6 0.1 1.3 0.3 1.9 0.5 0.6 0.2 1.2 0.4 1.8 0.7s1.2 0.5 1.8 0.8c0.6 0.3 1.1 0.6 1.7 1 0.5 0.4 1.1 0.8 1.6 1.2 0.5 0.4 1 0.8 1.5 1.3s0.9 0.9 1.3 1.5c0.4 0.5 0.8 1 1.2 1.6 0.4 0.5 0.7 1.1 1 1.7 0.3 0.6 0.6 1.2 0.8 1.8 0.2 0.6 0.5 1.2 0.7 1.8 0.2 0.6 0.4 1.3 0.5 1.9 0.1 0.6 0.2 1.3 0.3 1.9 0.1 0.7 0.1 1.3 0.1 2s0 1.3-0.1 2c-0.1 0.6-0.2 1.3-0.3 1.9-0.1 0.6-0.3 1.3-0.5 1.9-0.2 0.6-0.4 1.2-0.7 1.8-0.2 0.6-0.5 1.2-0.8 1.8-0.3 0.6-0.6 1.1-1 1.7-0.4 0.6-0.8 1.1-1.2 1.6-0.4 0.5-0.9 1-1.3 1.5s-1 0.9-1.5 1.3-1 0.8-1.6 1.2c-0.5 0.4-1.1 0.7-1.7 1-0.6 0.3-1.2 0.6-1.8 0.8s-1.2 0.5-1.8 0.7c-0.6 0.2-1.3 0.4-1.9 0.5-0.6 0.1-1.3 0.2-1.9 0.3-0.6 0.1-1.3 0.1-1.9 0.1z" fill="#07DBFF" /><path d="M935.5 429.8c0 106.4-86.5 192.9-192.9 192.9-2 0-3.8-0.1-5.4-0.2-0.9 0.1-1.9 0.2-2.9 0.2H256.7c-1 0-1.9-0.1-2.9-0.2-1.6 0.1-3.4 0.2-5.4 0.2-42.8 0-83-16.6-113.2-46.8-30.2-30.2-46.8-70.4-46.8-113.2s16.6-83 46.9-113.2c27.5-27.4 63.1-43.7 101.5-46.4-0.1-1.7-0.1-3.4-0.1-5.1 0-124.6 101.3-225.9 225.9-225.9 14.1 0 27.9 1.3 41.3 3.8 87.5 16.2 158.1 83 178.5 170.6 19.4-6.5 39.5-9.7 60.1-9.7 106.4 0 193 86.6 193 193z" fill="#97EBFF" /><path d="M935.5 429.8c0 106.4-86.5 192.9-192.9 192.9-2 0-3.8-0.1-5.4-0.2-0.9 0.1-1.9 0.2-2.9 0.2H503.9V75.9c87.5 16.2 158.1 83 178.5 170.6 19.4-6.5 39.5-9.7 60.1-9.7 106.4 0 193 86.6 193 193z" fill="#07DBFF" /><path d="M523.8 930c0.1 0.7 0.1 1.3 0.1 2s0 1.3-0.1 2c-0.1 0.6-0.2 1.3-0.3 1.9-0.1 0.6-0.3 1.3-0.5 1.9-0.2 0.6-0.4 1.2-0.7 1.8-0.2 0.6-0.5 1.2-0.8 1.8-0.3 0.6-0.6 1.1-1 1.7-0.4 0.6-0.8 1.1-1.2 1.6-0.4 0.5-0.9 1-1.3 1.5-0.5 0.5-0.9 0.9-1.5 1.3-0.5 0.4-1 0.8-1.6 1.2-0.5 0.4-1.1 0.7-1.7 1-0.6 0.3-1.2 0.6-1.8 0.8-0.6 0.2-1.2 0.5-1.8 0.7-0.6 0.2-1.3 0.3-1.9 0.5-0.6 0.1-1.3 0.2-1.9 0.3-0.7 0.1-1.3 0.1-2 0.1v-40c0.7 0 1.3 0 2 0.1 0.6 0.1 1.3 0.2 1.9 0.3 0.6 0.1 1.3 0.3 1.9 0.5 0.6 0.2 1.2 0.4 1.8 0.7 0.6 0.2 1.2 0.5 1.8 0.8 0.6 0.3 1.1 0.6 1.7 1 0.5 0.4 1.1 0.8 1.6 1.2 0.5 0.4 1 0.9 1.5 1.3 0.5 0.5 0.9 1 1.3 1.5s0.8 1 1.2 1.6c0.4 0.5 0.7 1.1 1 1.7 0.3 0.6 0.6 1.2 0.8 1.8 0.2 0.6 0.5 1.2 0.7 1.8 0.2 0.6 0.3 1.3 0.5 1.9 0.1 0.4 0.2 1.1 0.3 1.7zM523.8 671.5c0.1 0.7 0.1 1.3 0.1 2s0 1.3-0.1 2c-0.1 0.6-0.2 1.3-0.3 1.9-0.1 0.6-0.3 1.3-0.5 1.9-0.2 0.6-0.4 1.2-0.7 1.8-0.2 0.6-0.5 1.2-0.8 1.8-0.3 0.6-0.6 1.1-1 1.7-0.4 0.6-0.8 1.1-1.2 1.6-0.4 0.5-0.9 1-1.3 1.5-0.5 0.5-0.9 0.9-1.5 1.3-0.5 0.4-1 0.8-1.6 1.2-0.5 0.4-1.1 0.7-1.7 1-0.6 0.3-1.2 0.6-1.8 0.8-0.6 0.2-1.2 0.5-1.8 0.7-0.6 0.2-1.3 0.3-1.9 0.5s-1.3 0.2-1.9 0.3c-0.7 0.1-1.3 0.1-2 0.1v-40c0.7 0 1.3 0 2 0.1s1.3 0.2 1.9 0.3 1.3 0.3 1.9 0.5c0.6 0.2 1.2 0.4 1.8 0.7 0.6 0.2 1.2 0.5 1.8 0.8 0.6 0.3 1.1 0.6 1.7 1 0.5 0.4 1.1 0.8 1.6 1.2 0.5 0.4 1 0.9 1.5 1.3 0.5 0.5 0.9 1 1.3 1.5s0.8 1 1.2 1.6c0.4 0.5 0.7 1.1 1 1.7 0.3 0.6 0.6 1.2 0.8 1.8 0.2 0.6 0.5 1.2 0.7 1.8 0.2 0.6 0.3 1.3 0.5 1.9 0.1 0.4 0.2 1.1 0.3 1.7zM608.5 817c5.5 9.6 2.3 21.8-7.3 27.3l-14 8.1c-3.2 1.8-6.6 2.7-10 2.7-6.9 0-13.6-3.6-17.3-10-5.5-9.6-2.3-21.8 7.3-27.3l14-8.1c9.5-5.5 21.8-2.3 27.3 7.3zM608.6 788.4c-3.7 6.5-10.5 10.1-17.4 10.1-3.4 0-6.8-0.8-9.9-2.6l-14-8c-9.6-5.5-12.9-17.7-7.5-27.3 5.5-9.6 17.7-12.9 27.3-7.5l14 8c9.6 5.5 12.9 17.7 7.5 27.3zM653.1 800.8c0.1 0.7 0.1 1.3 0.1 2s0 1.3-0.1 2c-0.1 0.6-0.2 1.3-0.3 1.9-0.1 0.6-0.3 1.3-0.5 1.9-0.2 0.6-0.4 1.2-0.7 1.8-0.2 0.6-0.5 1.2-0.8 1.8-0.3 0.6-0.6 1.1-1 1.7-0.4 0.5-0.8 1.1-1.2 1.6-0.4 0.5-0.9 1-1.3 1.5-0.5 0.5-1 0.9-1.5 1.3s-1 0.8-1.6 1.2c-0.5 0.4-1.1 0.7-1.7 1-0.6 0.3-1.2 0.6-1.8 0.8-0.6 0.2-1.2 0.5-1.8 0.7-0.6 0.2-1.3 0.4-1.9 0.5-0.6 0.1-1.3 0.2-1.9 0.3-0.7 0.1-1.3 0.1-2 0.1s-1.3 0-2-0.1c-0.6-0.1-1.3-0.2-1.9-0.3-0.6-0.1-1.3-0.3-1.9-0.5-0.6-0.2-1.2-0.4-1.8-0.7-0.6-0.2-1.2-0.5-1.8-0.8-0.6-0.3-1.1-0.6-1.7-1-0.5-0.4-1.1-0.8-1.6-1.2-0.5-0.4-1-0.9-1.5-1.3s-0.9-1-1.3-1.5-0.8-1-1.2-1.6c-0.4-0.5-0.7-1.1-1-1.7-0.3-0.6-0.6-1.2-0.8-1.8-0.2-0.6-0.5-1.2-0.7-1.8-0.2-0.6-0.4-1.3-0.5-1.9-0.1-0.6-0.2-1.3-0.3-1.9-0.1-0.7-0.1-1.3-0.1-2 0-0.6 0-1.3 0.1-2 0.1-0.6 0.2-1.3 0.3-1.9 0.1-0.6 0.3-1.3 0.5-1.9 0.2-0.6 0.4-1.2 0.7-1.8 0.2-0.6 0.5-1.2 0.8-1.8 0.3-0.6 0.6-1.1 1-1.7 0.4-0.5 0.8-1.1 1.2-1.6 0.4-0.5 0.9-1 1.3-1.5 0.5-0.5 1-0.9 1.5-1.3s1-0.8 1.6-1.2c0.5-0.4 1.1-0.7 1.7-1 0.6-0.3 1.2-0.6 1.8-0.8 0.6-0.2 1.2-0.5 1.8-0.7 0.6-0.2 1.3-0.3 1.9-0.5 0.6-0.1 1.3-0.2 1.9-0.3 1.3-0.1 2.6-0.1 3.9 0 0.6 0.1 1.3 0.2 1.9 0.3s1.3 0.3 1.9 0.5c0.6 0.2 1.2 0.4 1.8 0.7 0.6 0.2 1.2 0.5 1.8 0.8 0.6 0.3 1.1 0.6 1.7 1 0.5 0.4 1.1 0.8 1.6 1.2 0.5 0.4 1 0.8 1.5 1.3s0.9 1 1.3 1.5 0.8 1 1.2 1.6c0.4 0.5 0.7 1.1 1 1.7 0.3 0.6 0.6 1.2 0.8 1.8 0.2 0.6 0.5 1.2 0.7 1.8 0.2 0.6 0.3 1.3 0.5 1.9 0.2 0.6 0.3 1.3 0.4 1.9zM653.2 738.2v16.1c0 11-9 20-20 20s-20-9-20-20v-16.1c0-11 9-20 20-20s20 9 20 20zM653.2 851.2v16.2c0 11-9 20-20 20s-20-9-20-20v-16.2c0-11 9-20 20-20s20 9 20 20zM706.4 845.1c-3.7 6.4-10.4 10-17.3 10-3.4 0-6.8-0.9-10-2.7l-14-8.1c-9.6-5.5-12.8-17.8-7.3-27.3 5.5-9.6 17.8-12.8 27.3-7.3l14 8.1c9.6 5.5 12.8 17.7 7.3 27.3zM657.7 788.4c-5.5-9.6-2.1-21.8 7.5-27.3l14-8c9.6-5.5 21.8-2.1 27.3 7.5s2.1 21.8-7.4 27.3l-14 8c-3.1 1.8-6.5 2.6-9.9 2.6-7 0-13.8-3.6-17.5-10.1zM750 930c0.1 0.7 0.1 1.3 0.1 2s0 1.3-0.1 2c-0.1 0.6-0.2 1.3-0.3 1.9-0.1 0.6-0.3 1.3-0.5 1.9-0.2 0.6-0.4 1.2-0.7 1.8-0.2 0.6-0.5 1.2-0.8 1.8-0.3 0.6-0.6 1.1-1 1.7-0.4 0.6-0.8 1.1-1.2 1.6-0.4 0.5-0.9 1-1.3 1.5-0.5 0.5-1 0.9-1.5 1.3s-1 0.8-1.6 1.2c-0.5 0.4-1.1 0.7-1.7 1-0.6 0.3-1.2 0.6-1.8 0.8s-1.2 0.5-1.8 0.7c-0.6 0.2-1.3 0.3-1.9 0.5-0.6 0.1-1.3 0.2-1.9 0.3-0.7 0.1-1.3 0.1-2 0.1-0.6 0-1.3 0-2-0.1s-1.3-0.2-1.9-0.3-1.3-0.3-1.9-0.5c-0.6-0.2-1.2-0.4-1.8-0.7-0.6-0.2-1.2-0.5-1.8-0.8-0.6-0.3-1.1-0.6-1.7-1-0.5-0.4-1.1-0.8-1.6-1.2-0.5-0.4-1-0.9-1.5-1.3-0.5-0.5-0.9-1-1.3-1.5s-0.8-1-1.2-1.6c-0.4-0.5-0.7-1.1-1-1.7-0.3-0.6-0.6-1.2-0.8-1.8-0.2-0.6-0.5-1.2-0.7-1.8-0.2-0.6-0.3-1.3-0.5-1.9-0.1-0.6-0.2-1.3-0.3-1.9-0.1-0.7-0.1-1.3-0.1-2s0-1.3 0.1-2c0.1-0.6 0.2-1.3 0.3-1.9 0.1-0.6 0.3-1.3 0.5-1.9 0.2-0.6 0.4-1.2 0.7-1.8 0.2-0.6 0.5-1.2 0.8-1.8 0.3-0.6 0.6-1.1 1-1.7 0.4-0.6 0.8-1.1 1.2-1.6 0.4-0.5 0.9-1 1.3-1.5 0.5-0.5 0.9-0.9 1.5-1.3 0.5-0.4 1-0.8 1.6-1.2 0.5-0.4 1.1-0.7 1.7-1 0.6-0.3 1.2-0.6 1.8-0.8 0.6-0.2 1.2-0.5 1.8-0.7 0.6-0.2 1.3-0.3 1.9-0.5s1.3-0.2 1.9-0.3c1.3-0.1 2.6-0.1 3.9 0 0.6 0.1 1.3 0.2 1.9 0.3 0.6 0.1 1.3 0.3 1.9 0.5 0.6 0.2 1.2 0.4 1.8 0.7s1.2 0.5 1.8 0.8c0.6 0.3 1.1 0.6 1.7 1 0.5 0.4 1.1 0.8 1.6 1.2 0.5 0.4 1 0.9 1.5 1.3 0.5 0.5 0.9 1 1.3 1.5s0.8 1 1.2 1.6c0.4 0.5 0.7 1.1 1 1.7 0.3 0.6 0.6 1.2 0.8 1.8 0.2 0.6 0.5 1.2 0.7 1.8 0.2 0.6 0.4 1.3 0.5 1.9 0.2 0.6 0.3 1.3 0.4 1.9zM750 671.5c0.1 0.7 0.1 1.3 0.1 2s0 1.3-0.1 2c-0.1 0.6-0.2 1.3-0.3 1.9-0.1 0.6-0.3 1.3-0.5 1.9-0.2 0.6-0.4 1.2-0.7 1.8-0.2 0.6-0.5 1.2-0.8 1.8-0.3 0.6-0.6 1.1-1 1.7-0.4 0.6-0.8 1.1-1.2 1.6-0.4 0.5-0.9 1-1.3 1.5-0.5 0.5-1 0.9-1.5 1.3s-1 0.8-1.6 1.2c-0.5 0.4-1.1 0.7-1.7 1-0.6 0.3-1.2 0.6-1.8 0.8s-1.2 0.5-1.8 0.7c-0.6 0.2-1.3 0.3-1.9 0.5-0.6 0.1-1.3 0.2-1.9 0.3-0.7 0.1-1.3 0.1-2 0.1-0.6 0-1.3 0-2-0.1-0.6-0.1-1.3-0.2-1.9-0.3-0.6-0.1-1.3-0.3-1.9-0.5-0.6-0.2-1.2-0.4-1.8-0.7-0.6-0.2-1.2-0.5-1.8-0.8-0.6-0.3-1.1-0.6-1.7-1-0.5-0.4-1.1-0.8-1.6-1.2-0.5-0.4-1-0.9-1.5-1.3-0.5-0.5-0.9-1-1.3-1.5s-0.8-1-1.2-1.6c-0.4-0.5-0.7-1.1-1-1.7-0.3-0.6-0.6-1.2-0.8-1.8-0.2-0.6-0.5-1.2-0.7-1.8-0.2-0.6-0.3-1.3-0.5-1.9-0.1-0.6-0.2-1.3-0.3-1.9-0.1-0.7-0.1-1.3-0.1-2s0-1.3 0.1-2c0.1-0.6 0.2-1.3 0.3-1.9 0.1-0.6 0.3-1.3 0.5-1.9 0.2-0.6 0.4-1.2 0.7-1.8 0.2-0.6 0.5-1.2 0.8-1.8 0.3-0.6 0.6-1.1 1-1.7 0.4-0.6 0.8-1.1 1.2-1.6 0.4-0.5 0.8-1 1.3-1.5s0.9-0.9 1.5-1.3c0.5-0.4 1-0.8 1.6-1.2 0.5-0.4 1.1-0.7 1.7-1 0.6-0.3 1.2-0.6 1.8-0.8 0.6-0.2 1.2-0.5 1.8-0.7s1.3-0.3 1.9-0.5 1.3-0.2 1.9-0.3c1.3-0.1 2.6-0.1 3.9 0 0.6 0.1 1.3 0.2 1.9 0.3 0.6 0.1 1.3 0.3 1.9 0.5 0.6 0.2 1.2 0.4 1.8 0.7s1.2 0.5 1.8 0.8c0.6 0.3 1.1 0.6 1.7 1 0.5 0.4 1.1 0.8 1.6 1.2 0.5 0.4 1 0.9 1.5 1.3 0.5 0.5 0.9 1 1.3 1.5s0.8 1 1.2 1.6c0.4 0.5 0.7 1.1 1 1.7 0.3 0.6 0.6 1.2 0.8 1.8 0.2 0.6 0.5 1.2 0.7 1.8 0.2 0.6 0.4 1.3 0.5 1.9 0.2 0.6 0.3 1.3 0.4 1.9z" fill="#0BA8FF" /></svg>