<?xml version="1.0" standalone="no"?><!DOCTYPE svg PUBLIC "-//W3C//DTD SVG 1.1//EN" "http://www.w3.org/Graphics/SVG/1.1/DTD/svg11.dtd"><svg class="icon" width="200px" height="200.00px" viewBox="0 0 1024 1024" version="1.1" xmlns="http://www.w3.org/2000/svg"><path d="M935.5 429.8c0 106.4-86.5 192.9-192.9 192.9-2 0-3.8-0.1-5.4-0.2-0.9 0.1-1.9 0.2-2.9 0.2H256.7c-1 0-1.9-0.1-2.9-0.2-1.6 0.1-3.4 0.2-5.4 0.2-42.8 0-83-16.6-113.2-46.8-30.2-30.2-46.8-70.4-46.8-113.2s16.6-83 46.9-113.2c27.5-27.4 63.1-43.7 101.5-46.4-0.1-1.7-0.1-3.4-0.1-5.1 0-124.6 101.3-225.9 225.9-225.9 8.3 0 16.6 0.5 24.7 1.3 95.1 10.4 173.5 80 195.1 173.1 19.4-6.5 39.5-9.7 60.1-9.7 106.4 0 193 86.6 193 193z" fill="#97EBFF" /><path d="M282.2 667c-9.9-4.9-21.9-0.9-26.8 8.9l-33 65.9c-4.9 9.9-0.9 21.9 8.9 26.8 2.9 1.4 5.9 2.1 8.9 2.1 7.3 0 14.4-4 17.9-11l33-65.9c4.9-9.8 0.9-21.8-8.9-26.8zM521.7 693.9l-33 65.9c-0.4 0.8-0.9 1.6-1.4 2.3-3.8 5.6-10 8.7-16.5 8.7-3 0-6.1-0.7-8.9-2.1-9.9-4.9-13.9-17-8.9-26.8l33-65.9c0.4-0.8 0.9-1.6 1.4-2.3 5.5-8.1 16.4-11.1 25.5-6.6 9.7 4.9 13.7 16.9 8.8 26.8zM752.3 693.9l-33 65.9c-3.5 7-10.6 11-17.9 11-3 0-6.1-0.7-8.9-2.1-9.9-4.9-13.9-17-8.9-26.8l33-65.9c4.9-9.9 17-13.9 26.8-8.9 9.8 4.9 13.8 16.9 8.9 26.8zM282.2 848.2c-9.9-4.9-21.9-0.9-26.8 8.9l-33 65.9c-4.9 9.9-0.9 21.9 8.9 26.8 2.9 1.4 5.9 2.1 8.9 2.1 7.3 0 14.4-4 17.9-11l33-65.9c4.9-9.8 0.9-21.8-8.9-26.8zM521.7 875l-33 65.9c-0.4 0.8-0.9 1.6-1.4 2.3-3.8 5.5-10 8.7-16.5 8.7-3 0-6.1-0.7-8.9-2.1-9.9-4.9-13.9-17-8.9-26.8l33-65.9c0.4-0.8 0.9-1.6 1.4-2.3 5.5-8.1 16.4-11.1 25.5-6.6 9.7 5 13.7 17 8.8 26.8zM752.3 875l-33 65.9c-3.5 7-10.6 11-17.9 11-3 0-6.1-0.7-8.9-2.1-9.9-4.9-13.9-17-8.9-26.8l33-65.9c4.9-9.9 17-13.9 26.8-8.9s13.8 17 8.9 26.8zM379.3 738.3c-3.8-4.7-9.5-7.5-15.6-7.5s-11.8 2.8-15.6 7.5c-0.4 0.6-11 13.8-21.7 30.1-21.4 32.6-23.9 47.9-23.9 56.5 0 33.7 27.5 61.2 61.2 61.2s61.2-27.5 61.2-61.2c0-8.7-2.5-23.9-23.9-56.5-10.7-16.3-21.2-29.6-21.7-30.1zM672 824.9c0 33.8-27.5 61.2-61.2 61.2s-61.2-27.4-61.2-61.2c0-8.7 2.5-23.9 23.9-56.5 10.7-16.3 21.3-29.5 21.7-30.1 3.8-4.7 9.5-7.5 15.6-7.5s11.8 2.8 15.6 7.5c0.4 0.6 11 13.8 21.7 30.1 21.4 32.6 23.9 47.8 23.9 56.5zM150.3 749.4c-9.9-4.9-21.9-0.9-26.8 9l-32.9 65.9c-4.9 9.9-0.9 21.9 9 26.8 2.9 1.4 5.9 2.1 8.9 2.1 7.3 0 14.4-4.1 17.9-11.1l32.9-65.9c4.9-9.8 0.9-21.9-9-26.8zM884 776.2l-32.9 65.9c-3.5 7-10.6 11.1-17.9 11.1-3 0-6-0.7-8.9-2.1-9.9-4.9-13.9-16.9-9-26.8l32.9-65.9c4.9-9.9 16.9-13.9 26.8-9 9.9 4.9 13.9 16.9 9 26.8zM734.3 622.7h-247V73.4c95.1 10.4 173.5 80 195.1 173.1 19.4-6.5 39.5-9.7 60.1-9.7 106.4 0 193 86.6 193 193S849 622.7 742.6 622.7c-2 0-3.8-0.1-5.4-0.2-1 0.1-1.9 0.2-2.9 0.2z" fill="#07DBFF" /><path d="M521.7 875l-33 65.9c-0.4 0.8-0.9 1.6-1.4 2.3v-88.5c5.5-8.1 16.4-11.1 25.5-6.6 9.8 5.1 13.8 17.1 8.9 26.9zM521.7 693.9l-33 65.9c-0.4 0.8-0.9 1.6-1.4 2.3v-88.5c5.5-8.1 16.4-11.1 25.5-6.6 9.8 5 13.8 17 8.9 26.9zM648.1 768.4c21.4 32.6 23.9 47.9 23.9 56.5 0 33.8-27.5 61.2-61.2 61.2s-61.2-27.4-61.2-61.2c0-8.7 2.5-23.9 23.9-56.5 10.7-16.3 21.3-29.5 21.7-30.1 3.8-4.7 9.5-7.5 15.6-7.5s11.8 2.8 15.6 7.5c0.4 0.5 11 13.8 21.7 30.1zM752.3 875l-33 65.9c-3.5 7-10.6 11-17.9 11-3 0-6.1-0.7-8.9-2.1-9.9-4.9-13.9-17-8.9-26.8l33-65.9c4.9-9.9 17-13.9 26.8-8.9s13.8 17 8.9 26.8zM752.3 693.9l-33 65.9c-3.5 7-10.6 11-17.9 11-3 0-6.1-0.7-8.9-2.1-9.9-4.9-13.9-17-8.9-26.8l33-65.9c4.9-9.9 17-13.9 26.8-8.9 9.8 4.9 13.8 16.9 8.9 26.8zM884 776.2l-32.9 65.9c-3.5 7-10.6 11.1-17.9 11.1-3 0-6-0.7-8.9-2.1-9.9-4.9-13.9-16.9-9-26.8l32.9-65.9c4.9-9.9 16.9-13.9 26.8-9 9.9 4.9 13.9 16.9 9 26.8z" fill="#0BA8FF" /></svg>