<?xml version="1.0" standalone="no"?><!DOCTYPE svg PUBLIC "-//W3C//DTD SVG 1.1//EN" "http://www.w3.org/Graphics/SVG/1.1/DTD/svg11.dtd"><svg class="icon" width="200px" height="200.00px" viewBox="0 0 1024 1024" version="1.1" xmlns="http://www.w3.org/2000/svg"><path d="M347.9 92v840c-104 0-188.1-84.2-188.1-188.2 0-72.4 41-135.3 100.9-166.8V179.3c0-24 9.8-45.8 25.6-61.6 15.8-15.8 37.6-25.7 61.6-25.7z" fill="#F0E203" /><path d="M347.9 159.3v694.2c-60.4 0-109.5-49-109.5-109.5 0-52 36.1-95.5 84.5-106.7v-453c0-13.8 11.2-25 25-25z" fill="#EA440A" /><path d="M536.2 743.8C536.2 847.7 452 932 348 932h-0.1v-78.5c60.4 0 109.5-49.1 109.5-109.5 0.1-52-36-95.5-84.5-106.7v-453c0-13.8-11.2-25-25-25V92h0.1c48 0 87.3 39.2 87.3 87.3v397.9c60 31.3 100.8 94.2 100.9 166.6z" fill="#ED9507" /><path d="M457.4 744c0 60.4-49.1 109.5-109.5 109.5V218.7h25v418.6c48.5 11.2 84.6 54.7 84.5 106.7z" fill="#CE1743" /><path d="M372.9 184.3v34.4h-25v-59.4c13.8 0 25 11.2 25 25z" fill="#EA440A" /><path d="M664.2 275.7c2.4 8.9 10.5 14.9 19.3 14.9 1.7 0 3.4-0.2 5.2-0.7 10.7-2.8 17-13.8 14.2-24.5l-9.6-36c-2.8-10.7-13.8-17-24.5-14.2-10.7 2.8-17 13.8-14.2 24.5l9.6 36zM616.6 315.2c3.9 3.9 9 5.9 14.2 5.9 5.1 0 10.2-1.9 14.1-5.8 7.8-7.8 7.8-20.5 0.1-28.3l-26.3-26.4c-7.8-7.8-20.5-7.8-28.3-0.1-7.8 7.8-7.8 20.5-0.1 28.3l26.3 26.4zM559 363.5l36 9.6c1.7 0.5 3.5 0.7 5.2 0.7 8.8 0 16.9-5.9 19.3-14.9 2.8-10.7-3.5-21.6-14.2-24.5l-36-9.6c-10.7-2.8-21.6 3.5-24.5 14.2-2.8 10.7 3.6 21.7 14.2 24.5zM619.5 409.9c-2.8-10.7-13.8-17-24.5-14.2l-36 9.6c-10.7 2.8-17 13.8-14.2 24.5 2.4 8.9 10.5 14.9 19.3 14.9 1.7 0 3.4-0.2 5.2-0.7l36-9.6c10.7-2.8 17.1-13.8 14.2-24.5zM616.6 453.7l-26.3 26.4c-7.8 7.8-7.8 20.5 0.1 28.3 3.9 3.9 9 5.8 14.1 5.8s10.3-2 14.2-5.9l26.3-26.4c7.8-7.8 7.8-20.5-0.1-28.3-7.8-7.8-20.5-7.7-28.3 0.1zM688.7 479.2c-10.7-2.8-21.6 3.5-24.5 14.2l-9.6 36c-2.8 10.7 3.5 21.6 14.2 24.5 1.7 0.5 3.5 0.7 5.2 0.7 8.8 0 16.9-5.9 19.3-14.9l9.6-36c2.8-10.7-3.6-21.7-14.2-24.5z" fill="#F0E203" /><path d="M714.2 384.5m-92.9 0a92.9 92.9 0 1 0 185.8 0 92.9 92.9 0 1 0-185.8 0Z" fill="#F0E203" /><path d="M505.1 258.7H328.2c-11 0-20-9-20-20s9-20 20-20h176.9c11 0 20 9 20 20s-9 20-20 20z" fill="#CE1743" /><path d="M714.2 477.4V291.6c51.2 0 92.9 41.7 92.9 92.9s-41.7 92.9-92.9 92.9zM773.8 529.3c2.9 10.7-3.4 21.6-14.1 24.5-1.7 0.5-3.5 0.7-5.2 0.7-8.8 0-16.9-5.9-19.3-14.8l-9.7-36c-2.9-10.7 3.4-21.6 14.1-24.5 10.7-2.9 21.6 3.4 24.5 14.1l9.7 36zM725.5 265.3l9.7-36c2.9-10.7 13.8-17 24.5-14.1 10.7 2.9 17 13.8 14.1 24.5l-9.7 36c-2.4 8.9-10.5 14.8-19.3 14.8-1.7 0-3.5-0.2-5.2-0.7-10.7-2.9-17-13.8-14.1-24.5zM838 480.1c7.8 7.8 7.8 20.5 0 28.3-3.9 3.9-9 5.9-14.1 5.9s-10.2-2-14.1-5.9L783.4 482c-7.8-7.8-7.8-20.5 0-28.3s20.5-7.8 28.3 0l26.3 26.4z" fill="#ED9507" /><path d="M783.4 315.2c-7.8-7.8-7.8-20.5 0-28.3l26.4-26.4c7.8-7.8 20.5-7.8 28.3 0s7.8 20.5 0 28.3l-26.4 26.4c-3.9 3.9-9 5.9-14.1 5.9s-10.3-1.9-14.2-5.9zM883.5 429.8c-2.4 9-10.5 14.9-19.3 14.9-1.7 0-3.4-0.2-5.2-0.7l-36-9.6c-10.7-2.8-17-13.8-14.2-24.5 2.8-10.7 13.8-17 24.5-14.2l36 9.6c10.7 2.9 17.1 13.9 14.2 24.5zM823 334.5l36-9.6c10.7-2.8 21.6 3.5 24.5 14.2 2.8 10.7-3.5 21.6-14.2 24.5l-36 9.6c-1.7 0.5-3.5 0.7-5.2 0.7-8.8 0-16.9-5.9-19.3-14.8-2.8-10.8 3.6-21.8 14.2-24.6z" fill="#ED9507" /><path d="M347.9 159.3v59.4h-25v-34.4c0-13.8 11.2-25 25-25z" fill="#ED9507" /><path d="M372.9 184.3v34.4h-25v-59.4c13.8 0 25 11.2 25 25z" fill="#EA440A" /></svg>