<?xml version="1.0" standalone="no"?><!DOCTYPE svg PUBLIC "-//W3C//DTD SVG 1.1//EN" "http://www.w3.org/Graphics/SVG/1.1/DTD/svg11.dtd"><svg class="icon" width="200px" height="200.00px" viewBox="0 0 1024 1024" version="1.1" xmlns="http://www.w3.org/2000/svg"><path d="M897 543c0 104.1-84.7 188.8-188.8 188.8-1.9 0-3.6-0.1-5.2-0.2-0.9 0.1-1.9 0.2-2.8 0.2H236.9c-0.9 0-1.8 0-2.6-0.2-1.7 0.1-3.5 0.2-5.4 0.2-86.6 0-156.9-70.3-156.9-156.9 0-82.1 63.4-149.6 143.7-156.4v-3.4c0-121.7 99-220.7 220.7-220.7 16.4 0 32.5 1.8 48 5.3C565.9 217.9 631 281 650.8 363.2c18.4-5.9 37.5-9 57.1-9 104 0 188.9 84.7 189.1 188.8z" fill="#97EBFF" /><path d="M897 543c0 104.1-84.7 188.8-188.8 188.8-1.9 0-3.6-0.1-5.2-0.2-0.9 0.1-1.9 0.2-2.8 0.2H484.5v-532C565.9 217.9 631 281 650.8 363.2c18.4-5.9 37.5-9 57.1-9 104 0 188.9 84.7 189.1 188.8z" fill="#07DBFF" /><path d="M952.1 704.9c0 65.9-53.5 119.4-119.4 119.4-1.2 0-2.3-0.1-3.3-0.1-0.6 0.1-1.2 0.1-1.8 0.1h-293c-0.6 0-1.1 0-1.7-0.1-1.1 0.1-2.2 0.1-3.4 0.1-54.7 0-99.2-44.5-99.2-99.2 0-51.9 40.1-94.6 90.9-98.9v-2.1c0-77 62.6-139.6 139.6-139.6 10.4 0 20.6 1.1 30.4 3.3 51.5 11.5 92.7 51.3 105.2 103.4 11.7-3.7 23.7-5.7 36.1-5.7 65.8 0 119.5 53.6 119.6 119.4z" fill="#0BA8FF" /><path d="M952.1 704.9c0 65.9-53.5 119.4-119.4 119.4-1.2 0-2.3-0.1-3.3-0.1-0.6 0.1-1.2 0.1-1.8 0.1H691.2V487.8c51.5 11.5 92.7 51.3 105.2 103.4 11.7-3.7 23.7-5.7 36.1-5.7 65.8 0 119.5 53.6 119.6 119.4z" fill="#0F82EA" /></svg>