<?xml version="1.0" standalone="no"?><!DOCTYPE svg PUBLIC "-//W3C//DTD SVG 1.1//EN" "http://www.w3.org/Graphics/SVG/1.1/DTD/svg11.dtd"><svg class="icon" width="200px" height="200.00px" viewBox="0 0 1024 1024" version="1.1" xmlns="http://www.w3.org/2000/svg"><path d="M435.3 577.2V179.3C435.3 131.2 396 92 348 92c-48.1 0-87.3 39.4-87.3 87.3V577c-59.9 31.5-100.9 94.4-100.9 166.8C159.8 847.8 244 932 348 932s188.2-84.3 188.2-188.2c-0.1-72.4-40.9-135.3-100.9-166.6z" fill="#97EBFF" /><path d="M372.9 637.3v-453c0-13.8-11.2-25-25-25s-25 11.2-25 25v453c-48.4 11.2-84.5 54.7-84.5 106.7 0 60.5 49.1 109.5 109.5 109.5S457.4 804.4 457.4 744c0.1-52-36-95.5-84.5-106.7zM850 419.1l-27.2 7.3c-2.2 0.6-4.2 1.7-5.9 3.1-0.1-0.1-0.2-0.1-0.3-0.2l-16.7-9.7 33.3-9c8-2.1 12.7-10.4 10.6-18.4-0.9-3.2-2.7-5.9-5.1-7.8 2.4-1.9 4.3-4.6 5.1-7.8 2.1-8-2.6-16.2-10.6-18.4l-33.3-8.9 16.8-9.7c0.1 0 0.2-0.1 0.2-0.2 1.7 1.5 3.7 2.6 5.9 3.2L850 350c1.3 0.4 2.6 0.5 3.9 0.5 6.6 0 12.7-4.4 14.5-11.1 2.1-8-2.6-16.2-10.6-18.4l-26.4-7.1 7.1-26.6c2.1-8-2.6-16.2-10.6-18.3-8-2.1-16.2 2.6-18.3 10.6l-7.3 27.4c-0.6 2.2-0.6 4.4-0.3 6.5-0.1 0.1-0.2 0.1-0.4 0.2l-16.7 9.7 8.9-33.2c2.1-8-2.6-16.2-10.6-18.4-3.2-0.8-6.4-0.6-9.2 0.5-0.5-3.1-1.8-6-4.2-8.4-5.9-5.9-15.4-5.9-21.2 0l-24.4 24.4V269v-0.3c2.1-0.7 4-1.9 5.7-3.6l19.9-20.1c5.8-5.9 5.8-15.4-0.1-21.2-5.9-5.8-15.4-5.8-21.2 0.1L709 243.4 689.8 224c-5.8-5.9-15.3-5.9-21.2-0.1-5.9 5.8-5.9 15.3-0.1 21.2l19.9 20.1c1.7 1.7 3.7 2.9 5.8 3.6V288.4l-24.5-24.5c-5.9-5.9-15.4-5.9-21.2 0-2.4 2.4-3.8 5.3-4.2 8.4-2.8-1.1-6-1.3-9.1-0.5-8 2.1-12.8 10.4-10.6 18.4l8.9 33.3-16.8-9.7c-0.1 0-0.2-0.1-0.3-0.1 0.4-2.1 0.3-4.3-0.2-6.5l-7.3-27.4c-2.1-8-10.3-12.8-18.3-10.6-8 2.1-12.8 10.3-10.6 18.3l7.1 26.5-26.5 7.1c-8 2.1-12.7 10.4-10.6 18.4 1.8 6.7 7.9 11.1 14.5 11.1 1.3 0 2.6-0.2 3.9-0.5l27.2-7.3c2.3-0.6 4.3-1.7 5.9-3.2 0.1 0.1 0.2 0.1 0.2 0.2l16.8 9.7-33.3 8.9c-8 2.1-12.8 10.4-10.6 18.4 0.9 3.2 2.7 5.9 5.1 7.8-2.4 1.9-4.2 4.6-5.1 7.8-2.2 8 2.6 16.2 10.6 18.4l33.3 9-16.7 9.7c-0.1 0.1-0.2 0.1-0.3 0.2-1.6-1.4-3.6-2.5-5.9-3.1l-27.2-7.3c-8-2.1-16.2 2.6-18.4 10.6-2.1 8 2.6 16.2 10.6 18.4l26.5 7.1-7.1 26.4c-2.1 8 2.6 16.2 10.6 18.4 1.3 0.4 2.6 0.5 3.9 0.5 6.6 0 12.7-4.4 14.5-11.1l7.3-27.3c0.6-2.2 0.6-4.5 0.2-6.7 0.1 0 0.2-0.1 0.3-0.1l16.8-9.8-8.9 33.5c-2.1 8 2.6 16.2 10.6 18.4 1.3 0.3 2.6 0.5 3.9 0.5 1.8 0 3.6-0.4 5.3-1 0.5 3 1.9 5.9 4.2 8.2 2.9 2.9 6.8 4.4 10.6 4.4s7.7-1.5 10.6-4.4l24.5-24.5V500.4c-2.1 0.7-4.1 1.9-5.7 3.6l-19.9 19.9c-5.9 5.9-5.9 15.4 0 21.2 2.9 2.9 6.8 4.4 10.6 4.4s7.7-1.5 10.6-4.4l19.3-19.3 19.3 19.3c2.9 2.9 6.8 4.4 10.6 4.4s7.7-1.5 10.6-4.4c5.9-5.9 5.9-15.4 0-21.2L729.7 504c-1.7-1.6-3.6-2.8-5.6-3.5v-19.8l24.4 24.4c2.9 2.9 6.8 4.4 10.6 4.4s7.7-1.5 10.6-4.4c2.3-2.3 3.7-5.2 4.2-8.2 1.7 0.7 3.5 1 5.4 1 1.3 0 2.6-0.2 3.9-0.5 8-2.1 12.8-10.4 10.6-18.4l-8.9-33.4 16.7 9.7c0.1 0.1 0.3 0.1 0.4 0.2-0.4 2.1-0.4 4.4 0.2 6.6l7.3 27.3c1.8 6.7 7.8 11.1 14.5 11.1 1.3 0 2.6-0.2 3.9-0.5 8-2.1 12.8-10.4 10.6-18.4l-7.1-26.5 26.4-7.1c8-2.2 12.8-10.4 10.6-18.4-2.2-7.9-10.4-12.6-18.4-10.5z m-202.7-22.7l-44.2-11.9 44.2-11.8c2.2-0.6 4.2-1.7 5.9-3.1l25.9 14.9-25.9 15c-1.7-1.4-3.7-2.5-5.9-3.1z m46.8 43.9c-2.1 0.7-4 1.9-5.7 3.5L656.2 476l11.8-44c0.6-2.2 0.6-4.5 0.2-6.6l25.9-14.9v29.8z m0-81.7l-25.9-14.9c0.4-2.1 0.4-4.4-0.2-6.6L656.2 293l32.2 32.2c1.7 1.7 3.6 2.8 5.7 3.5v29.9z m30-30c2.1-0.7 4-1.9 5.6-3.5l32.3-32.3-11.8 44.2c-0.6 2.2-0.6 4.4-0.2 6.5l-25.9 14.9v-29.8z m5.6 115.3c-1.6-1.6-3.6-2.8-5.6-3.5v-29.9l25.9 14.9c-0.4 2.1-0.3 4.3 0.2 6.5l11.8 44.2-32.3-32.2z m41.1-47.5c-2.2 0.6-4.2 1.7-5.8 3l-25.9-15 25.9-14.9c1.7 1.4 3.6 2.5 5.9 3.1l44.2 11.8-44.3 12z" fill="#07DBFF" /><path d="M850 419.1l-27.2 7.3c-2.2 0.6-4.2 1.7-5.9 3.1-0.1-0.1-0.2-0.1-0.3-0.2l-16.7-9.7 33.3-9c8-2.1 12.7-10.4 10.6-18.4-0.9-3.2-2.7-5.9-5.1-7.8 2.4-1.9 4.3-4.6 5.1-7.8 2.1-8-2.6-16.2-10.6-18.4l-33.3-8.9 16.8-9.7c0.1 0 0.2-0.1 0.2-0.2 1.7 1.5 3.7 2.6 5.9 3.2L850 350c1.3 0.4 2.6 0.5 3.9 0.5 6.6 0 12.7-4.4 14.5-11.1 2.1-8-2.6-16.2-10.6-18.4l-26.4-7.1 7.1-26.6c2.1-8-2.6-16.2-10.6-18.3-8-2.1-16.2 2.6-18.3 10.6l-7.3 27.4c-0.6 2.2-0.6 4.4-0.3 6.5-0.1 0.1-0.2 0.1-0.4 0.2l-16.7 9.7 8.9-33.2c2.1-8-2.6-16.2-10.6-18.4-3.2-0.8-6.4-0.6-9.2 0.5-0.5-3.1-1.8-6-4.2-8.4-5.9-5.9-15.4-5.9-21.2 0l-24.4 24.4V269v-0.3c2.1-0.7 4-1.9 5.7-3.6l19.9-20.1c5.8-5.9 5.8-15.4-0.1-21.2-5.9-5.8-15.4-5.8-21.2 0.1L709 243.4v282.3l19.3 19.3c2.9 2.9 6.8 4.4 10.6 4.4s7.7-1.5 10.6-4.4c5.9-5.9 5.9-15.4 0-21.2L729.7 504c-1.7-1.6-3.6-2.8-5.6-3.5v-19.8l24.4 24.4c2.9 2.9 6.8 4.4 10.6 4.4s7.7-1.5 10.6-4.4c2.3-2.3 3.7-5.2 4.2-8.2 1.7 0.7 3.5 1 5.4 1 1.3 0 2.6-0.2 3.9-0.5 8-2.1 12.8-10.4 10.6-18.4l-8.9-33.4 16.7 9.7c0.1 0.1 0.3 0.1 0.4 0.2-0.4 2.1-0.4 4.4 0.2 6.6l7.3 27.3c1.8 6.7 7.8 11.1 14.5 11.1 1.3 0 2.6-0.2 3.9-0.5 8-2.1 12.8-10.4 10.6-18.4l-7.1-26.5 26.4-7.1c8-2.2 12.8-10.4 10.6-18.4-2.2-7.9-10.4-12.6-18.4-10.5z m-125.9-90.5c2.1-0.7 4-1.9 5.6-3.5l32.3-32.3-11.8 44.2c-0.6 2.2-0.6 4.4-0.2 6.5l-25.9 14.9v-29.8z m5.6 115.3c-1.6-1.6-3.6-2.8-5.6-3.5v-29.9l25.9 14.9c-0.4 2.1-0.3 4.3 0.2 6.5l11.8 44.2-32.3-32.2z m41.1-47.5c-2.2 0.6-4.2 1.7-5.8 3l-25.9-15 25.9-14.9c1.7 1.4 3.6 2.5 5.9 3.1l44.2 11.8-44.3 12z" fill="#0BA8FF" /><path d="M536.2 743.8C536.2 847.7 452 932 348 932h-0.1V92h0.1c48 0 87.3 39.2 87.3 87.3v397.9c60 31.3 100.8 94.2 100.9 166.6z" fill="#97EBFF" /><path d="M435.3 577.2V179.3C435.3 131.2 396 92 348 92h-0.1v840h0.1c104 0 188.2-84.3 188.2-188.2-0.1-72.4-40.9-135.3-100.9-166.6z" fill="#07DBFF" /><path d="M457.4 744c0 60.4-49.1 109.5-109.5 109.5V159.3c13.8 0 25 11.2 25 25v453c48.5 11.2 84.6 54.7 84.5 106.7z" fill="#0BA8FF" /><path d="M457.4 744c0 60.4-49.1 109.5-109.5 109.5s-109.5-49-109.5-109.5c0-52 36.1-95.5 84.5-106.7V515.2c1.7-0.5 3.5-0.7 5.3-0.7h44.7v122.8c48.5 11.2 84.6 54.7 84.5 106.7z" fill="#0BA8FF" /><path d="M525.1 534.5c0 11-8.9 20-20 20H328.2c-1.8 0-3.6-0.2-5.3-0.7-8.5-2.3-14.7-10.1-14.7-19.3s6.2-17 14.7-19.3c1.7-0.5 3.5-0.7 5.3-0.7h176.9c11.1 0 20 9 20 20z" fill="#0F82EA" /><path d="M457.4 744c0 60.4-49.1 109.5-109.5 109.5v-339h25v122.8c48.5 11.2 84.6 54.7 84.5 106.7z" fill="#0F82EA" /></svg>