<?xml version="1.0" standalone="no"?><!DOCTYPE svg PUBLIC "-//W3C//DTD SVG 1.1//EN" "http://www.w3.org/Graphics/SVG/1.1/DTD/svg11.dtd"><svg class="icon" width="200px" height="200.00px" viewBox="0 0 1024 1024" version="1.1" xmlns="http://www.w3.org/2000/svg"><path d="M130.248261 253.60531a51.1 51.1 0 1 0 39.110247-94.420488 51.1 51.1 0 1 0-39.110247 94.420488Z" fill="#F0E203" /><path d="M706.985219 690.720463a51.1 51.1 0 1 0 23.48678-99.464623 51.1 51.1 0 1 0-23.48678 99.464623Z" fill="#F0E203" /><path d="M532 900.9c0 19.8-11.3 37-27.8 45.5-7 3.6-14.9 5.6-23.3 5.6-28.2 0-51.1-22.9-51.1-51.1 0-28.2 22.9-51.1 51.1-51.1 8.4 0 16.3 2 23.3 5.6 16.5 8.5 27.8 25.7 27.8 45.5zM200.9 709.8c-28.2 0-51.1 22.9-51.1 51.1s22.9 51.1 51.1 51.1 51.1-22.9 51.1-51.1-22.9-51.1-51.1-51.1z" fill="#F0E203" /><path d="M889.197542 764.036034a51.1 51.1 0 1 0 23.48678-99.464622 51.1 51.1 0 1 0-23.48678 99.464622Z" fill="#F0E203" /><path d="M833.658403 532.535888a51.1 51.1 0 1 0 72.265052-72.267575 51.1 51.1 0 1 0-72.265052 72.267575Z" fill="#F0E203" /><path d="M812 232c0 11-9 20-20 20H232c-11 0-20-9-20-20s9-20 20-20h560c11 0 20 9 20 20zM858.7 325.3c0 11-9 20-20 20H309.8c-11 0-20-9-20-20s9-20 20-20h528.9c11.1 0 20 8.9 20 20zM812 418.7c0 11-9 20-20 20H387.6c-11 0-20-9-20-20s9-20 20-20H792c11 0 20 9 20 20zM749.8 512c0 11-9 20-20 20H340.9c-11.1 0-20-9-20-20s8.9-20 20-20h388.9c11 0 20 9 20 20zM640.9 605.3c0 11-9 20-20 20H278.7c-11 0-20-9-20-20s9-20 20-20h342.2c11.1 0 20 8.9 20 20zM594.2 698.7c0 11-9 20-20 20H309.8c-11 0-20-9-20-20s9-20 20-20h264.4c11 0 20 9 20 20zM594.2 792c0 11-9 20-20 20h-140c-11 0-20-9-20-20s9-20 20-20h140c11 0 20 9 20 20zM274.4 356.5h-0.2c-28.2 0-51 22.9-51 51.1 0 28.2 22.9 51.1 51.1 51.1 28.2 0 51.1-22.9 51.1-51.1 0-13.7-5.4-26.6-15.1-36.3-9.7-9.6-22.4-14.8-35.9-14.8z" fill="#F0E203" /><path d="M818.061282 159.238838a51.1 51.1 0 1 0 72.265051-72.267575 51.1 51.1 0 1 0-72.265051 72.267575Z" fill="#F0E203" /><path d="M174.2 527.6c0-28.2-22.9-51.1-51.1-51.1S72 499.4 72 527.6c0 28.2 22.9 51.1 51.1 51.1s51.1-22.9 51.1-51.1zM780.9 807.6c0 28.2-22.9 51.1-51.1 51.1s-51.1-22.9-51.1-51.1c0-28.1 22.9-51.1 51-51.1h0.3c13.5 0 26.2 5.2 35.8 14.8 9.7 9.7 15.1 22.6 15.1 36.3z" fill="#F0E203" /><path d="M532 900.9c0 19.8-11.3 37-27.8 45.5v-90.9c16.5 8.4 27.8 25.6 27.8 45.4zM594.2 792c0 11-9 20-20 20h-70v-40h70c11 0 20 9 20 20zM594.2 698.7c0 11-9 20-20 20h-70v-40h70c11 0 20 9 20 20zM640.9 605.3c0 11-9 20-20 20H504.2v-40h116.7c11.1 0 20 8.9 20 20zM729.8 532H504.2v-40h225.6c11 0 20 9 20 20s-9 20-20 20z" fill="#ED9507" /><path d="M706.985219 690.720463a51.1 51.1 0 1 0 23.48678-99.464623 51.1 51.1 0 1 0-23.48678 99.464623Z" fill="#ED9507" /><path d="M765.8 771.3c9.7 9.7 15.1 22.6 15.1 36.3 0 28.2-22.9 51.1-51.1 51.1s-51.1-22.9-51.1-51.1c0-28.1 22.9-51.1 51-51.1h0.3c13.5 0 26.2 5.3 35.8 14.8zM812 418.7c0 11-9 20-20 20H504.2v-40H792c11 0 20 9 20 20zM792 252H504.2v-40H792c11 0 20 9 20 20s-9 20-20 20zM838.7 345.3H504.2v-40h334.5c11 0 20 9 20 20s-8.9 20-20 20z" fill="#ED9507" /><path d="M818.061282 159.238838a51.1 51.1 0 1 0 72.265051-72.267575 51.1 51.1 0 1 0-72.265051 72.267575Z" fill="#ED9507" /><path d="M858.105979 546.216696a51.1 51.1 0 1 0 23.48678-99.464623 51.1 51.1 0 1 0-23.48678 99.464623Z" fill="#ED9507" /><path d="M889.197542 764.036034a51.1 51.1 0 1 0 23.48678-99.464622 51.1 51.1 0 1 0-23.48678 99.464622Z" fill="#ED9507" /></svg>