<?xml version="1.0" standalone="no"?><!DOCTYPE svg PUBLIC "-//W3C//DTD SVG 1.1//EN" "http://www.w3.org/Graphics/SVG/1.1/DTD/svg11.dtd"><svg class="icon" width="200px" height="200.00px" viewBox="0 0 1024 1024" version="1.1" xmlns="http://www.w3.org/2000/svg"><path d="M246 828.4c-11 0-20 9-20 20v61.3c0 11 9 20 20 20s20-8.9 20-20v-61.3c0-11-9-20-20-20zM480.4 848.4v61.3c0 11.1-9 20-20 20s-20-9-20-20v-61.3c0-11 9-20 20-20s20 9 20 20z" fill="#97EBFF" /><path d="M674.8 828.4c-11 0-20 9-20 20v61.3c0 11 9 20 20 20s20-8.9 20-20v-61.3c0-11-9-20-20-20z" fill="#07DBFF" /><path d="M823.2 420.5c0 25.8-4.9 50.8-14.5 74.5-3.2 7.8-10.7 12.5-18.6 12.5-2.5 0-5.1-0.5-7.5-1.5-7.7-3.2-12.4-10.5-12.4-18.4H491.9l-0.3-163.7c-4.7 0-9.3-1.6-13.1-4.8-8.3-7.2-9.2-19.9-2-28.2 37.6-43.2 91.9-68 149.1-68h1.7c108.1 0.9 195.9 89.2 195.9 197.6zM543.9 193c2.4 8.9 10.5 14.8 19.3 14.8 1.7 0 3.5-0.3 5.2-0.7 10.6-2.9 17-13.8 14.1-24.5l-19.7-73.5c-2.9-10.6-13.8-17-24.5-14.1-10.6 2.9-17 13.8-14.1 24.5l19.7 73.5zM469.4 236l-53.8-53.8c-7.8-7.8-20.5-7.8-28.3 0s-7.8 20.5 0 28.3l53.8 53.7c3.9 3.9 9 5.9 14.1 5.9s10.3-1.9 14.2-5.8c7.8-7.8 7.8-20.5 0-28.3z" fill="#F0E203" /><path d="M668.7 182.6l19.7-73.5c2.9-10.7 13.8-17 24.5-14.1s17 13.8 14.1 24.5L707.3 193c-2.4 8.9-10.5 14.8-19.3 14.8-1.7 0-3.5-0.2-5.2-0.7-10.7-2.9-17-13.8-14.1-24.5zM823.2 420.5c0 25.8-4.9 50.8-14.5 74.5-3.2 7.8-10.7 12.5-18.6 12.5-2.5 0-5.1-0.5-7.5-1.5-7.7-3.2-12.4-10.5-12.4-18.4H627.3V222.9c108.1 0.9 195.9 89.2 195.9 197.6zM781.9 264.2c-7.8-7.8-7.8-20.5 0-28.3l53.8-53.8c7.8-7.8 20.5-7.8 28.3 0s7.8 20.5 0 28.3l-53.8 53.8c-3.9 4-9.1 5.9-14.2 5.9s-10.2-2-14.1-5.9zM951.2 507.8c-2.4 8.9-10.5 14.8-19.3 14.8-1.7 0-3.5-0.2-5.2-0.7l-73.5-19.7c-10.7-2.9-17-13.8-14.1-24.5s13.8-17 24.5-14.1l73.5 19.7c10.7 2.9 17 13.8 14.1 24.5zM853.2 338.9l73.5-19.7c10.7-2.9 21.6 3.5 24.5 14.1s-3.5 21.6-14.1 24.5l-73.5 19.7c-1.8 0.4-3.5 0.7-5.2 0.7-8.8 0-16.9-5.9-19.3-14.8-2.9-10.7 3.5-21.6 14.1-24.5z" fill="#ED9507" /><path d="M855.5 609c0 98.9-80.4 179.3-179.3 179.3-1.8 0-3.4-0.1-4.9-0.2-0.9 0.1-1.8 0.2-2.7 0.2h-440c-0.9 0-1.7 0-2.5-0.2-1.6 0.1-3.3 0.2-5.1 0.2-82.2 0-149-66.8-149-149 0-78 60.2-142.1 136.5-148.5v-3.2c0-115.6 94-209.6 209.6-209.6 15.6 0 30.9 1.7 45.6 5 77.3 17.2 139.2 77.1 158 155.2 17.5-5.6 35.6-8.5 54.2-8.5 98.8 0 179.4 80.4 179.6 179.3z" fill="#97EBFF" /><path d="M855.5 609c0 98.9-80.4 179.3-179.3 179.3-1.8 0-3.4-0.1-4.9-0.2-0.9 0.1-1.8 0.2-2.7 0.2H463.7V283c77.3 17.2 139.2 77.1 158 155.2 17.5-5.6 35.6-8.5 54.2-8.5 98.8 0 179.4 80.4 179.6 179.3zM480.4 848.4v61.3c0 11.1-9 20-20 20V828.4c11 0 20 9 20 20z" fill="#07DBFF" /></svg>