<?xml version="1.0" standalone="no"?><!DOCTYPE svg PUBLIC "-//W3C//DTD SVG 1.1//EN" "http://www.w3.org/Graphics/SVG/1.1/DTD/svg11.dtd"><svg class="icon" width="200px" height="200.00px" viewBox="0 0 1024 1024" version="1.1" xmlns="http://www.w3.org/2000/svg"><path d="M383.4 858.7c-11 0-20-9-20-20v-17.1c0-11 9-20 20-20s20 9 20 20v17.1c0 11-9 20-20 20zM338.9 884.4c-3.4 0-6.8-0.8-9.9-2.6l-14.9-8.5c-9.6-5.5-12.9-17.7-7.5-27.3 5.5-9.6 17.7-12.9 27.3-7.5l14.9 8.5c9.6 5.5 12.9 17.7 7.5 27.3-3.7 6.5-10.5 10.1-17.4 10.1zM324 944.4c-6.9 0-13.7-3.6-17.4-10.1-5.5-9.6-2.1-21.8 7.5-27.3l14.9-8.5c9.6-5.5 21.8-2.1 27.3 7.5s2.1 21.8-7.5 27.3l-14.9 8.5c-3.1 1.8-6.5 2.6-9.9 2.6zM383.4 978.7c-11 0-20-9-20-20v-17.1c0-11 9-20 20-20s20 9 20 20v17.1c0 11-9 20-20 20zM442.8 944.4c-3.4 0-6.8-0.9-9.9-2.7l-14.8-8.5c-9.6-5.5-12.9-17.7-7.4-27.3s17.7-12.9 27.3-7.4l14.8 8.5c9.6 5.5 12.9 17.7 7.4 27.3-3.8 6.5-10.5 10.1-17.4 10.1zM428 884.4c-6.9 0-13.7-3.6-17.4-10-5.5-9.6-2.2-21.8 7.4-27.3l14.8-8.5c9.6-5.5 21.8-2.2 27.3 7.4 5.5 9.6 2.2 21.8-7.4 27.3l-14.8 8.5c-3.1 1.7-6.5 2.6-9.9 2.6zM383.4 910.1c-0.6 0-1.3 0-2-0.1-0.6-0.1-1.3-0.2-1.9-0.3s-1.3-0.3-1.9-0.5-1.2-0.4-1.8-0.7c-0.6-0.2-1.2-0.5-1.8-0.8-0.6-0.3-1.1-0.6-1.7-1-0.5-0.4-1.1-0.8-1.6-1.2s-1-0.9-1.5-1.3-0.9-1-1.3-1.5-0.8-1-1.2-1.6c-0.4-0.5-0.7-1.1-1-1.7-0.3-0.6-0.6-1.2-0.8-1.8-0.2-0.6-0.5-1.2-0.7-1.8s-0.4-1.3-0.5-1.9c-0.1-0.6-0.2-1.3-0.3-1.9-0.1-0.7-0.1-1.3-0.1-2 0-0.6 0-1.3 0.1-2 0.1-0.6 0.2-1.3 0.3-1.9 0.1-0.6 0.3-1.3 0.5-1.9 0.2-0.6 0.4-1.2 0.7-1.8 0.2-0.6 0.5-1.2 0.8-1.8s0.6-1.1 1-1.7c0.4-0.5 0.8-1.1 1.2-1.6 0.4-0.5 0.9-1 1.3-1.5s1-0.9 1.5-1.3 1-0.8 1.6-1.2c0.5-0.4 1.1-0.7 1.7-1s1.2-0.6 1.8-0.8c0.6-0.2 1.2-0.5 1.8-0.7 0.6-0.2 1.3-0.3 1.9-0.5 0.6-0.1 1.3-0.2 1.9-0.3 1.3-0.1 2.6-0.1 3.9 0 0.6 0.1 1.3 0.2 1.9 0.3s1.3 0.3 1.9 0.5 1.2 0.4 1.8 0.7 1.2 0.5 1.8 0.8c0.6 0.3 1.1 0.6 1.7 1 0.5 0.4 1.1 0.8 1.6 1.2s1 0.9 1.5 1.3c0.5 0.5 0.9 1 1.3 1.5s0.8 1 1.2 1.6c0.4 0.5 0.7 1.1 1 1.7 0.3 0.6 0.6 1.2 0.8 1.8 0.2 0.6 0.5 1.2 0.7 1.8s0.4 1.3 0.5 1.9c0.1 0.6 0.2 1.3 0.3 1.9 0.1 0.7 0.1 1.3 0.1 2s0 1.3-0.1 2c-0.1 0.6-0.2 1.3-0.3 1.9-0.1 0.6-0.3 1.3-0.5 1.9-0.2 0.6-0.4 1.2-0.7 1.8-0.2 0.6-0.5 1.2-0.8 1.8s-0.6 1.1-1 1.7c-0.4 0.5-0.8 1.1-1.2 1.6-0.4 0.5-0.9 1-1.3 1.5-0.5 0.5-1 0.9-1.5 1.3s-1 0.8-1.6 1.2c-0.5 0.4-1.1 0.7-1.7 1s-1.2 0.6-1.8 0.8-1.2 0.5-1.8 0.7c-0.6 0.2-1.3 0.4-1.9 0.5s-1.3 0.2-1.9 0.3c-0.6 0.1-1.3 0.1-1.9 0.1z" fill="#07DBFF" /><path d="M640.6 858.7c-11 0-20-9-20-20v-17.1c0-11 9-20 20-20s20 9 20 20v17.1c0 11-9 20-20 20zM596 884.4c-3.4 0-6.8-0.9-9.9-2.7l-14.8-8.5c-9.6-5.5-12.9-17.7-7.4-27.3s17.7-12.9 27.3-7.4L606 847c9.6 5.5 12.9 17.7 7.4 27.3-3.8 6.5-10.5 10.1-17.4 10.1zM581.2 944.4c-6.9 0-13.7-3.6-17.4-10-5.5-9.6-2.2-21.8 7.4-27.3l14.8-8.5c9.6-5.5 21.8-2.2 27.3 7.4 5.5 9.6 2.2 21.8-7.4 27.3l-14.8 8.5c-3.1 1.7-6.5 2.6-9.9 2.6zM640.6 978.7c-11 0-20-9-20-20v-17.1c0-11 9-20 20-20s20 9 20 20v17.1c0 11-9 20-20 20zM700 944.4c-3.4 0-6.8-0.8-9.9-2.6l-14.9-8.5c-9.6-5.5-12.9-17.7-7.5-27.3 5.5-9.6 17.7-12.9 27.3-7.5l14.9 8.5c9.6 5.5 12.9 17.7 7.5 27.3-3.7 6.5-10.5 10.1-17.4 10.1zM685.1 884.4c-6.9 0-13.7-3.6-17.4-10.1-5.5-9.6-2.1-21.8 7.5-27.3l14.9-8.5c9.6-5.5 21.8-2.1 27.3 7.5s2.1 21.8-7.5 27.3l-14.9 8.5c-3.1 1.8-6.5 2.6-9.9 2.6zM640.6 910.1c-0.6 0-1.3 0-2-0.1s-1.3-0.2-1.9-0.3c-0.6-0.1-1.3-0.3-1.9-0.5-0.6-0.2-1.2-0.4-1.8-0.7-0.6-0.2-1.2-0.5-1.8-0.8s-1.1-0.6-1.7-1c-0.5-0.4-1.1-0.8-1.6-1.2s-1-0.9-1.5-1.3c-0.5-0.5-0.9-1-1.3-1.5s-0.8-1-1.2-1.6c-0.4-0.5-0.7-1.1-1-1.7-0.3-0.6-0.6-1.2-0.8-1.8s-0.5-1.2-0.7-1.8-0.3-1.3-0.5-1.9c-0.1-0.6-0.2-1.3-0.3-1.9-0.1-0.7-0.1-1.3-0.1-2 0-0.6 0-1.3 0.1-2 0.1-0.6 0.2-1.3 0.3-1.9 0.1-0.6 0.3-1.3 0.5-1.9 0.2-0.6 0.4-1.2 0.7-1.8 0.2-0.6 0.5-1.2 0.8-1.8s0.6-1.1 1-1.7c0.4-0.5 0.8-1.1 1.2-1.6s0.9-1 1.3-1.5c0.5-0.5 1-0.9 1.5-1.3s1-0.8 1.6-1.2c0.5-0.4 1.1-0.7 1.7-1 0.6-0.3 1.2-0.6 1.8-0.8s1.2-0.5 1.8-0.7 1.3-0.3 1.9-0.5c0.6-0.1 1.3-0.2 1.9-0.3 1.3-0.1 2.6-0.1 3.9 0 0.6 0.1 1.3 0.2 1.9 0.3 0.6 0.1 1.3 0.3 1.9 0.5 0.6 0.2 1.2 0.4 1.8 0.7 0.6 0.2 1.2 0.5 1.8 0.8s1.1 0.6 1.7 1c0.5 0.4 1.1 0.8 1.6 1.2s1 0.9 1.5 1.3 0.9 1 1.3 1.5 0.8 1 1.2 1.6c0.4 0.5 0.7 1.1 1 1.7 0.3 0.6 0.6 1.2 0.8 1.8s0.5 1.2 0.7 1.8 0.4 1.3 0.5 1.9c0.1 0.6 0.2 1.3 0.3 1.9 0.1 0.7 0.1 1.3 0.1 2s0 1.3-0.1 2c-0.1 0.6-0.2 1.3-0.3 1.9-0.1 0.6-0.3 1.3-0.5 1.9-0.2 0.6-0.4 1.2-0.7 1.8-0.2 0.6-0.5 1.2-0.8 1.8s-0.6 1.1-1 1.7c-0.4 0.5-0.8 1.1-1.2 1.6s-0.9 1-1.3 1.5-1 0.9-1.5 1.3-1 0.8-1.6 1.2c-0.5 0.4-1.1 0.7-1.7 1-0.6 0.3-1.2 0.6-1.8 0.8s-1.2 0.5-1.8 0.7-1.3 0.4-1.9 0.5c-0.6 0.1-1.3 0.2-1.9 0.3-0.6 0.1-1.3 0.1-1.9 0.1z" fill="#0BA8FF" /><path d="M263.4 807.3c-11 0-20-9-20-20v-68.6c0-11 9-20 20-20s20 9 20 20v68.6c0 11-9 20-20 20zM523.4 718.7v68.6c0 11-9 20-20 20s-20-9-20-20v-68.6c0-11 9-20 20-20s20 9 20 20z" fill="#07DBFF" /><path d="M743.4 807.3c-11 0-20-9-20-20v-68.6c0-11 9-20 20-20s20 9 20 20v68.6c0 11-9 20-20 20z" fill="#0BA8FF" /><path d="M952 418.7c0 110.3-89.7 200-200 200-2.1 0-4-0.1-5.7-0.2-0.9 0.1-1.9 0.2-2.9 0.2H246.3c-1 0-2-0.1-2.9-0.2-1.7 0.1-3.6 0.2-5.7 0.2C146.3 618.7 72 544.4 72 453c0-44.3 17.2-85.9 48.5-117.2 28.6-28.6 65.8-45.4 105.9-48.1-0.1-2.1-0.1-4.1-0.1-6.1 0-62.6 24.4-121.4 68.6-165.7C339.2 71.7 398 47.3 460.6 47.3c14.6 0 28.9 1.3 42.8 3.9C594.5 68 668 137.7 688.8 229.1c20.4-6.9 41.6-10.4 63.2-10.4 110.3 0 200 89.7 200 200z" fill="#97EBFF" /><path d="M952 418.7c0 110.3-89.7 200-200 200-2.1 0-4-0.1-5.7-0.2-0.9 0.1-1.9 0.2-2.9 0.2h-240V51.2C594.5 68 668 137.7 688.8 229.1c20.4-6.9 41.6-10.4 63.2-10.4 110.3 0 200 89.7 200 200z" fill="#07DBFF" /><path d="M523.4 718.7v68.6c0 11-9 20-20 20V698.7c11 0 20 9 20 20z" fill="#0BA8FF" /></svg>