<?xml version="1.0" standalone="no"?><!DOCTYPE svg PUBLIC "-//W3C//DTD SVG 1.1//EN" "http://www.w3.org/Graphics/SVG/1.1/DTD/svg11.dtd"><svg class="icon" width="200px" height="200.00px" viewBox="0 0 1024 1024" version="1.1" xmlns="http://www.w3.org/2000/svg"><path d="M193.6 677.4c0.1 0.6 0.3 1.3 0.5 1.9 0.2 0.6 0.4 1.2 0.7 1.8 0.2 0.6 0.5 1.2 0.8 1.8 0.3 0.6 0.6 1.1 1 1.7 0.4 0.5 0.8 1.1 1.2 1.6 0.4 0.5 0.9 1 1.3 1.5 0.5 0.5 0.9 0.9 1.5 1.3 0.5 0.4 1 0.8 1.6 1.2 0.5 0.4 1.1 0.7 1.7 1 0.6 0.3 1.2 0.6 1.8 0.8s1.2 0.5 1.8 0.7c0.6 0.2 1.3 0.3 1.9 0.5 0.6 0.1 1.3 0.2 1.9 0.3 0.7 0.1 1.3 0.1 2 0.1s1.3 0 2-0.1c0.6-0.1 1.3-0.2 1.9-0.3 0.6-0.1 1.3-0.3 1.9-0.5 0.6-0.2 1.2-0.4 1.8-0.7 0.6-0.2 1.2-0.5 1.8-0.8 0.6-0.3 1.1-0.6 1.7-1 0.5-0.4 1.1-0.8 1.6-1.2 0.5-0.4 1-0.9 1.5-1.3s0.9-1 1.3-1.5 0.8-1 1.2-1.6c0.4-0.5 0.7-1.1 1-1.7 0.3-0.6 0.6-1.2 0.8-1.8 0.2-0.6 0.5-1.2 0.7-1.8 0.2-0.6 0.4-1.3 0.5-1.9 0.1-0.6 0.2-1.3 0.3-1.9 0.1-0.7 0.1-1.3 0.1-2s0-1.3-0.1-2c-0.1-0.6-0.2-1.3-0.3-1.9-0.1-0.6-0.3-1.3-0.5-1.9-0.2-0.6-0.4-1.2-0.7-1.8-0.2-0.6-0.5-1.2-0.8-1.8-0.3-0.6-0.6-1.1-1-1.7-0.4-0.5-0.8-1.1-1.2-1.6-0.4-0.5-0.9-1-1.3-1.5s-1-0.9-1.5-1.3-1-0.8-1.6-1.2c-0.5-0.4-1.1-0.7-1.7-1-0.6-0.3-1.2-0.6-1.8-0.8-0.6-0.2-1.2-0.5-1.8-0.7-0.6-0.2-1.3-0.4-1.9-0.5s-1.3-0.2-1.9-0.3c-1.3-0.1-2.6-0.1-3.9 0-0.6 0.1-1.3 0.2-1.9 0.3-0.6 0.1-1.3 0.3-1.9 0.5-0.6 0.2-1.2 0.4-1.8 0.7s-1.2 0.5-1.8 0.8c-0.6 0.3-1.1 0.6-1.7 1-0.5 0.4-1.1 0.8-1.6 1.2-0.5 0.4-1 0.9-1.5 1.3-0.5 0.5-0.9 1-1.3 1.5s-0.8 1-1.2 1.6c-0.4 0.5-0.7 1.1-1 1.7-0.3 0.6-0.6 1.2-0.8 1.8-0.2 0.6-0.5 1.2-0.7 1.8-0.2 0.6-0.4 1.3-0.5 1.9s-0.2 1.3-0.3 1.9c-0.1 0.7-0.1 1.3-0.1 2 0 0.6 0 1.3 0.1 2 0 0.6 0.1 1.3 0.2 1.9zM523.9 673.5c0 0.7 0 1.3-0.1 2-0.1 0.6-0.2 1.3-0.3 1.9-0.1 0.6-0.3 1.3-0.5 1.9-0.2 0.6-0.4 1.2-0.7 1.8-0.2 0.6-0.5 1.2-0.8 1.8-0.3 0.6-0.6 1.1-1 1.7-0.4 0.6-0.8 1.1-1.2 1.6-0.4 0.5-0.9 1-1.3 1.5-0.5 0.5-0.9 0.9-1.5 1.3-0.5 0.4-1 0.8-1.6 1.2-0.5 0.4-1.1 0.7-1.7 1-0.6 0.3-1.2 0.6-1.8 0.8-0.6 0.2-1.2 0.5-1.8 0.7-0.6 0.2-1.3 0.3-1.9 0.5s-1.3 0.2-1.9 0.3c-0.7 0.1-1.3 0.1-2 0.1s-1.3 0-2-0.1c-0.6-0.1-1.3-0.2-1.9-0.3-0.6-0.1-1.3-0.3-1.9-0.5-0.6-0.2-1.2-0.4-1.8-0.7s-1.2-0.5-1.8-0.8c-0.6-0.3-1.1-0.6-1.7-1-0.5-0.4-1.1-0.8-1.6-1.2-0.5-0.4-1-0.9-1.5-1.3-0.5-0.5-0.9-1-1.3-1.5s-0.8-1-1.2-1.6c-0.4-0.5-0.7-1.1-1-1.7-0.3-0.6-0.6-1.2-0.8-1.8-0.2-0.6-0.5-1.2-0.7-1.8-0.2-0.6-0.4-1.3-0.5-1.9-0.1-0.6-0.2-1.3-0.3-1.9-0.1-0.7-0.1-1.3-0.1-2s0-1.3 0.1-2c0.1-0.6 0.2-1.3 0.3-1.9 0.1-0.6 0.3-1.3 0.5-1.9 0.2-0.6 0.4-1.2 0.7-1.8 0.2-0.6 0.5-1.2 0.8-1.8 0.3-0.6 0.6-1.1 1-1.7 0.4-0.6 0.8-1.1 1.2-1.6 0.4-0.5 0.9-1 1.3-1.5 0.5-0.5 1-0.9 1.5-1.3s1-0.8 1.6-1.2c0.5-0.4 1.1-0.7 1.7-1 0.6-0.3 1.2-0.6 1.8-0.8s1.2-0.5 1.8-0.7c0.6-0.2 1.3-0.3 1.9-0.5s1.3-0.2 1.9-0.3c0.7-0.1 1.3-0.1 2-0.1s1.3 0 2 0.1 1.3 0.2 1.9 0.3 1.3 0.3 1.9 0.5c0.6 0.2 1.2 0.4 1.8 0.7 0.6 0.2 1.2 0.5 1.8 0.8 0.6 0.3 1.1 0.6 1.7 1 0.5 0.4 1.1 0.8 1.6 1.2 0.5 0.4 1 0.9 1.5 1.3 0.5 0.5 0.9 1 1.3 1.5s0.8 1 1.2 1.6c0.4 0.5 0.7 1.1 1 1.7 0.3 0.6 0.6 1.2 0.8 1.8 0.2 0.6 0.5 1.2 0.7 1.8 0.2 0.6 0.3 1.3 0.5 1.9 0.1 0.6 0.2 1.3 0.3 1.9 0.1 0.7 0.1 1.3 0.1 2z" fill="#07DBFF" /><path d="M775.1 677.4c0.1 0.6 0.3 1.3 0.5 1.9 0.2 0.6 0.4 1.2 0.7 1.8 0.2 0.6 0.5 1.2 0.8 1.8 0.3 0.6 0.6 1.1 1 1.7 0.4 0.5 0.8 1.1 1.2 1.6 0.4 0.5 0.9 1 1.3 1.5s1 0.9 1.5 1.3 1 0.8 1.6 1.2c0.5 0.4 1.1 0.7 1.7 1 0.6 0.3 1.2 0.6 1.8 0.8s1.2 0.5 1.8 0.7c0.6 0.2 1.3 0.3 1.9 0.5 0.6 0.1 1.3 0.2 1.9 0.3 0.7 0.1 1.3 0.1 2 0.1 0.6 0 1.3 0 2-0.1 0.6-0.1 1.3-0.2 1.9-0.3 0.6-0.1 1.3-0.3 1.9-0.5 0.6-0.2 1.2-0.4 1.8-0.7 0.6-0.2 1.2-0.5 1.8-0.8 0.6-0.3 1.1-0.6 1.7-1 0.5-0.4 1.1-0.8 1.6-1.2 0.5-0.4 1-0.9 1.5-1.3s0.9-1 1.3-1.5 0.8-1 1.2-1.6c0.4-0.5 0.7-1.1 1-1.7 0.3-0.6 0.6-1.2 0.8-1.8 0.2-0.6 0.5-1.2 0.7-1.8 0.2-0.6 0.3-1.3 0.5-1.9 0.1-0.6 0.2-1.3 0.3-1.9 0.1-0.7 0.1-1.3 0.1-2s0-1.3-0.1-2c-0.1-0.6-0.2-1.3-0.3-1.9-0.1-0.6-0.3-1.3-0.5-1.9-0.2-0.6-0.4-1.2-0.7-1.8-0.2-0.6-0.5-1.2-0.8-1.8-0.3-0.6-0.6-1.1-1-1.7-0.4-0.5-0.8-1.1-1.2-1.6-0.4-0.5-0.9-1-1.3-1.5s-1-0.9-1.5-1.3-1-0.8-1.6-1.2c-0.5-0.4-1.1-0.7-1.7-1-0.6-0.3-1.2-0.6-1.8-0.8-0.6-0.2-1.2-0.5-1.8-0.7-0.6-0.2-1.3-0.4-1.9-0.5-0.6-0.1-1.3-0.2-1.9-0.3-1.3-0.1-2.6-0.1-3.9 0-0.6 0.1-1.3 0.2-1.9 0.3-0.6 0.1-1.3 0.3-1.9 0.5-0.6 0.2-1.2 0.4-1.8 0.7s-1.2 0.5-1.8 0.8c-0.6 0.3-1.1 0.6-1.7 1-0.5 0.4-1.1 0.8-1.6 1.2-0.5 0.4-1 0.9-1.5 1.3s-0.9 1-1.3 1.5-0.8 1-1.2 1.6c-0.4 0.5-0.7 1.1-1 1.7-0.3 0.6-0.6 1.2-0.8 1.8-0.2 0.6-0.5 1.2-0.7 1.8-0.2 0.6-0.3 1.3-0.5 1.9-0.1 0.6-0.2 1.3-0.3 1.9-0.1 0.7-0.1 1.3-0.1 2 0 0.6 0 1.3 0.1 2 0 0.6 0.1 1.3 0.2 1.9z" fill="#0BA8FF" /><path d="M232.8 928.1c-0.1-0.6-0.3-1.3-0.5-1.9-0.2-0.6-0.4-1.2-0.7-1.8-0.2-0.6-0.5-1.2-0.8-1.8-0.3-0.6-0.6-1.1-1-1.7-0.4-0.5-0.8-1.1-1.2-1.6-0.4-0.5-0.9-1-1.3-1.5-0.5-0.5-1-0.9-1.5-1.3s-1-0.8-1.6-1.2c-0.5-0.4-1.1-0.7-1.7-1-0.6-0.3-1.2-0.6-1.8-0.8-0.6-0.2-1.2-0.5-1.8-0.7-0.6-0.2-1.3-0.4-1.9-0.5s-1.3-0.2-1.9-0.3c-1.3-0.1-2.6-0.1-3.9 0-0.6 0.1-1.3 0.2-1.9 0.3-0.6 0.1-1.3 0.3-1.9 0.5-0.6 0.2-1.2 0.4-1.8 0.7s-1.2 0.5-1.8 0.8c-0.6 0.3-1.1 0.6-1.7 1-0.5 0.4-1.1 0.8-1.6 1.2-0.5 0.4-1 0.8-1.5 1.3s-0.9 1-1.3 1.5-0.8 1-1.2 1.6c-0.4 0.5-0.7 1.1-1 1.7-0.3 0.6-0.6 1.2-0.8 1.8-0.2 0.6-0.5 1.2-0.7 1.8-0.2 0.6-0.4 1.3-0.5 1.9-0.1 0.6-0.2 1.3-0.3 1.9-0.1 0.7-0.1 1.3-0.1 2 0 0.6 0 1.3 0.1 2 0.1 0.6 0.2 1.3 0.3 1.9 0.1 0.6 0.3 1.3 0.5 1.9 0.2 0.6 0.4 1.2 0.7 1.8 0.2 0.6 0.5 1.2 0.8 1.8 0.3 0.6 0.6 1.1 1 1.7 0.4 0.5 0.8 1.1 1.2 1.6 0.4 0.5 0.9 1 1.3 1.5 0.5 0.5 0.9 0.9 1.5 1.3 0.5 0.4 1 0.8 1.6 1.2 0.5 0.4 1.1 0.7 1.7 1 0.6 0.3 1.2 0.6 1.8 0.8s1.2 0.5 1.8 0.7c0.6 0.2 1.3 0.3 1.9 0.5 0.6 0.1 1.3 0.2 1.9 0.3 0.7 0.1 1.3 0.1 2 0.1s1.3 0 2-0.1c0.6-0.1 1.3-0.2 1.9-0.3 0.6-0.1 1.3-0.3 1.9-0.5 0.6-0.2 1.2-0.4 1.8-0.7 0.6-0.2 1.2-0.5 1.8-0.8 0.6-0.3 1.1-0.6 1.7-1 0.5-0.4 1.1-0.8 1.6-1.2 0.5-0.4 1-0.9 1.5-1.3s0.9-1 1.3-1.5 0.8-1 1.2-1.6c0.4-0.5 0.7-1.1 1-1.7 0.3-0.6 0.6-1.2 0.8-1.8 0.2-0.6 0.5-1.2 0.7-1.8 0.2-0.6 0.4-1.3 0.5-1.9 0.1-0.6 0.2-1.3 0.3-1.9 0.1-0.7 0.1-1.3 0.1-2s0-1.3-0.1-2c-0.2-0.6-0.3-1.3-0.4-1.9zM523.9 932c0 0.7 0 1.3-0.1 2-0.1 0.6-0.2 1.3-0.3 1.9-0.1 0.6-0.3 1.3-0.5 1.9-0.2 0.6-0.4 1.2-0.7 1.8-0.2 0.6-0.5 1.2-0.8 1.8-0.3 0.6-0.6 1.1-1 1.7-0.4 0.6-0.8 1.1-1.2 1.6-0.4 0.5-0.9 1-1.3 1.5-0.5 0.5-0.9 0.9-1.5 1.3-0.5 0.4-1 0.8-1.6 1.2-0.5 0.4-1.1 0.7-1.7 1-0.6 0.3-1.2 0.6-1.8 0.8-0.6 0.2-1.2 0.5-1.8 0.7-0.6 0.2-1.3 0.3-1.9 0.5-0.6 0.1-1.3 0.2-1.9 0.3-0.7 0.1-1.3 0.1-2 0.1s-1.3 0-2-0.1c-0.6-0.1-1.3-0.2-1.9-0.3-0.6-0.1-1.3-0.3-1.9-0.5-0.6-0.2-1.2-0.4-1.8-0.7s-1.2-0.5-1.8-0.8-1.1-0.6-1.7-1c-0.5-0.4-1.1-0.8-1.6-1.2-0.5-0.4-1-0.9-1.5-1.3-0.5-0.5-0.9-1-1.3-1.5s-0.8-1-1.2-1.6c-0.4-0.5-0.7-1.1-1-1.7-0.3-0.6-0.6-1.2-0.8-1.8-0.2-0.6-0.5-1.2-0.7-1.8-0.2-0.6-0.4-1.3-0.5-1.9-0.1-0.6-0.2-1.3-0.3-1.9-0.1-0.7-0.1-1.3-0.1-2s0-1.3 0.1-2c0.1-0.6 0.2-1.3 0.3-1.9 0.1-0.6 0.3-1.3 0.5-1.9 0.2-0.6 0.4-1.2 0.7-1.8 0.2-0.6 0.5-1.2 0.8-1.8 0.3-0.6 0.6-1.1 1-1.7 0.4-0.6 0.8-1.1 1.2-1.6 0.4-0.5 0.9-1 1.3-1.5 0.5-0.5 1-0.9 1.5-1.3s1-0.8 1.6-1.2c0.5-0.4 1.1-0.7 1.7-1 0.6-0.3 1.2-0.6 1.8-0.8s1.2-0.5 1.8-0.7c0.6-0.2 1.3-0.3 1.9-0.5 0.6-0.1 1.3-0.2 1.9-0.3 0.7-0.1 1.3-0.1 2-0.1s1.3 0 2 0.1c0.6 0.1 1.3 0.2 1.9 0.3 0.6 0.1 1.3 0.3 1.9 0.5 0.6 0.2 1.2 0.4 1.8 0.7 0.6 0.2 1.2 0.5 1.8 0.8 0.6 0.3 1.1 0.6 1.7 1 0.5 0.4 1.1 0.8 1.6 1.2 0.5 0.4 1 0.9 1.5 1.3 0.5 0.5 0.9 1 1.3 1.5s0.8 1 1.2 1.6c0.4 0.5 0.7 1.1 1 1.7 0.3 0.6 0.6 1.2 0.8 1.8 0.2 0.6 0.5 1.2 0.7 1.8 0.2 0.6 0.3 1.3 0.5 1.9 0.1 0.6 0.2 1.3 0.3 1.9 0.1 0.7 0.1 1.3 0.1 2z" fill="#07DBFF" /><path d="M814.3 928.1c-0.1-0.6-0.3-1.3-0.5-1.9-0.2-0.6-0.4-1.2-0.7-1.8-0.2-0.6-0.5-1.2-0.8-1.8-0.3-0.6-0.6-1.1-1-1.7-0.4-0.5-0.8-1.1-1.2-1.6-0.4-0.5-0.9-1-1.3-1.5-0.5-0.5-1-0.9-1.5-1.3s-1-0.8-1.6-1.2c-0.5-0.4-1.1-0.7-1.7-1-0.6-0.3-1.2-0.6-1.8-0.8-0.6-0.2-1.2-0.5-1.8-0.7-0.6-0.2-1.3-0.4-1.9-0.5-0.6-0.1-1.3-0.2-1.9-0.3-1.3-0.1-2.6-0.1-3.9 0-0.6 0.1-1.3 0.2-1.9 0.3-0.6 0.1-1.3 0.3-1.9 0.5-0.6 0.2-1.2 0.4-1.8 0.7s-1.2 0.5-1.8 0.8c-0.6 0.3-1.1 0.6-1.7 1-0.5 0.4-1.1 0.8-1.6 1.2-0.5 0.4-1 0.8-1.5 1.3s-0.9 1-1.3 1.5-0.8 1-1.2 1.6c-0.4 0.5-0.7 1.1-1 1.7-0.3 0.6-0.6 1.2-0.8 1.8-0.2 0.6-0.5 1.2-0.7 1.8-0.2 0.6-0.3 1.3-0.5 1.9-0.1 0.6-0.2 1.3-0.3 1.9-0.1 0.7-0.1 1.3-0.1 2 0 0.6 0 1.3 0.1 2 0.1 0.6 0.2 1.3 0.3 1.9 0.1 0.6 0.3 1.3 0.5 1.9 0.2 0.6 0.4 1.2 0.7 1.8 0.2 0.6 0.5 1.2 0.8 1.8 0.3 0.6 0.6 1.1 1 1.7 0.4 0.5 0.8 1.1 1.2 1.6 0.4 0.5 0.9 1 1.3 1.5s1 0.9 1.5 1.3 1 0.8 1.6 1.2c0.5 0.4 1.1 0.7 1.7 1 0.6 0.3 1.2 0.6 1.8 0.8s1.2 0.5 1.8 0.7c0.6 0.2 1.3 0.3 1.9 0.5 0.6 0.1 1.3 0.2 1.9 0.3 0.7 0.1 1.3 0.1 2 0.1 0.6 0 1.3 0 2-0.1 0.6-0.1 1.3-0.2 1.9-0.3 0.6-0.1 1.3-0.3 1.9-0.5 0.6-0.2 1.2-0.4 1.8-0.7 0.6-0.2 1.2-0.5 1.8-0.8 0.6-0.3 1.1-0.6 1.7-1 0.5-0.4 1.1-0.8 1.6-1.2 0.5-0.4 1-0.9 1.5-1.3s0.9-1 1.3-1.5 0.8-1 1.2-1.6c0.4-0.5 0.7-1.1 1-1.7 0.3-0.6 0.6-1.2 0.8-1.8 0.2-0.6 0.5-1.2 0.7-1.8 0.2-0.6 0.3-1.3 0.5-1.9 0.1-0.6 0.2-1.3 0.3-1.9 0.1-0.7 0.1-1.3 0.1-2s0-1.3-0.1-2c-0.2-0.6-0.3-1.3-0.4-1.9z" fill="#0BA8FF" /><path d="M485.3 839.8c-1.4-5.3-6.9-8.5-12.2-7.1l-22.1 5.9c-2.1 0.5-3.8 1.7-5.1 3.2-0.5-0.4-1-0.8-1.5-1.1l-17.8-10.3 31.8-8.6c5.3-1.4 8.5-6.9 7.1-12.3-0.9-3.3-3.4-5.8-6.4-6.9 3-1.1 5.5-3.5 6.4-6.9 1.4-5.3-1.7-10.8-7.1-12.2l-31.9-8.5 17.9-10.4c0.5-0.3 1-0.7 1.5-1.1 1.3 1.5 3 2.7 5.1 3.3l22.1 5.9c0.9 0.2 1.7 0.3 2.6 0.3 4.4 0 8.5-3 9.7-7.4 1.4-5.3-1.7-10.8-7.1-12.2l-22.1-5.9-1.5-0.3c0.2-0.5 0.4-1 0.5-1.5l5.9-22.1c1.4-5.3-1.7-10.8-7.1-12.2-5.3-1.4-10.8 1.7-12.2 7.1l-5.9 22.1c-0.5 2-0.4 4.1 0.3 5.9-0.6 0.2-1.1 0.5-1.7 0.8l-17.8 10.3L425 726c1.4-5.3-1.7-10.8-7.1-12.2-3.4-0.9-6.8 0-9.2 2.2 0.6-3.2-0.3-6.6-2.7-9.1-3.9-3.9-10.2-3.9-14.1 0l-23.3 23.3v-20.7c0-0.6-0.1-1.3-0.2-1.9 2-0.3 3.8-1.3 5.4-2.8l16.2-16.2c3.9-3.9 3.9-10.2 0-14.1-3.9-3.9-10.2-3.9-14.1 0l-16.2 16.2c-0.4 0.4-0.7 0.8-1 1.2-0.3-0.4-0.6-0.8-1-1.2l-16.2-16.2c-3.9-3.9-10.2-3.9-14.1 0-3.9 3.9-3.9 10.2 0 14.1l16.2 16.2c1.5 1.5 3.3 2.4 5.3 2.8-0.1 0.6-0.2 1.2-0.2 1.9v20.6l-23.2-23.2c-3.9-3.9-10.2-3.9-14.1 0-2.5 2.5-3.4 5.9-2.7 9.1-2.4-2.1-5.8-3-9.2-2.2-5.3 1.4-8.5 6.9-7.1 12.2l8.5 31.8-17.8-10.3c-0.6-0.3-1.2-0.6-1.8-0.8 0.7-1.8 0.8-3.9 0.2-5.9l-5.9-22.1c-1.4-5.3-6.9-8.5-12.2-7.1-5.3 1.4-8.5 6.9-7.1 12.2l5.9 22.1c0.1 0.5 0.3 1 0.5 1.5-0.5 0.1-1 0.1-1.5 0.3l-22.1 5.9c-5.3 1.4-8.5 6.9-7.1 12.2 1.2 4.5 5.2 7.4 9.7 7.4 0.9 0 1.7-0.1 2.6-0.3l22.1-5.9c2.1-0.6 3.8-1.7 5.1-3.3 0.5 0.4 1 0.8 1.5 1.1l17.9 10.4-31.9 8.5c-5.3 1.4-8.5 6.9-7.1 12.2 0.9 3.3 3.4 5.8 6.4 6.9-3 1-5.5 3.5-6.4 6.8-1.4 5.3 1.7 10.8 7 12.3l31.8 8.6-17.8 10.3c-0.6 0.3-1.1 0.7-1.5 1.1-1.3-1.5-3-2.7-5.1-3.2l-22.1-5.9c-5.3-1.4-10.8 1.7-12.2 7.1-1.4 5.3 1.7 10.8 7.1 12.2L261 858l1.5 0.3c-0.2 0.5-0.4 1-0.5 1.5l-5.9 22c-1.4 5.3 1.7 10.8 7.1 12.2 0.9 0.2 1.7 0.3 2.6 0.3 4.4 0 8.5-2.9 9.7-7.4l5.9-22c0.6-2.1 0.4-4.2-0.3-6 0.6-0.2 1.2-0.5 1.8-0.8l17.8-10.3-8.5 31.9c-1.4 5.3 1.7 10.8 7.1 12.2 0.9 0.2 1.7 0.3 2.6 0.3 2.4 0 4.8-0.9 6.6-2.5-0.6 3.1 0.3 6.5 2.8 8.9 2 2 4.5 2.9 7.1 2.9s5.1-1 7.1-2.9l23.2-23.2V896c0 0.7 0.1 1.3 0.2 2-1.9 0.4-3.8 1.3-5.2 2.7l-16.2 16.1c-3.9 3.9-3.9 10.2 0 14.1 2 2 4.5 3 7.1 3 2.5 0 5.1-1 7-2.9l16.2-16.1c0.4-0.4 0.7-0.8 1-1.2 0.3 0.4 0.6 0.8 1 1.2L376 931c2 1.9 4.5 2.9 7 2.9 2.6 0 5.1-1 7.1-3 3.9-3.9 3.9-10.2 0-14.1l-16.2-16.1c-1.5-1.5-3.4-2.4-5.3-2.8 0.1-0.6 0.2-1.3 0.2-2v-20.7l23.3 23.3c2 2 4.5 2.9 7.1 2.9s5.1-1 7.1-2.9c2.4-2.4 3.3-5.8 2.8-8.9 1.8 1.6 4.1 2.5 6.6 2.5 0.9 0 1.7-0.1 2.6-0.3 5.3-1.4 8.5-6.9 7.1-12.2l-8.5-31.9 17.8 10.3c0.6 0.3 1.1 0.6 1.7 0.8-0.7 1.9-0.8 4-0.3 6.1l5.9 22c1.2 4.5 5.2 7.4 9.7 7.4 0.9 0 1.7-0.1 2.6-0.3 5.3-1.4 8.5-6.9 7.1-12.2l-5.9-22c-0.1-0.5-0.3-1-0.5-1.5 0.5-0.1 1-0.1 1.6-0.3l22.1-5.9c4.8-1.5 8-6.9 6.6-12.3zM313 817.5c-1.3-1.4-2.9-2.5-4.9-3l-43.3-11.7 43.3-11.6c2-0.5 3.7-1.7 5-3.1l25.5 14.7-25.6 14.7z m91-29.4c1.3 1.4 3 2.5 5 3.1l43.4 11.6-43.4 11.7c-2 0.5-3.6 1.6-4.9 3l-25.5-14.7 25.4-14.7z m-30.3-34.8l31.8-31.8-11.6 43.4c-0.5 2-0.4 4 0.2 5.8l-25.5 14.7V756c1.8-0.3 3.6-1.3 5.1-2.7z m-30.3 0c1.4 1.4 3.2 2.3 5.1 2.7v29.4l-25.4-14.7c0.6-1.8 0.7-3.8 0.2-5.8l-11.6-43.4 31.7 31.8z m0 98.9L311.7 884l11.6-43.4c0.5-2 0.4-4-0.2-5.8l25.4-14.7v29.4c-1.9 0.4-3.6 1.3-5.1 2.7z m30.3 0c-1.5-1.5-3.3-2.4-5.2-2.7V820l25.5 14.7c-0.6 1.8-0.7 3.8-0.2 5.8l11.6 43.4-31.7-31.7z" fill="#07DBFF" /><path d="M776 839.8c-1.4-5.3-6.9-8.5-12.2-7.1l-22 5.9c-2.1 0.6-3.8 1.7-5.1 3.2-0.5-0.4-1-0.8-1.5-1.1l-17.8-10.3 31.7-8.6c5.3-1.4 8.5-6.9 7-12.3-0.9-3.3-3.4-5.8-6.4-6.8 3-1.1 5.5-3.5 6.4-6.9 1.4-5.3-1.7-10.8-7.1-12.2l-31.8-8.5 17.9-10.4c0.5-0.3 1-0.7 1.5-1.1 1.3 1.5 3 2.7 5.1 3.3l22 5.9c0.9 0.2 1.7 0.3 2.6 0.3 4.4 0 8.5-2.9 9.7-7.4 1.4-5.3-1.7-10.8-7.1-12.2l-22-5.9c-0.5-0.1-1-0.2-1.6-0.3 0.2-0.5 0.4-1 0.5-1.5l5.9-22.1c1.4-5.3-1.7-10.8-7.1-12.2-5.3-1.4-10.8 1.7-12.2 7.1l-5.9 22.1c-0.5 2-0.4 4.1 0.3 5.9-0.6 0.2-1.2 0.5-1.7 0.8l-18 10.4 8.5-31.9c1.4-5.3-1.7-10.8-7.1-12.2-3.3-0.9-6.6 0-9.1 2 0.6-3.1-0.3-6.5-2.7-9-3.9-3.9-10.2-3.9-14.1 0L659.3 730v-20.7c0-0.6-0.1-1.3-0.2-1.9 2-0.3 3.9-1.3 5.4-2.8l16.1-16.2c3.9-3.9 3.9-10.2 0-14.1-3.9-3.9-10.2-3.9-14.1 0l-16.1 16.2c-0.4 0.4-0.7 0.8-1 1.2-0.3-0.4-0.6-0.8-1-1.2l-16.1-16.2c-3.9-3.9-10.2-3.9-14.1 0-3.9 3.9-3.9 10.2 0 14.1l16.1 16.2c1.5 1.5 3.4 2.5 5.4 2.8-0.1 0.6-0.2 1.2-0.2 1.9V730L616 706.8c-3.9-3.9-10.2-3.9-14.1 0-2.4 2.4-3.4 5.8-2.7 9-2.4-2.1-5.8-2.9-9.1-2-5.3 1.4-8.5 6.9-7.1 12.2l8.5 31.9-18-10.4c-0.6-0.3-1.1-0.6-1.7-0.8 0.7-1.8 0.8-3.9 0.3-5.9l-5.9-22.1c-1.4-5.3-6.9-8.5-12.2-7.1-5.3 1.4-8.5 6.9-7.1 12.2l5.9 22.1c0.1 0.5 0.3 1 0.5 1.5-0.5 0.1-1 0.1-1.6 0.3l-22 5.9c-5.3 1.4-8.5 6.9-7.1 12.2 1.2 4.5 5.2 7.4 9.7 7.4 0.9 0 1.7-0.1 2.6-0.3l22-5.9c2.1-0.6 3.8-1.7 5.1-3.3 0.5 0.4 1 0.8 1.5 1.1l17.9 10.4-31.8 8.5c-5.3 1.4-8.5 6.9-7.1 12.2 0.9 3.3 3.4 5.8 6.4 6.9-3 1-5.5 3.5-6.4 6.8-1.4 5.3 1.7 10.8 7 12.3l31.7 8.6-17.8 10.3c-0.6 0.3-1.1 0.7-1.5 1.1-1.3-1.5-3-2.7-5.1-3.2l-22-5.9c-5.3-1.4-10.8 1.7-12.2 7.1-1.4 5.3 1.7 10.8 7.1 12.2l22 5.9c0.5 0.1 1 0.2 1.6 0.3-0.2 0.5-0.4 1-0.5 1.5l-5.9 22c-1.4 5.3 1.7 10.8 7.1 12.2 0.9 0.2 1.7 0.3 2.6 0.3 4.4 0 8.5-2.9 9.7-7.4l5.9-22c0.6-2.1 0.4-4.2-0.3-6.1 0.6-0.2 1.2-0.5 1.7-0.8l18-10.4-8.5 32c-1.4 5.3 1.7 10.8 7.1 12.2 0.9 0.2 1.7 0.3 2.6 0.3 2.4 0 4.7-0.9 6.5-2.4-0.6 3.1 0.4 6.4 2.8 8.8 2 2 4.5 2.9 7.1 2.9s5.1-1 7.1-2.9l23.3-23.3V896c0 0.7 0.1 1.3 0.2 2-2 0.3-3.8 1.3-5.4 2.8l-16.4 16c-3.9 3.9-3.9 10.2 0 14.1 2 2 4.5 2.9 7.1 2.9s5.1-1 7.1-2.9l16.1-16.1c0.4-0.4 0.7-0.8 1-1.2 0.3 0.4 0.6 0.8 1 1.2l16.1 16.1c2 2 4.5 2.9 7.1 2.9 2.6 0 5.1-1 7.1-2.9 3.9-3.9 3.9-10.2 0-14.1l-16.1-16.1c-1.5-1.5-3.4-2.4-5.4-2.8 0.1-0.6 0.2-1.3 0.2-2v-20.7l23.3 23.3c2 2 4.5 2.9 7.1 2.9s5.1-1 7.1-2.9c2.4-2.4 3.3-5.7 2.8-8.8 1.8 1.5 4.1 2.4 6.5 2.4 0.9 0 1.7-0.1 2.6-0.3 5.3-1.4 8.5-6.9 7.1-12.2l-8.5-32 18 10.4c0.6 0.3 1.1 0.6 1.7 0.8-0.7 1.9-0.8 4-0.3 6.1l5.9 22c1.2 4.5 5.2 7.4 9.7 7.4 0.9 0 1.7-0.1 2.6-0.3 5.3-1.4 8.5-6.9 7.1-12.2l-5.9-22c-0.1-0.5-0.3-1-0.5-1.5 0.5-0.1 1-0.1 1.6-0.3l22-5.9c5-1.5 8.2-7 6.8-12.3z m-172.2-22.3c-1.3-1.4-2.9-2.5-4.9-3l-43.3-11.7 43.3-11.6c2-0.5 3.7-1.6 5-3.1l25.4 14.7-25.5 14.7z m91-29.4c1.3 1.4 3 2.6 5 3.1l43.3 11.6-43.3 11.7c-2 0.5-3.6 1.6-4.9 3l-25.5-14.7 25.4-14.7z m-30.3-34.8l31.7-31.7-11.6 43.3c-0.5 2-0.4 4 0.2 5.8l-25.4 14.7V756c1.8-0.3 3.6-1.3 5.1-2.7z m-30.4 0c1.5 1.5 3.3 2.4 5.2 2.7v29.4l-25.4-14.7c0.6-1.8 0.7-3.8 0.2-5.8l-11.6-43.3 31.6 31.7z m0 98.9l-31.6 31.6 11.6-43.3c0.5-2 0.4-4-0.2-5.8l25.4-14.7v29.4c-1.9 0.4-3.7 1.4-5.2 2.8z m30.4 0c-1.5-1.5-3.3-2.4-5.2-2.7v-29.4l25.4 14.7c-0.6 1.8-0.7 3.8-0.2 5.8l11.6 43.3-31.6-31.7z" fill="#0BA8FF" /><path d="M935.5 429.8c0 106.4-86.5 192.9-192.9 192.9-2 0-3.8-0.1-5.4-0.2-0.9 0.1-1.9 0.2-2.9 0.2H256.7c-1 0-1.9-0.1-2.9-0.2-1.6 0.1-3.4 0.2-5.4 0.2-42.8 0-83-16.6-113.2-46.8-30.2-30.2-46.8-70.4-46.8-113.2s16.6-83 46.9-113.2c27.5-27.4 63.1-43.7 101.5-46.4-0.1-1.7-0.1-3.4-0.1-5.1 0-124.6 101.3-225.9 225.9-225.9 14.1 0 27.9 1.3 41.3 3.8 87.5 16.2 158.1 83 178.5 170.6 19.4-6.5 39.5-9.7 60.1-9.7 106.4 0 193 86.6 193 193z" fill="#97EBFF" /><path d="M523.8 930c0.1 0.7 0.1 1.3 0.1 2s0 1.3-0.1 2c-0.1 0.6-0.2 1.3-0.3 1.9-0.1 0.6-0.3 1.3-0.5 1.9-0.2 0.6-0.4 1.2-0.7 1.8-0.2 0.6-0.5 1.2-0.8 1.8-0.3 0.6-0.6 1.1-1 1.7-0.4 0.6-0.8 1.1-1.2 1.6-0.4 0.5-0.9 1-1.3 1.5-0.5 0.5-0.9 0.9-1.5 1.3-0.5 0.4-1 0.8-1.6 1.2-0.5 0.4-1.1 0.7-1.7 1-0.6 0.3-1.2 0.6-1.8 0.8-0.6 0.2-1.2 0.5-1.8 0.7-0.6 0.2-1.3 0.3-1.9 0.5-0.6 0.1-1.3 0.2-1.9 0.3-0.7 0.1-1.3 0.1-2 0.1v-40c0.7 0 1.3 0 2 0.1 0.6 0.1 1.3 0.2 1.9 0.3 0.6 0.1 1.3 0.3 1.9 0.5 0.6 0.2 1.2 0.4 1.8 0.7 0.6 0.2 1.2 0.5 1.8 0.8 0.6 0.3 1.1 0.6 1.7 1 0.5 0.4 1.1 0.8 1.6 1.2 0.5 0.4 1 0.9 1.5 1.3 0.5 0.5 0.9 1 1.3 1.5s0.8 1 1.2 1.6c0.4 0.5 0.7 1.1 1 1.7 0.3 0.6 0.6 1.2 0.8 1.8 0.2 0.6 0.5 1.2 0.7 1.8 0.2 0.6 0.3 1.3 0.5 1.9 0.1 0.4 0.2 1.1 0.3 1.7zM523.8 671.5c0.1 0.7 0.1 1.3 0.1 2s0 1.3-0.1 2c-0.1 0.6-0.2 1.3-0.3 1.9-0.1 0.6-0.3 1.3-0.5 1.9-0.2 0.6-0.4 1.2-0.7 1.8-0.2 0.6-0.5 1.2-0.8 1.8-0.3 0.6-0.6 1.1-1 1.7-0.4 0.6-0.8 1.1-1.2 1.6-0.4 0.5-0.9 1-1.3 1.5-0.5 0.5-0.9 0.9-1.5 1.3-0.5 0.4-1 0.8-1.6 1.2-0.5 0.4-1.1 0.7-1.7 1-0.6 0.3-1.2 0.6-1.8 0.8-0.6 0.2-1.2 0.5-1.8 0.7-0.6 0.2-1.3 0.3-1.9 0.5s-1.3 0.2-1.9 0.3c-0.7 0.1-1.3 0.1-2 0.1v-40c0.7 0 1.3 0 2 0.1s1.3 0.2 1.9 0.3 1.3 0.3 1.9 0.5c0.6 0.2 1.2 0.4 1.8 0.7 0.6 0.2 1.2 0.5 1.8 0.8 0.6 0.3 1.1 0.6 1.7 1 0.5 0.4 1.1 0.8 1.6 1.2 0.5 0.4 1 0.9 1.5 1.3 0.5 0.5 0.9 1 1.3 1.5s0.8 1 1.2 1.6c0.4 0.5 0.7 1.1 1 1.7 0.3 0.6 0.6 1.2 0.8 1.8 0.2 0.6 0.5 1.2 0.7 1.8 0.2 0.6 0.3 1.3 0.5 1.9 0.1 0.4 0.2 1.1 0.3 1.7z" fill="#0BA8FF" /><path d="M935.5 429.8c0 106.4-86.5 192.9-192.9 192.9-2 0-3.8-0.1-5.4-0.2-0.9 0.1-1.9 0.2-2.9 0.2H503.9V75.9c87.5 16.2 158.1 83 178.5 170.6 19.4-6.5 39.5-9.7 60.1-9.7 106.4 0 193 86.6 193 193z" fill="#07DBFF" /></svg>