<?xml version="1.0" standalone="no"?><!DOCTYPE svg PUBLIC "-//W3C//DTD SVG 1.1//EN" "http://www.w3.org/Graphics/SVG/1.1/DTD/svg11.dtd"><svg class="icon" width="200px" height="200.00px" viewBox="0 0 1024 1024" version="1.1" xmlns="http://www.w3.org/2000/svg"><path d="M709.7 588.4c-13.3 2.6-26.6 3.9-39.7 3.9-97.4 0-184.6-69.3-203.4-168.4-21.3-112.3 52.4-220.7 164.7-242h0.1c5-0.9 8.7 4.5 6.1 8.9-17.9 29.4-25.4 65.3-18.5 101.8 6.6 34.9 25.4 64.4 51 85.1 31.9 25.8 74.6 37.9 118 29.5 31.1-6 57.9-21.6 78-43.1 3.6-3.8 9.8-1.7 10.3 3.5 8.9 104.2-61.8 200.4-166.6 220.8z" fill="#F0E203" /><path d="M903.8 662.9c0 98.9-80.4 179.3-179.3 179.3-1.8 0-3.4-0.1-4.9-0.2-0.9 0.1-1.8 0.2-2.7 0.2h-440c-0.9 0-1.7 0-2.5-0.2-1.6 0.1-3.3 0.2-5.1 0.2-82.2 0-149-66.8-149-149 0-78 60.2-142.1 136.5-148.5v-3.2c0-115.6 94-209.6 209.6-209.6 15.6 0 30.9 1.7 45.6 5 77.3 17.2 139.2 77.1 158 155.2 17.5-5.6 35.6-8.5 54.2-8.5 98.8 0 179.4 80.4 179.6 179.3z" fill="#97EBFF" /><path d="M709.7 588.4c-13.3 2.6-26.6 3.9-39.7 3.9V377.7c31.9 25.8 74.6 37.9 118 29.5 31.1-6 57.9-21.6 78-43.1 3.6-3.8 9.8-1.7 10.3 3.5 8.9 104.2-61.8 200.4-166.6 220.8z" fill="#ED9507" /><path d="M903.8 662.9c0 98.9-80.4 179.3-179.3 179.3-1.8 0-3.4-0.1-4.9-0.2-0.9 0.1-1.8 0.2-2.7 0.2H512V336.9c77.3 17.2 139.2 77.1 158 155.2 17.5-5.6 35.6-8.5 54.2-8.5 98.8 0 179.4 80.4 179.6 179.3z" fill="#07DBFF" /></svg>