<?xml version="1.0" standalone="no"?><!DOCTYPE svg PUBLIC "-//W3C//DTD SVG 1.1//EN" "http://www.w3.org/Graphics/SVG/1.1/DTD/svg11.dtd"><svg class="icon" width="200px" height="200.00px" viewBox="0 0 1024 1024" version="1.1" xmlns="http://www.w3.org/2000/svg"><path d="M512.5 809.8V932H147.2s-60.7-72.1 14.3-85c75-12.8 67.9-66.4 94.7-77.8 8.6-3.7 18.2-8.8 28.8-13.4 22.6-9.7 50-17.1 82.8-3 48.2 20.7 45.5 27.8 96.4 46.4 14.8 5.4 31.1 8.8 48.3 10.6z" fill="#07DBFF" /><path d="M360.5 670.5c-4.8 0-9.6-1.7-13.4-5.2L110.2 450.9c-8.2-7.4-8.8-20.1-1.4-28.2 7.4-8.2 20.1-8.8 28.2-1.4l236.9 214.4c8.2 7.4 8.8 20.1 1.4 28.2-3.9 4.4-9.4 6.6-14.8 6.6z" fill="#3F1E01" /><path d="M198.5 523.9c-0.6 0-1.3 0-1.9-0.1-11-1-19.1-10.8-18-21.8l8.8-92.2c1-11 10.8-19.1 21.8-18 11 1 19.1 10.8 18 21.8l-8.8 92.2c-1 10.3-9.7 18.1-19.9 18.1zM242.3 576.9h-84.8c-11 0-20-9-20-20s9-20 20-20h84.8c11 0 20 9 20 20s-9 20-20 20z" fill="#3F1E01" /><path d="M512.5 463.6V932h-0.5c-109.3 0-201.1-74.9-227-176.2-4.7-18.5-7.2-38-7.2-58 0-28.8 5.2-56.4 14.7-81.9 4.9-13.2 11-25.7 18-37.6 13.1-22.1 29.8-41.8 49.2-58.5 14-12 29.5-22.4 46.1-30.9 31.8-16.2 67.9-25.4 106.1-25.4h0.6z" fill="#DAF3F7" /><path d="M624.5 284h-112v-50.3c-16.8 0-33 2.8-48.1 7.9-4.2 1.4-8.3 3-12.3 4.8-6.9 3-13.5 6.6-19.8 10.6-11.8 7.5-22.5 16.6-31.7 27-23.6 26.5-37.9 61.4-37.9 99.6 0 27.5 7.4 53.3 20.4 75.5C389.3 470 397 480 405.9 489c7.5 7.6 15.8 14.4 24.8 20.2 8.9 5.8 18.4 10.7 28.4 14.5 16.6 6.3 34.6 9.8 53.5 9.8v-76.2h116.9c4.4 0 8.5 0.7 12.5 2 13-22.2 20.5-48.1 20.5-75.8-0.1-38.1-14.4-73-38-99.5z m-112 139.4V363c16.5 0.3 29.7 13.7 29.7 30.2s-13.2 29.9-29.7 30.2z m48.8-64.7c-7.9 0-14.3-6.4-14.3-14.3s6.4-14.3 14.3-14.3 14.3 6.4 14.3 14.3-6.4 14.3-14.3 14.3z" fill="#DAF3F7" /><path d="M627.4 125.4l-11.9 92.4-3 23.8h-1.4l4.4-34.4h-103V257h-99l-2-15.4-3-23.8-11.9-92.4C394.3 107.7 408.1 92 426 92h172c17.9 0 31.7 15.7 29.4 33.4z" fill="#1E0D00" /><path d="M512.5 207.2v39.2h-99l-0.6-4.8-4.4-34.4z" fill="#E73F5F" /><path d="M512.5 241.6V284H339.1c-11 0-20-9-20-20v-2.4c0-11 9-20 20-20h173.4z" fill="#3F1E01" /><path d="M432.3 691.5h-3.8c-17.6 0-32-14.4-32-32V541.2c0-17.6 14.4-32 32-32h3.8c17.6 0 32 14.4 32 32v118.3c0 17.6-14.4 32-32 32z" fill="#CE1743" /><path d="M512.5 457.3V541H394.7c-15.1 0-28.3-8.6-35-21.2-2.9-5.5-4.5-11.7-4.5-18.3v-4.7c0-17.6 11.7-32.7 27.8-37.7 3.7-1.2 7.7-1.8 11.7-1.8h117.8z" fill="#E73F5F" /><path d="M512.5 599.6V660h-0.5c-16.7 0-30.2-13.5-30.2-30.2s13.5-30.2 30.2-30.2h0.5zM512.5 703.8v60.4h-0.5c-16.7 0-30.2-13.5-30.2-30.2s13.5-30.2 30.2-30.2h0.5z" fill="#3F1E01" /><path d="M462.7 344.4m-14.3 0a14.3 14.3 0 1 0 28.6 0 14.3 14.3 0 1 0-28.6 0Z" fill="#3F1E01" /><path d="M512.5 363v60.4h-0.5c-16.7 0-30.2-13.5-30.2-30.2S495.3 363 512 363h0.5z" fill="#EEE003" /><path d="M668.9 496.8v4.7c0 6.6-1.7 12.9-4.6 18.4-6.7 12.5-19.8 21.1-35 21.1H512.5v-83.7h116.9c4.4 0 8.5 0.7 12.5 2 15.6 5.3 27 20.2 27 37.5z" fill="#CE1743" /><path d="M704.8 261.6v2.4c0.1 11-8.9 20-19.9 20H512.5v-42.4h172.3c11 0 20 9 20 20z" fill="#1E0D00" /><path d="M616.9 207.2l-4.4 34.4h-100v-34.4z" fill="#CE1743" /><path d="M615.5 207.2h-103V92H598c17.9 0 31.7 15.7 29.4 33.4l-10.5 81.8h-1.4z" fill="#070402" /><path d="M548.091518 349.861434a14.3 14.3 0 1 0 26.422955-10.944746 14.3 14.3 0 1 0-26.422955 10.944746Z" fill="#1E0D00" /><path d="M624.5 284h-112v79c16.5 0.3 29.7 13.7 29.7 30.2s-13.2 29.9-29.7 30.2v33.9h116.9c4.4 0 8.5 0.7 12.5 2 13-22.2 20.5-48.1 20.5-75.8 0-38.1-14.3-73-37.9-99.5z m-63.2 74.7c-7.9 0-14.3-6.4-14.3-14.3s6.4-14.3 14.3-14.3 14.3 6.4 14.3 14.3-6.4 14.3-14.3 14.3z" fill="#97EBFF" /><path d="M542.2 393.2c0 16.5-13.2 29.9-29.7 30.2V363c16.5 0.3 29.7 13.7 29.7 30.2z" fill="#ED9507" /><path d="M746.2 697.8c0 29.8-5.6 58.4-15.7 84.6-33.9 87.4-118.7 149.4-218 149.6V764.2c16.5-0.3 29.7-13.7 29.7-30.2s-13.2-29.9-29.7-30.2V660c16.5-0.3 29.7-13.7 29.7-30.2s-13.2-29.9-29.7-30.2V541h116.8c15.2 0 28.3-8.6 35-21.1 19.4 16.6 36.1 36.4 49.2 58.4 7.1 11.9 13.1 24.5 18 37.6 9.5 25.5 14.7 53.1 14.7 81.9z" fill="#97EBFF" /><path d="M542.2 734c0 16.5-13.2 29.9-29.7 30.2v-60.4c16.5 0.3 29.7 13.7 29.7 30.2zM542.2 629.8c0 16.5-13.2 29.9-29.7 30.2v-60.4c16.5 0.3 29.7 13.7 29.7 30.2z" fill="#1E0D00" /><path d="M899.9 899.8V932H512.5c99.3-0.2 184.1-62.2 218-149.6 1.4 0.6 2.8 1.2 4.3 1.8 64.3 27.1 63.4 18.6 83 37.1s22.3 12.1 36.6 32.8c14.3 20.7 45.5 45.7 45.5 45.7z" fill="#0BA8FF" /><path d="M838.4 519.2l-19.5 17.7h47.7c11 0 20 8.9 20 20 0 11-9 20-20 20h-84.8c-2.1 0-4.1-0.3-6-0.9l-44.2 40c-4.9-13.2-11-25.7-18-37.6l91.2-82.5-7.8-82.2c-1-11 7-20.8 18-21.8s20.8 7 21.8 18l5 52.5 45.4-41c8.2-7.4 20.8-6.8 28.2 1.4 7.4 8.2 6.8 20.8-1.4 28.2l-74.5 67.5-0.7 0.6c-0.3 0-0.3 0-0.4 0.1z" fill="#1E0D00" /></svg>