<?xml version="1.0" standalone="no"?><!DOCTYPE svg PUBLIC "-//W3C//DTD SVG 1.1//EN" "http://www.w3.org/Graphics/SVG/1.1/DTD/svg11.dtd"><svg class="icon" width="200px" height="200.00px" viewBox="0 0 1024 1024" version="1.1" xmlns="http://www.w3.org/2000/svg"><path d="M712.4 498.8l-78.2-34.3-17.5-7.7 3.3-30.3 8-73.3c0.9-7.9-3-15.5-9.9-19.5s-15.4-3.5-21.8 1.2l-64.4 47-20 14.6v44.8c4.1 0 8.3-1.3 11.8-3.8l8.2-6 51.4-37.5-6.3 57.4-1.7 15.8c-1 8.7 3.8 17 11.8 20.5l4 1.8 63.4 27.8-53.2 23.4-14.2 6.2c-8 3.5-12.8 11.8-11.8 20.5l0.5 4.7 7.5 68.4-51.3-37.6-8.2-6c-3.5-2.6-7.6-3.8-11.8-3.8v44.8l20 14.6 64.4 47c3.5 2.5 7.6 3.8 11.8 3.8 3.5 0 6.9-0.9 10-2.7 6.9-4 10.7-11.6 9.9-19.5l-9.2-84.3-2.1-19.3 27.6-12.2 68.1-29.9c7.3-3.2 11.9-10.4 11.9-18.3s-4.7-15.1-12-18.3z" fill="#0F82EA" /><path d="M712.4 498.8l-78.2-34.3-17.5-7.7 3.3-30.3 8-73.3c0.9-7.9-3-15.5-9.9-19.5s-15.4-3.5-21.8 1.2l-64.4 47-20 14.6-20-14.6-64.4-47c-6.4-4.7-15-5.1-21.8-1.2-6.9 4-10.7 11.6-9.9 19.5l8 73.3 3.3 30.3-17.5 7.7-78.2 34.3c-7.3 3.2-12 10.4-12 18.3s4.7 15.1 12 18.3l68.1 29.9 27.6 12.2-2.1 19.3-9.2 84.3c-0.9 7.9 3 15.5 9.9 19.5s15.4 3.5 21.8-1.1l64.4-47 20-14.6 20 14.6 64.4 47c3.5 2.5 7.6 3.8 11.8 3.8 3.5 0 6.9-0.9 10-2.7 6.9-4 10.7-11.6 9.9-19.5l-9.2-84.3-2.1-19.3 27.6-12.2 68.1-29.9c7.3-3.2 11.9-10.4 11.9-18.3 0.1-7.9-4.6-15.1-11.9-18.3z m-111 41.7l-14.2 6.2c-8 3.5-12.8 11.8-11.8 20.5l0.5 4.7 7.5 68.4-51.4-37.4-8.2-6c-3.5-2.6-7.6-3.8-11.8-3.8s-8.3 1.3-11.8 3.8l-8.2 6-51.4 37.5 7.5-68.4 0.5-4.7c1-8.7-3.8-17-11.8-20.5l-14.2-6.2-53.2-23.4 63.4-27.8 4-1.8c8-3.5 12.8-11.8 11.8-20.5l-1.7-15.8-6.3-57.4 51.4 37.5 8.2 6c3.5 2.6 7.6 3.8 11.8 3.8s8.3-1.3 11.8-3.8l8.2-6 51.4-37.5-6.3 57.4-1.7 15.8c-1 8.7 3.8 17 11.8 20.5l4 1.8 63.4 27.8-53.2 23.3z" fill="#0BA8FF" /><path d="M712.4 498.8l-78.2-34.3-17.5-7.7 3.3-30.3 8-73.3c0.9-7.9-3-15.5-9.9-19.5s-15.4-3.5-21.8 1.2l-64.4 47-20 14.6v44.8c4.1 0 8.3-1.3 11.8-3.8l8.2-6 51.4-37.5-6.3 57.4-1.7 15.8c-1 8.7 3.8 17 11.8 20.5l4 1.8 63.4 27.8-53.2 23.4-14.2 6.2c-8 3.5-12.8 11.8-11.8 20.5l0.5 4.7 7.5 68.4-51.3-37.6-8.2-6c-3.5-2.6-7.6-3.8-11.8-3.8v44.8l20 14.6 64.4 47c3.5 2.5 7.6 3.8 11.8 3.8 3.5 0 6.9-0.9 10-2.7 6.9-4 10.7-11.6 9.9-19.5l-9.2-84.3-2.1-19.3 27.6-12.2 68.1-29.9c7.3-3.2 11.9-10.4 11.9-18.3s-4.7-15.1-12-18.3z" fill="#0F82EA" /><path d="M859.9 624.8c-3.4-8.8-12.5-14.1-21.8-12.6l-88.3 14-27.2-15.7 73.6-16.5c10.8-2.4 17.6-13.1 15.2-23.9-2.4-10.8-13.1-17.6-23.9-15.2l-116 26-27.1-15.6-43-24.8L552 512l39.3-22.7 43-24.8 37.1-21.4 116 26c1.5 0.3 2.9 0.5 4.4 0.5 9.1 0 17.4-6.3 19.5-15.6 2.4-10.8-4.4-21.5-15.2-23.9l-73.6-16.5 27.2-15.7 88.3 14c1 0.2 2.1 0.2 3.1 0.2 8.2 0 15.7-5 18.7-12.8l34.5-90c2.2-5.6 1.7-11.9-1.4-17.2-3-5.2-8.2-8.8-14.2-9.8l-95.2-15c-9.3-1.5-18.4 3.8-21.8 12.6l-32.1 83.3-27.1 15.7L725 307c3.3-10.5-2.6-21.8-13.1-25.1-10.5-3.3-21.8 2.6-25.1 13.1l-35.6 113.4-31.4 18.1-42.9 24.8-44.9 26V339.5l80.5-87.6c7.5-8.1 6.9-20.8-1.2-28.3s-20.8-7-28.3 1.2l-51 55.6V249l56.2-69.5c5.9-7.3 5.9-17.8 0-25.1l-60.6-74.9C523.8 74.7 518 72 512 72s-11.8 2.7-15.5 7.4l-60.6 74.9c-5.9 7.3-5.9 17.8 0 25.1L492 249v31.4l-51.1-55.5c-7.5-8.1-20.1-8.7-28.3-1.2-8.1 7.5-8.7 20.1-1.2 28.3l80.5 87.6v137.8l-45.1-26.1-42.9-24.8-31.4-18.1L337 294.9c-3.3-10.5-14.5-16.4-25.1-13.1-10.5 3.3-16.4 14.5-13.1 25.1l22.5 71.9-27.1-15.7-32.1-83.3c-3.4-8.8-12.5-14-21.8-12.6l-95.2 15c-6 0.9-11.2 4.5-14.2 9.8-3 5.2-3.5 11.5-1.4 17.2l34.5 90c3 7.8 10.5 12.8 18.7 12.8 1 0 2.1-0.1 3.1-0.2l88.3-14 27.2 15.7-73.5 16.5c-10.8 2.4-17.6 13.1-15.2 23.9 2.1 9.3 10.4 15.6 19.5 15.6 1.5 0 2.9-0.2 4.4-0.5l116-26 37.1 21.4 43 24.8L472 512l-49.5 28.6-43 24.8-27 15.6-116-26c-10.8-2.4-21.5 4.4-23.9 15.2s4.4 21.5 15.2 23.9l73.6 16.5-27.2 15.7-88.3-14c-9.3-1.5-18.4 3.8-21.8 12.6l-34.5 90c-2.2 5.6-1.7 11.9 1.4 17.2 3 5.2 8.2 8.8 14.2 9.8l95.2 15c1 0.2 2.1 0.2 3.1 0.2 8.2 0 15.6-5 18.7-12.8l32.1-83.3 27.1-15.7-22.5 71.9c-3.3 10.5 2.6 21.8 13.1 25.1 2 0.6 4 0.9 6 0.9 8.5 0 16.4-5.5 19.1-14l35.6-113.5 32.6-18.8 42.9-24.8 43.9-25.4v137.9l-80.5 87.6c-7.5 8.1-6.9 20.8 1.2 28.3s20.8 7 28.3-1.2l51.1-55.5V775L436 844.5c-5.9 7.3-5.9 17.8 0 25.1l60.6 74.9c3.8 4.7 9.5 7.4 15.5 7.4s11.8-2.7 15.5-7.4l60.6-74.9c5.9-7.3 5.9-17.8 0-25.1L532 775v-31.4l51.1 55.5c3.9 4.3 9.3 6.5 14.7 6.5 4.8 0 9.7-1.8 13.5-5.3 8.1-7.5 8.7-20.1 1.2-28.3L532 684.5V546.6l43.9 25.4 42.9 24.8 32.6 18.8L687 729.1c2.7 8.5 10.6 14 19.1 14 2 0 4-0.3 6-0.9 10.5-3.3 16.4-14.5 13.1-25.1l-22.5-72 27.1 15.7 32.1 83.3c3 7.8 10.5 12.8 18.7 12.8 1 0 2.1-0.1 3.1-0.2l95.2-15c6-0.9 11.2-4.5 14.2-9.8 3-5.2 3.5-11.5 1.4-17.2l-34.6-89.9z m-66.5-315.5l54.8 8.6-19.8 51.8-54.9-8.7 19.9-51.7z m-597.7 60.4l-19.8-51.8 54.8-8.6 19.9 51.7-54.9 8.7z m34.9 345l-54.8-8.6 19.8-51.8 54.9 8.7-19.9 51.7z m316.3 142.4L512 900.2l-34.9-43.1 34.9-43.2 34.9 43.2z m-34.9-647l-34.9-43.2 34.9-43.1 34.9 43.1-34.9 43.2z m281.4 504.6l-20-51.7 54.9-8.7 19.8 51.8-54.7 8.6z" fill="#07DBFF" /><path d="M306.4 166.9m-20 0a20 20 0 1 0 40 0 20 20 0 1 0-40 0Z" fill="#07DBFF" /><path d="M717.6 166.9m-20 0a20 20 0 1 0 40 0 20 20 0 1 0-40 0Z" fill="#07DBFF" /><path d="M148.3 510m-20 0a20 20 0 1 0 40 0 20 20 0 1 0-40 0Z" fill="#07DBFF" /><path d="M875.7 510m-20 0a20 20 0 1 0 40 0 20 20 0 1 0-40 0Z" fill="#07DBFF" /><path d="M306.4 857m-20 0a20 20 0 1 0 40 0 20 20 0 1 0-40 0Z" fill="#07DBFF" /><path d="M717.6 857m-20 0a20 20 0 1 0 40 0 20 20 0 1 0-40 0Z" fill="#07DBFF" /><path d="M859.9 624.8c-3.4-8.8-12.5-14.1-21.8-12.6l-88.3 14-27.2-15.7 73.6-16.5c10.8-2.4 17.6-13.1 15.2-23.9-2.4-10.8-13.1-17.6-23.9-15.2l-116 26-27.1-15.6-43-24.8L552 512l39.3-22.7 43-24.8 37.1-21.4 116 26c1.5 0.3 2.9 0.5 4.4 0.5 9.1 0 17.4-6.3 19.5-15.6 2.4-10.8-4.4-21.5-15.2-23.9l-73.6-16.5 27.2-15.7 88.3 14c1 0.2 2.1 0.2 3.1 0.2 8.2 0 15.7-5 18.7-12.8l34.5-90c2.2-5.6 1.7-11.9-1.4-17.2-3-5.2-8.2-8.8-14.2-9.8l-95.2-15c-9.3-1.5-18.4 3.8-21.8 12.6l-32.1 83.3-27.1 15.7L725 307c3.3-10.5-2.6-21.8-13.1-25.1-10.5-3.3-21.8 2.6-25.1 13.1l-35.6 113.4-31.4 18.1-42.9 24.8-44.9 26V339.5l80.5-87.6c7.5-8.1 6.9-20.8-1.2-28.3s-20.8-7-28.3 1.2l-51 55.6V249l56.2-69.5c5.9-7.3 5.9-17.8 0-25.1l-60.6-74.9C523.8 74.7 518 72 512 72v51.8l34.9 43.1-34.9 43.2v603.8l34.9 43.2-34.9 43.1V952c6 0 11.8-2.7 15.5-7.4l60.6-74.9c5.9-7.3 5.9-17.8 0-25.1L532 775v-31.4l51.1 55.5c3.9 4.3 9.3 6.5 14.7 6.5 4.8 0 9.7-1.8 13.5-5.3 8.1-7.5 8.7-20.1 1.2-28.3L532 684.5V546.6l43.9 25.4 42.9 24.8 32.6 18.8L687 729.1c2.7 8.5 10.6 14 19.1 14 2 0 4-0.3 6-0.9 10.5-3.3 16.4-14.5 13.1-25.1l-22.5-72 27.1 15.7 32.1 83.3c3 7.8 10.5 12.8 18.7 12.8 1 0 2.1-0.1 3.1-0.2l95.2-15c6-0.9 11.2-4.5 14.2-9.8 3-5.2 3.5-11.5 1.4-17.2l-34.6-89.9z m-66.5-315.5l54.8 8.6-19.8 51.8-54.9-8.7 19.9-51.7z m0 405.4l-20-51.7 54.9-8.7 19.8 51.8-54.7 8.6z" fill="#0BA8FF" /><path d="M717.6 857m-20 0a20 20 0 1 0 40 0 20 20 0 1 0-40 0Z" fill="#07DBFF" /><path d="M717.6 166.9m-20 0a20 20 0 1 0 40 0 20 20 0 1 0-40 0Z" fill="#07DBFF" /><path d="M875.7 510m-20 0a20 20 0 1 0 40 0 20 20 0 1 0-40 0Z" fill="#07DBFF" /></svg>