<?xml version="1.0" standalone="no"?><!DOCTYPE svg PUBLIC "-//W3C//DTD SVG 1.1//EN" "http://www.w3.org/Graphics/SVG/1.1/DTD/svg11.dtd"><svg class="icon" width="200px" height="200.00px" viewBox="0 0 1024 1024" version="1.1" xmlns="http://www.w3.org/2000/svg"><path d="M625.2 818.8c0 62.4-50.5 113.2-113.2 113.2-62.3 0-113.2-50.5-113.2-113.2 0-47.8 66.4-141.7 97.5-183.1 3.9-5.2 9.8-7.9 15.7-7.9s11.8 2.6 15.7 7.9c31.1 41.4 97.5 135.4 97.5 183.1zM625.2 205.2c0 47.8-66.4 141.7-97.5 183.1-3.9 5.2-9.8 7.9-15.7 7.9s-11.8-2.6-15.7-7.9c-31.1-41.4-97.5-135.4-97.5-183.1C398.8 142.5 449.7 92 512 92c62.6 0 113.2 50.8 113.2 113.2zM205.2 625.2C142.8 625.2 92 574.6 92 512c0-62.3 50.5-113.2 113.2-113.2 47.8 0 141.7 66.4 183.1 97.5 10.5 7.9 10.5 23.6 0 31.5-41.4 31-135.4 97.4-183.1 97.4z" fill="#97EBFF" /><path d="M261.2 344.1c-21.5-21.5-21.6-56.4 0-78 21.5-21.5 56.4-21.6 78 0 13.8 13.8 22.8 55.2 27.3 82.8 2.2 13.3-9.3 24.8-22.6 22.6-27.6-4.6-68.9-13.6-82.7-27.4zM339.2 767.8c-21.5 21.5-56.4 21.6-78 0-21.5-21.5-21.6-56.4 0-78C275 676 316.4 667 344 662.5c13.3-2.2 24.8 9.3 22.6 22.6-4.6 27.6-13.6 68.9-27.4 82.7z" fill="#97EBFF" /><path d="M512 512m-54 0a54 54 0 1 0 108 0 54 54 0 1 0-108 0Z" fill="#97EBFF" /><path d="M512 566V458c29.8 0 54 24.2 54 54s-24.2 54-54 54zM625.2 205.2c0 47.8-66.4 141.7-97.5 183.1-3.9 5.2-9.8 7.9-15.7 7.9V92c62.6 0 113.2 50.8 113.2 113.2zM527.7 635.7c31.1 41.4 97.5 135.4 97.5 183.1 0 62.4-50.5 113.2-113.2 113.2V627.8c5.9 0 11.8 2.7 15.7 7.9zM657.5 348.9c4.6-27.7 13.5-69 27.3-82.8 21.6-21.6 56.5-21.5 78 0 21.6 21.6 21.5 56.5 0 78-13.8 13.8-55.1 22.8-82.7 27.4-13.3 2.2-24.8-9.3-22.6-22.6zM762.9 689.7c21.6 21.6 21.5 56.5 0 78-21.6 21.6-56.5 21.5-78 0-13.9-13.8-22.8-55.1-27.4-82.7-2.2-13.3 9.3-24.8 22.6-22.6 27.6 4.6 68.9 13.5 82.8 27.3zM932 512c0 62.6-50.8 113.2-113.2 113.2-47.8 0-141.7-66.4-183.1-97.5-10.5-7.9-10.5-23.6 0-31.4 41.4-31.1 135.4-97.5 183.1-97.5 62.6 0 113.2 50.8 113.2 113.2z" fill="#07DBFF" /></svg>