<svg xmlns="http://www.w3.org/2000/svg" viewBox="0 0 128 128"><defs><style>.cls-1{fill:#ededed;}.cls-2{fill:#4c4c4c;}</style></defs><title>user-null</title><g id="图层_2" data-name="图层 2"><rect class="cls-1" width="128" height="128"/></g><g id="图层_1" data-name="图层 1"><path class="cls-2" d="M64,79.88A30.94,30.94,0,1,0,33.06,48.94,30.95,30.95,0,0,0,64,79.88Zm27.5,6.87H79.66a37.36,37.36,0,0,1-31.32,0H36.5A27.5,27.5,0,0,0,9,114.25v3.44A10.32,10.32,0,0,0,19.31,128h89.38A10.32,10.32,0,0,0,119,117.69v-3.44A27.5,27.5,0,0,0,91.5,86.75Z"/></g></svg>