<svg xmlns="http://www.w3.org/2000/svg" viewBox="0 0 496.06 496.06"><defs><style>.cls-1{fill:#ffffff;}.cls-2{fill:#ffffff;}</style></defs><title>logo</title><g id="图层_4" data-name="图层 4"><path class="cls-1" d="M425.2,35.43c-137,0-248,111-248,248s111,248,248,248,248-111,248-248S562.18,35.43,425.2,35.43Zm0,481.89c-129.16,0-233.86-104.7-233.86-233.86S296,49.61,425.2,49.61s233.86,104.7,233.86,233.85S554.35,517.32,425.2,517.32Z" transform="translate(-177.17 -35.43)"/></g><g id="图层_7" data-name="图层 7"><path class="cls-1" d="M425.2,127.56a155.91,155.91,0,1,0,155.9,155.9A155.9,155.9,0,0,0,425.2,127.56Zm0,297.64A141.74,141.74,0,1,1,566.93,283.46,141.74,141.74,0,0,1,425.2,425.2Z" transform="translate(-177.17 -35.43)"/></g><g id="图层_6" data-name="图层 6"><path class="cls-2" d="M461,74.11a208.9,208.9,0,0,0-206.69,83.5c-83.06,115.65-34.71,269.9,88.2,322.07a211.53,211.53,0,0,0,111.94,14.95,17.64,17.64,0,0,0,14.81-21.43h0a17.84,17.84,0,0,0-19.84-13.65,176.11,176.11,0,0,1-84.21-9c-101-36.69-145.92-148.13-98.68-244.61A177.17,177.17,0,0,1,594.38,337.7,18.18,18.18,0,0,0,604.58,360a17.3,17.3,0,0,0,23.23-10.5C666.42,230.73,594.41,98.39,461,74.11Z" transform="translate(-177.17 -35.43)"/><path class="cls-1" d="M596,376A17.76,17.76,0,0,0,572.76,382a176.76,176.76,0,0,1-73,62.78,17.69,17.69,0,0,0-9.22,22v0a17.71,17.71,0,0,0,24.14,10.08A213.57,213.57,0,0,0,547.35,458l1.17-.82c.61-.43,1.22-.88,1.82-1.32a213.81,213.81,0,0,0,52.08-54.59A17.68,17.68,0,0,0,596,376Z" transform="translate(-177.17 -35.43)"/></g></svg>