<?xml version="1.0" encoding="utf-8"?>
<!-- Generator: Adobe Illustrator 24.0.0, SVG Export Plug-In . SVG Version: 6.00 Build 0)  -->
<svg version="1.1" id="图层_1" xmlns="http://www.w3.org/2000/svg" xmlns:xlink="http://www.w3.org/1999/xlink" x="0px" y="0px"
	 viewBox="0 0 87 20" style="enable-background:new 0 0 87 20;" xml:space="preserve">
<style type="text/css">
	.st0{fill:#414249;}
</style>
<title>logo</title>
<g id="页面-1">
	<g id="logo">
		<g id="XMLID_25_" transform="translate(32.627615, 1.222222)">
			<path id="XMLID_38_" class="st0" d="M34,0.7H24v1.4h3v5.3h-3.6v1.4h3.6v8.8h1.7V8.9h3.8v8.4h3v-1.4h-1.3V0.7H34z M28.7,7.2V2.1
				h3.9v5.3h-3.8V7.2H28.7z"/>
			<polygon id="XMLID_14_" class="st0" points="6.2,13.6 14.2,13.6 14.2,15 6.2,15 			"/>
			<path id="XMLID_33_" class="st0" d="M0.7,10.9c0,2.6-0.1,4.7-0.7,6.3c0,0.1,0,0.1,0.1,0.1c0,0,1.2,0,1.5,0
				c0.6-2.4,0.6-4.4,0.6-5.9h2v4.4H2.8c-0.1,0-0.1,0-0.1,0.1l0.4,1.3h2.6V0.7H0.8L0.7,10.9L0.7,10.9z M2.2,10.2V6.9h2v3.6h-2V10.2z
				 M4.3,2.1v3.4h-2V2.1H4.3z"/>
			<path id="XMLID_30_" class="st0" d="M14.7,6.6h1.9V5.2h-5.7c0.1-0.4,0.2-1,0.6-1.3h4.9V2.6h-1.3c0.1-0.8,0.6-1.8,0.6-1.8
				c0-0.1,0-0.1-0.1-0.1h-1.2l-0.6,1.9h-1.8c0.1-0.8,0.2-1.7,0.4-2.4c0-0.1,0-0.1-0.1-0.1s-1,0-1.3,0c-0.1,1-0.2,1.9-0.6,2.7h-1
				L8.8,0.8H7.5c-0.1,0-0.1,0-0.1,0.1s0.2,1,0.6,1.8H6.6V4h3.1C9.7,4.4,9.6,5,9.2,5.3h-3v1.3h2.4C7.5,8,6.6,8.6,6.2,8.9
				c0,0.1,0,1.4,0,1.4c0,0.1,0.1,0.1,0.2,0c0.4-0.1,1-0.6,1.3-1h5.5v2H9l0.1-1.2C9.1,10,9.1,10,9,10c-0.1,0-1.3,0-1.3,0l-0.1,2.4
				c0,0.1,0,0.1,0.1,0.1c0.1,0,7.4,0,7.4,0v3.6h-3.3c-0.1,0-0.1,0-0.1,0.1l0.4,1.3h4.7v-6.2h-1.8V8.7c0.7,0.6,1.3,1.1,2,1.3
				c0.1,0.1,0.2,0.1,0.2,0c0,0,0-1.3,0-1.4C16.6,8.3,15.6,7.8,14.7,6.6z M12.9,6.6C13.1,7.1,13.6,7.7,14,8H9.2
				c0.4-0.4,0.7-1,1.1-1.4H12.9L12.9,6.6z"/>
			<path id="XMLID_8_" class="st0" d="M24.9,12.6c0,0-1.3,1-2.7,2V5.2h-3.6v1.7h2v9c-0.6,0.4-1,0.6-1,0.6l1,1.2l4.4-3.2L24.9,12.6
				C25.3,12.6,25.2,12.4,24.9,12.6z"/>
			<path id="XMLID_7_" class="st0" d="M20.9,3.8h1.6c0.2,0,0.2-0.1,0.2-0.1l-2.2-3.4h-1.7l-0.1,0.1C18.8,0.4,20.9,3.8,20.9,3.8z"/>
			<rect id="XMLID_6_" x="38.9" y="1" class="st0" width="12.6" height="1.7"/>
			<path id="XMLID_5_" class="st0" d="M43.5,8.7h9.9V7H37.1v1.7h4.5c-1,2.4-3.1,8.4-3.3,8.6c0,0.1,0,0.1,0.1,0.1h14
				c0.1,0,0.1-0.1,0.1-0.1l-2-5.4h-1.7c-0.1,0-0.1,0.1-0.1,0.1c0,0.1,1.5,3.9,1.5,3.9H41L43.5,8.7z"/>
		</g>
		<g id="XMLID_19_">
			<path id="XMLID_22_" class="st0" d="M24.2,16.3c-0.4,0.4-1.3,1.1-2.9,1.1c-0.7,0-1.5,0-1.8,0c-0.4,0-3.8,0-7.9,0
				c2.9-2.8,5.4-5.1,5.6-5.3c0.2-0.2,0.8-0.8,1.3-1.2c1.1-1,2-1.1,2.8-1.1c1.1,0,2,0.4,2.8,1.1C25.8,12.3,25.8,14.9,24.2,16.3
				L24.2,16.3z M26.1,9.1c-1.1-1.2-2.8-2-4.6-2c-1.6,0-2.9,0.6-4.2,1.4c-0.4,0.4-1.1,0.9-1.7,1.6c-0.4,0.4-10.1,9.8-10.1,9.8
				C6.1,20,6.8,20,7.3,20s11.8,0,12.2,0c0.9,0,1.6,0,2.2-0.1c1.5-0.1,2.9-0.7,4.2-1.8C28.6,15.7,28.6,11.6,26.1,9.1z"/>
			<path id="XMLID_2_" class="st0" d="M10.4,8.4C9.1,7.6,7.9,7.1,6.4,7.1c-1.8,0-3.5,0.8-4.6,2c-2.5,2.6-2.5,6.6,0.1,9.1
				c1.1,1,2.2,1.6,3.6,1.7l2.6-2.4c-0.4,0-1,0-1.5,0c-1.5-0.1-2.4-0.6-2.9-1.1c-1.6-1.6-1.6-4-0.1-5.6C4.4,10,5.3,9.7,6.4,9.7
				c0.7,0,1.7,0.1,2.7,1.1c0.4,0.4,1.7,1.3,2.1,1.8h0.1l1.7-1.7v-0.1C12.3,10,11.1,9,10.4,8.4"/>
			<path id="XMLID_1_" class="st0" d="M22.2,5.7C20.9,2.3,17.7,0,14,0C9.6,0,6.1,3.2,5.4,7.2c0.3,0,0.7-0.1,1.1-0.1
				c0.4,0,1,0.1,1.5,0.1l0,0c0.6-2.8,3-4.8,6-4.8c2.5,0,4.6,1.4,5.6,3.6c0,0,0.1,0.1,0.1,0C20.5,5.9,21.4,5.7,22.2,5.7
				C22.2,5.8,22.2,5.8,22.2,5.7"/>
		</g>
	</g>
</g>
</svg>
